<?xml version="1.0" encoding="utf-8"?>
<!-- Generator: Adobe Illustrator 23.1.1, SVG Export Plug-In . SVG Version: 6.00 Build 0)  -->
<svg version="1.1" id="Layer_1" xmlns="http://www.w3.org/2000/svg" xmlns:xlink="http://www.w3.org/1999/xlink" x="0px" y="0px"
	 viewBox="0 0 1080 720" style="enable-background:new 0 0 1080 720;" xml:space="preserve">
<style type="text/css">
	.st0{clip-path:url(#SVGID_2_);fill:none;stroke:#000000;stroke-linejoin:round;}
	.st1{clip-path:url(#SVGID_4_);fill:none;stroke:#000000;stroke-linejoin:round;}
	.st2{clip-path:url(#SVGID_6_);fill:none;stroke:#000000;stroke-linejoin:round;}
	.st3{clip-path:url(#SVGID_8_);fill:none;stroke:#000000;stroke-linejoin:round;}
	.st4{clip-path:url(#SVGID_10_);fill:none;stroke:#000000;stroke-linejoin:round;}
	.st5{clip-path:url(#SVGID_12_);fill:none;stroke:#000000;stroke-linejoin:round;}
	.st6{clip-path:url(#SVGID_14_);fill:none;stroke:#000000;stroke-linejoin:round;}
	.st7{clip-path:url(#SVGID_16_);fill:none;stroke:#000000;stroke-linejoin:round;}
	.st8{clip-path:url(#SVGID_18_);fill:none;stroke:#000000;stroke-linejoin:round;}
	.st9{clip-path:url(#SVGID_20_);fill:none;stroke:#000000;stroke-linejoin:round;}
	.st10{clip-path:url(#SVGID_22_);fill:none;stroke:#000000;stroke-linejoin:round;}
	.st11{clip-path:url(#SVGID_24_);fill:none;stroke:#000000;stroke-linejoin:round;}
	.st12{clip-path:url(#SVGID_26_);fill:none;stroke:#000000;stroke-linejoin:round;}
	.st13{clip-path:url(#SVGID_28_);fill:none;stroke:#000000;stroke-linejoin:round;}
	.st14{clip-path:url(#SVGID_30_);fill:none;stroke:#000000;stroke-linejoin:round;}
	.st15{clip-path:url(#SVGID_32_);fill:none;stroke:#000000;stroke-linejoin:round;}
	.st16{clip-path:url(#SVGID_34_);fill:none;stroke:#000000;stroke-linejoin:round;}
	.st17{clip-path:url(#SVGID_36_);fill:none;stroke:#000000;stroke-linejoin:round;}
	.st18{clip-path:url(#SVGID_38_);fill:none;stroke:#000000;stroke-linejoin:round;}
	.st19{clip-path:url(#SVGID_40_);fill:none;stroke:#000000;stroke-linejoin:round;}
	.st20{clip-path:url(#SVGID_42_);fill:none;stroke:#000000;stroke-linejoin:round;}
	.st21{clip-path:url(#SVGID_44_);fill:none;stroke:#000000;stroke-linejoin:round;}
	.st22{clip-path:url(#SVGID_46_);fill:none;stroke:#000000;stroke-linejoin:round;}
	.st23{clip-path:url(#SVGID_48_);fill:none;stroke:#000000;stroke-linejoin:round;}
	.st24{clip-path:url(#SVGID_50_);fill:none;stroke:#000000;stroke-linejoin:round;}
	.st25{clip-path:url(#SVGID_52_);fill:none;stroke:#000000;stroke-linejoin:round;}
	.st26{clip-path:url(#SVGID_54_);fill:none;stroke:#000000;stroke-linejoin:round;}
	.st27{clip-path:url(#SVGID_56_);fill:none;stroke:#000000;stroke-linejoin:round;}
	.st28{clip-path:url(#SVGID_58_);fill:none;stroke:#000000;stroke-linejoin:round;}
	.st29{clip-path:url(#SVGID_60_);fill:none;stroke:#000000;stroke-linejoin:round;}
	.st30{clip-path:url(#SVGID_62_);fill:none;stroke:#000000;stroke-linejoin:round;}
	.st31{clip-path:url(#SVGID_64_);fill:none;stroke:#000000;stroke-linejoin:round;}
	.st32{clip-path:url(#SVGID_66_);fill:none;stroke:#000000;stroke-linejoin:round;}
	.st33{clip-path:url(#SVGID_68_);fill:none;stroke:#000000;stroke-linejoin:round;}
	.st34{clip-path:url(#SVGID_70_);fill:none;stroke:#000000;stroke-linejoin:round;}
	.st35{clip-path:url(#SVGID_72_);fill:none;stroke:#000000;stroke-linejoin:round;}
	.st36{clip-path:url(#SVGID_74_);fill:none;stroke:#000000;stroke-linejoin:round;}
	.st37{clip-path:url(#SVGID_76_);fill:none;stroke:#000000;stroke-linejoin:round;}
	.st38{clip-path:url(#SVGID_78_);fill:none;stroke:#000000;stroke-linejoin:round;}
	.st39{clip-path:url(#SVGID_80_);fill:none;stroke:#000000;stroke-linejoin:round;}
	.st40{clip-path:url(#SVGID_82_);fill:none;stroke:#000000;stroke-linejoin:round;}
	.st41{clip-path:url(#SVGID_84_);fill:none;stroke:#000000;stroke-linejoin:round;}
	.st42{clip-path:url(#SVGID_86_);fill:none;stroke:#000000;stroke-linejoin:round;}
	.st43{clip-path:url(#SVGID_88_);fill:none;stroke:#000000;stroke-linejoin:round;}
	.st44{clip-path:url(#SVGID_90_);fill:none;stroke:#000000;stroke-linejoin:round;}
	.st45{clip-path:url(#SVGID_92_);fill:none;stroke:#000000;stroke-linejoin:round;}
	.st46{clip-path:url(#SVGID_94_);fill:#FF0000;stroke:#FF0000;stroke-linejoin:round;}
	.st47{clip-path:url(#SVGID_96_);fill:#FF0000;stroke:#FF0000;stroke-linejoin:round;}
	.st48{clip-path:url(#SVGID_98_);fill:#FF0000;stroke:#FF0000;stroke-linejoin:round;}
	.st49{clip-path:url(#SVGID_100_);fill:#FF0000;stroke:#FF0000;stroke-linejoin:round;}
	.st50{clip-path:url(#SVGID_102_);fill:#FF00FF;stroke:#FF00FF;stroke-linejoin:round;}
	.st51{clip-path:url(#SVGID_104_);fill:#FF00FF;stroke:#FF00FF;stroke-linejoin:round;}
	.st52{clip-path:url(#SVGID_106_);fill:#008000;stroke:#008000;stroke-linejoin:round;}
	.st53{clip-path:url(#SVGID_108_);fill:#008000;stroke:#008000;stroke-linejoin:round;}
	.st54{clip-path:url(#SVGID_110_);fill:#008000;stroke:#008000;stroke-linejoin:round;}
	.st55{clip-path:url(#SVGID_112_);fill:#008000;stroke:#008000;stroke-linejoin:round;}
	.st56{clip-path:url(#SVGID_114_);fill:#008000;stroke:#008000;stroke-linejoin:round;}
	.st57{clip-path:url(#SVGID_116_);fill:#008000;stroke:#008000;stroke-linejoin:round;}
	.st58{clip-path:url(#SVGID_118_);fill:#0000FF;stroke:#0000FF;stroke-linejoin:round;}
	.st59{clip-path:url(#SVGID_120_);fill:#0000FF;stroke:#0000FF;stroke-linejoin:round;}
	.st60{clip-path:url(#SVGID_122_);fill:#0000FF;stroke:#0000FF;stroke-linejoin:round;}
	.st61{clip-path:url(#SVGID_124_);fill:#0000FF;stroke:#0000FF;stroke-linejoin:round;}
	.st62{clip-path:url(#SVGID_126_);fill:#FF0000;stroke:#FF0000;stroke-linejoin:round;}
	.st63{clip-path:url(#SVGID_128_);fill:#FF0000;stroke:#FF0000;stroke-linejoin:round;}
	.st64{clip-path:url(#SVGID_130_);fill:#FF0000;stroke:#FF0000;stroke-linejoin:round;}
	.st65{clip-path:url(#SVGID_132_);fill:#FF0000;stroke:#FF0000;stroke-linejoin:round;}
	.st66{clip-path:url(#SVGID_134_);fill:#FFFF00;stroke:#FFFF00;stroke-linejoin:round;}
	.st67{clip-path:url(#SVGID_136_);fill:#FFFF00;stroke:#FFFF00;stroke-linejoin:round;}
	.st68{clip-path:url(#SVGID_138_);fill:#FFFF00;stroke:#FFFF00;stroke-linejoin:round;}
	.st69{clip-path:url(#SVGID_140_);fill:#FFFF00;stroke:#FFFF00;stroke-linejoin:round;}
	.st70{clip-path:url(#SVGID_142_);fill:#FFFF00;stroke:#FFFF00;stroke-linejoin:round;}
	.st71{clip-path:url(#SVGID_144_);fill:#FFFF00;stroke:#FFFF00;stroke-linejoin:round;}
	.st72{clip-path:url(#SVGID_146_);fill:#FFFF00;stroke:#FFFF00;stroke-linejoin:round;}
	.st73{clip-path:url(#SVGID_148_);fill:#FF0000;stroke:#FF0000;stroke-linejoin:round;}
	.st74{clip-path:url(#SVGID_150_);fill:#FFFF00;stroke:#FFFF00;stroke-linejoin:round;}
	.st75{clip-path:url(#SVGID_152_);fill:#FFFF00;stroke:#FFFF00;stroke-linejoin:round;}
	.st76{clip-path:url(#SVGID_154_);fill:#FF0000;stroke:#FF0000;stroke-linejoin:round;}
	.st77{clip-path:url(#SVGID_156_);fill:#FFFF00;stroke:#FFFF00;stroke-linejoin:round;}
	.st78{clip-path:url(#SVGID_158_);fill:#FFFF00;stroke:#FFFF00;stroke-linejoin:round;}
	.st79{clip-path:url(#SVGID_160_);fill:#FFFF00;stroke:#FFFF00;stroke-linejoin:round;}
	.st80{clip-path:url(#SVGID_162_);}
	.st81{clip-path:url(#SVGID_164_);}
	.st82{clip-path:url(#SVGID_166_);}
	.st83{clip-path:url(#SVGID_168_);}
	.st84{clip-path:url(#SVGID_170_);}
	.st85{clip-path:url(#SVGID_172_);}
	.st86{clip-path:url(#SVGID_174_);}
	.st87{clip-path:url(#SVGID_176_);}
	.st88{clip-path:url(#SVGID_178_);}
	.st89{clip-path:url(#SVGID_180_);}
	.st90{clip-path:url(#SVGID_182_);}
	.st91{clip-path:url(#SVGID_184_);}
	.st92{clip-path:url(#SVGID_186_);}
	.st93{clip-path:url(#SVGID_188_);}
	.st94{clip-path:url(#SVGID_190_);}
	.st95{clip-path:url(#SVGID_192_);}
	.st96{clip-path:url(#SVGID_194_);}
	.st97{clip-path:url(#SVGID_196_);}
	.st98{clip-path:url(#SVGID_198_);}
	.st99{clip-path:url(#SVGID_200_);}
	.st100{clip-path:url(#SVGID_202_);}
	.st101{clip-path:url(#SVGID_204_);}
	.st102{clip-path:url(#SVGID_206_);}
	.st103{clip-path:url(#SVGID_208_);}
	.st104{clip-path:url(#SVGID_210_);}
	.st105{clip-path:url(#SVGID_212_);}
	.st106{clip-path:url(#SVGID_214_);}
	.st107{clip-path:url(#SVGID_216_);}
	.st108{clip-path:url(#SVGID_218_);}
	.st109{clip-path:url(#SVGID_220_);}
	.st110{clip-path:url(#SVGID_222_);}
	.st111{clip-path:url(#SVGID_224_);}
	.st112{clip-path:url(#SVGID_226_);}
	.st113{clip-path:url(#SVGID_228_);}
</style>
<g>
	<defs>
		<rect id="SVGID_1_" y="0" width="1080" height="720"/>
	</defs>
	<clipPath id="SVGID_2_">
		<use xlink:href="#SVGID_1_"  style="overflow:visible;"/>
	</clipPath>
	<path class="st0" d="M800.5,242l31.3,25.7"/>
</g>
<g>
	<defs>
		<rect id="SVGID_3_" y="0" width="1080" height="720"/>
	</defs>
	<clipPath id="SVGID_4_">
		<use xlink:href="#SVGID_3_"  style="overflow:visible;"/>
	</clipPath>
	<path class="st1" d="M800.5,242l-39.3-52"/>
</g>
<g>
	<defs>
		<rect id="SVGID_5_" y="0" width="1080" height="720"/>
	</defs>
	<clipPath id="SVGID_6_">
		<use xlink:href="#SVGID_5_"  style="overflow:visible;"/>
	</clipPath>
	<path class="st2" d="M800.5,242l-5.5,43"/>
</g>
<g>
	<defs>
		<rect id="SVGID_7_" y="0" width="1080" height="720"/>
	</defs>
	<clipPath id="SVGID_8_">
		<use xlink:href="#SVGID_7_"  style="overflow:visible;"/>
	</clipPath>
	<path class="st3" d="M831.8,267.7l-55.5-16.8"/>
</g>
<g>
	<defs>
		<rect id="SVGID_9_" y="0" width="1080" height="720"/>
	</defs>
	<clipPath id="SVGID_10_">
		<use xlink:href="#SVGID_9_"  style="overflow:visible;"/>
	</clipPath>
	<path class="st4" d="M761.3,190l-48.9-41.2"/>
</g>
<g>
	<defs>
		<rect id="SVGID_11_" y="0" width="1080" height="720"/>
	</defs>
	<clipPath id="SVGID_12_">
		<use xlink:href="#SVGID_11_"  style="overflow:visible;"/>
	</clipPath>
	<path class="st5" d="M761.3,190l29.5-50"/>
</g>
<g>
	<defs>
		<rect id="SVGID_13_" y="0" width="1080" height="720"/>
	</defs>
	<clipPath id="SVGID_14_">
		<use xlink:href="#SVGID_13_"  style="overflow:visible;"/>
	</clipPath>
	<path class="st6" d="M761.3,190l5-47.7"/>
</g>
<g>
	<defs>
		<rect id="SVGID_15_" y="0" width="1080" height="720"/>
	</defs>
	<clipPath id="SVGID_16_">
		<use xlink:href="#SVGID_15_"  style="overflow:visible;"/>
	</clipPath>
	<path class="st7" d="M761.3,190L744.1,153"/>
</g>
<g>
	<defs>
		<rect id="SVGID_17_" y="0" width="1080" height="720"/>
	</defs>
	<clipPath id="SVGID_18_">
		<use xlink:href="#SVGID_17_"  style="overflow:visible;"/>
	</clipPath>
	<path class="st8" d="M761.3,190l15,60.9"/>
</g>
<g>
	<defs>
		<rect id="SVGID_19_" y="0" width="1080" height="720"/>
	</defs>
	<clipPath id="SVGID_20_">
		<use xlink:href="#SVGID_19_"  style="overflow:visible;"/>
	</clipPath>
	<path class="st9" d="M795,285l-18.7-34.1"/>
</g>
<g>
	<defs>
		<rect id="SVGID_21_" y="0" width="1080" height="720"/>
	</defs>
	<clipPath id="SVGID_22_">
		<use xlink:href="#SVGID_21_"  style="overflow:visible;"/>
	</clipPath>
	<path class="st10" d="M476.8,116.3l46.4,15.1"/>
</g>
<g>
	<defs>
		<rect id="SVGID_23_" y="0" width="1080" height="720"/>
	</defs>
	<clipPath id="SVGID_24_">
		<use xlink:href="#SVGID_23_"  style="overflow:visible;"/>
	</clipPath>
	<path class="st11" d="M728.9,344.5l-17.1,38.9"/>
</g>
<g>
	<defs>
		<rect id="SVGID_25_" y="0" width="1080" height="720"/>
	</defs>
	<clipPath id="SVGID_26_">
		<use xlink:href="#SVGID_25_"  style="overflow:visible;"/>
	</clipPath>
	<path class="st12" d="M728.9,344.5l-48.1-6.3"/>
</g>
<g>
	<defs>
		<rect id="SVGID_27_" y="0" width="1080" height="720"/>
	</defs>
	<clipPath id="SVGID_28_">
		<use xlink:href="#SVGID_27_"  style="overflow:visible;"/>
	</clipPath>
	<path class="st13" d="M728.9,344.5l-44.4,21.4"/>
</g>
<g>
	<defs>
		<rect id="SVGID_29_" y="0" width="1080" height="720"/>
	</defs>
	<clipPath id="SVGID_30_">
		<use xlink:href="#SVGID_29_"  style="overflow:visible;"/>
	</clipPath>
	<path class="st14" d="M728.9,344.5l57.6,30.3"/>
</g>
<g>
	<defs>
		<rect id="SVGID_31_" y="0" width="1080" height="720"/>
	</defs>
	<clipPath id="SVGID_32_">
		<use xlink:href="#SVGID_31_"  style="overflow:visible;"/>
	</clipPath>
	<path class="st15" d="M728.9,344.5l4.8-49.2"/>
</g>
<g>
	<defs>
		<rect id="SVGID_33_" y="0" width="1080" height="720"/>
	</defs>
	<clipPath id="SVGID_34_">
		<use xlink:href="#SVGID_33_"  style="overflow:visible;"/>
	</clipPath>
	<path class="st16" d="M680.9,338.2l3.7,27.7"/>
</g>
<g>
	<defs>
		<rect id="SVGID_35_" y="0" width="1080" height="720"/>
	</defs>
	<clipPath id="SVGID_36_">
		<use xlink:href="#SVGID_35_"  style="overflow:visible;"/>
	</clipPath>
	<path class="st17" d="M438.9,290.7l7.5-40.1"/>
</g>
<g>
	<defs>
		<rect id="SVGID_37_" y="0" width="1080" height="720"/>
	</defs>
	<clipPath id="SVGID_38_">
		<use xlink:href="#SVGID_37_"  style="overflow:visible;"/>
	</clipPath>
	<path class="st18" d="M438.9,290.7L425,321.3"/>
</g>
<g>
	<defs>
		<rect id="SVGID_39_" y="0" width="1080" height="720"/>
	</defs>
	<clipPath id="SVGID_40_">
		<use xlink:href="#SVGID_39_"  style="overflow:visible;"/>
	</clipPath>
	<path class="st19" d="M438.9,290.7l24.1,29.7"/>
</g>
<g>
	<defs>
		<rect id="SVGID_41_" y="0" width="1080" height="720"/>
	</defs>
	<clipPath id="SVGID_42_">
		<use xlink:href="#SVGID_41_"  style="overflow:visible;"/>
	</clipPath>
	<path class="st20" d="M425,321.3l37.9-0.8"/>
</g>
<g>
	<defs>
		<rect id="SVGID_43_" y="0" width="1080" height="720"/>
	</defs>
	<clipPath id="SVGID_44_">
		<use xlink:href="#SVGID_43_"  style="overflow:visible;"/>
	</clipPath>
	<path class="st21" d="M712.4,148.9l25.9-28.2"/>
</g>
<g>
	<defs>
		<rect id="SVGID_45_" y="0" width="1080" height="720"/>
	</defs>
	<clipPath id="SVGID_46_">
		<use xlink:href="#SVGID_45_"  style="overflow:visible;"/>
	</clipPath>
	<path class="st22" d="M738.3,120.7l52.5,19.4"/>
</g>
<g>
	<defs>
		<rect id="SVGID_47_" y="0" width="1080" height="720"/>
	</defs>
	<clipPath id="SVGID_48_">
		<use xlink:href="#SVGID_47_"  style="overflow:visible;"/>
	</clipPath>
	<path class="st23" d="M738.3,120.7l28,21.7"/>
</g>
<g>
	<defs>
		<rect id="SVGID_49_" y="0" width="1080" height="720"/>
	</defs>
	<clipPath id="SVGID_50_">
		<use xlink:href="#SVGID_49_"  style="overflow:visible;"/>
	</clipPath>
	<path class="st24" d="M738.3,120.7l5.8,32.3"/>
</g>
<g>
	<defs>
		<rect id="SVGID_51_" y="0" width="1080" height="720"/>
	</defs>
	<clipPath id="SVGID_52_">
		<use xlink:href="#SVGID_51_"  style="overflow:visible;"/>
	</clipPath>
	<path class="st25" d="M790.8,140l-24.4,2.3"/>
</g>
<g>
	<defs>
		<rect id="SVGID_53_" y="0" width="1080" height="720"/>
	</defs>
	<clipPath id="SVGID_54_">
		<use xlink:href="#SVGID_53_"  style="overflow:visible;"/>
	</clipPath>
	<path class="st26" d="M766.3,142.3L744.1,153"/>
</g>
<g>
	<defs>
		<rect id="SVGID_55_" y="0" width="1080" height="720"/>
	</defs>
	<clipPath id="SVGID_56_">
		<use xlink:href="#SVGID_55_"  style="overflow:visible;"/>
	</clipPath>
	<path class="st27" d="M484.4,193.9l21,40.5"/>
</g>
<g>
	<defs>
		<rect id="SVGID_57_" y="0" width="1080" height="720"/>
	</defs>
	<clipPath id="SVGID_58_">
		<use xlink:href="#SVGID_57_"  style="overflow:visible;"/>
	</clipPath>
	<path class="st28" d="M484.4,193.9l24.9,18.9"/>
</g>
<g>
	<defs>
		<rect id="SVGID_59_" y="0" width="1080" height="720"/>
	</defs>
	<clipPath id="SVGID_60_">
		<use xlink:href="#SVGID_59_"  style="overflow:visible;"/>
	</clipPath>
	<path class="st29" d="M484.4,193.9l65.4,2.1"/>
</g>
<g>
	<defs>
		<rect id="SVGID_61_" y="0" width="1080" height="720"/>
	</defs>
	<clipPath id="SVGID_62_">
		<use xlink:href="#SVGID_61_"  style="overflow:visible;"/>
	</clipPath>
	<path class="st30" d="M505.4,234.4l52.3,8.3"/>
</g>
<g>
	<defs>
		<rect id="SVGID_63_" y="0" width="1080" height="720"/>
	</defs>
	<clipPath id="SVGID_64_">
		<use xlink:href="#SVGID_63_"  style="overflow:visible;"/>
	</clipPath>
	<path class="st31" d="M505.4,234.4l56.5-13.8"/>
</g>
<g>
	<defs>
		<rect id="SVGID_65_" y="0" width="1080" height="720"/>
	</defs>
	<clipPath id="SVGID_66_">
		<use xlink:href="#SVGID_65_"  style="overflow:visible;"/>
	</clipPath>
	<path class="st32" d="M509.3,212.8l48.4,29.8"/>
</g>
<g>
	<defs>
		<rect id="SVGID_67_" y="0" width="1080" height="720"/>
	</defs>
	<clipPath id="SVGID_68_">
		<use xlink:href="#SVGID_67_"  style="overflow:visible;"/>
	</clipPath>
	<path class="st33" d="M509.3,212.8l52.6,7.8"/>
</g>
<g>
	<defs>
		<rect id="SVGID_69_" y="0" width="1080" height="720"/>
	</defs>
	<clipPath id="SVGID_70_">
		<use xlink:href="#SVGID_69_"  style="overflow:visible;"/>
	</clipPath>
	<path class="st34" d="M549.8,196l12.1,24.6"/>
</g>
<g>
	<defs>
		<rect id="SVGID_71_" y="0" width="1080" height="720"/>
	</defs>
	<clipPath id="SVGID_72_">
		<use xlink:href="#SVGID_71_"  style="overflow:visible;"/>
	</clipPath>
	<path class="st35" d="M549.8,196l59.4,44.9"/>
</g>
<g>
	<defs>
		<rect id="SVGID_73_" y="0" width="1080" height="720"/>
	</defs>
	<clipPath id="SVGID_74_">
		<use xlink:href="#SVGID_73_"  style="overflow:visible;"/>
	</clipPath>
	<path class="st36" d="M657.8,264l-48.6-23.1"/>
</g>
<g>
	<defs>
		<rect id="SVGID_75_" y="0" width="1080" height="720"/>
	</defs>
	<clipPath id="SVGID_76_">
		<use xlink:href="#SVGID_75_"  style="overflow:visible;"/>
	</clipPath>
	<path class="st37" d="M657.8,264l-30.5-32.6"/>
</g>
<g>
	<defs>
		<rect id="SVGID_77_" y="0" width="1080" height="720"/>
	</defs>
	<clipPath id="SVGID_78_">
		<use xlink:href="#SVGID_77_"  style="overflow:visible;"/>
	</clipPath>
	<path class="st38" d="M609.2,240.9l-51.5,1.7"/>
</g>
<g>
	<defs>
		<rect id="SVGID_79_" y="0" width="1080" height="720"/>
	</defs>
	<clipPath id="SVGID_80_">
		<use xlink:href="#SVGID_79_"  style="overflow:visible;"/>
	</clipPath>
	<path class="st39" d="M609.2,240.9l-47.3-20.3"/>
</g>
<g>
	<defs>
		<rect id="SVGID_81_" y="0" width="1080" height="720"/>
	</defs>
	<clipPath id="SVGID_82_">
		<use xlink:href="#SVGID_81_"  style="overflow:visible;"/>
	</clipPath>
	<path class="st40" d="M609.2,240.9l13.3,36.3"/>
</g>
<g>
	<defs>
		<rect id="SVGID_83_" y="0" width="1080" height="720"/>
	</defs>
	<clipPath id="SVGID_84_">
		<use xlink:href="#SVGID_83_"  style="overflow:visible;"/>
	</clipPath>
	<path class="st41" d="M609.2,240.9l76.6,2.7"/>
</g>
<g>
	<defs>
		<rect id="SVGID_85_" y="0" width="1080" height="720"/>
	</defs>
	<clipPath id="SVGID_86_">
		<use xlink:href="#SVGID_85_"  style="overflow:visible;"/>
	</clipPath>
	<path class="st42" d="M627.3,231.4l-69.6,11.2"/>
</g>
<g>
	<defs>
		<rect id="SVGID_87_" y="0" width="1080" height="720"/>
	</defs>
	<clipPath id="SVGID_88_">
		<use xlink:href="#SVGID_87_"  style="overflow:visible;"/>
	</clipPath>
	<path class="st43" d="M627.3,231.4l-65.4-10.8"/>
</g>
<g>
	<defs>
		<rect id="SVGID_89_" y="0" width="1080" height="720"/>
	</defs>
	<clipPath id="SVGID_90_">
		<use xlink:href="#SVGID_89_"  style="overflow:visible;"/>
	</clipPath>
	<path class="st44" d="M627.3,231.4l41.2-41.6"/>
</g>
<g>
	<defs>
		<rect id="SVGID_91_" y="0" width="1080" height="720"/>
	</defs>
	<clipPath id="SVGID_92_">
		<use xlink:href="#SVGID_91_"  style="overflow:visible;"/>
	</clipPath>
	<path class="st45" d="M627.3,231.4l-4.8,45.8"/>
</g>
<g>
	<defs>
		<rect id="SVGID_93_" y="0" width="1080" height="720"/>
	</defs>
	<clipPath id="SVGID_94_">
		<use xlink:href="#SVGID_93_"  style="overflow:visible;"/>
	</clipPath>
	<path class="st46" d="M800.5,257c4,0,7.8-1.6,10.6-4.4c2.8-2.8,4.4-6.6,4.4-10.6c0-4-1.6-7.8-4.4-10.6c-2.8-2.8-6.6-4.4-10.6-4.4
		s-7.8,1.6-10.6,4.4c-2.8,2.8-4.4,6.6-4.4,10.6c0,4,1.6,7.8,4.4,10.6C792.7,255.4,796.6,257,800.5,257z"/>
</g>
<g>
	<defs>
		<rect id="SVGID_95_" y="0" width="1080" height="720"/>
	</defs>
	<clipPath id="SVGID_96_">
		<use xlink:href="#SVGID_95_"  style="overflow:visible;"/>
	</clipPath>
	<path class="st47" d="M831.8,279.9c3.2,0,6.4-1.3,8.7-3.6c2.3-2.3,3.6-5.4,3.6-8.7c0-3.2-1.3-6.4-3.6-8.7c-2.3-2.3-5.4-3.6-8.7-3.6
		s-6.4,1.3-8.7,3.6c-2.3,2.3-3.6,5.4-3.6,8.7c0,3.2,1.3,6.4,3.6,8.7C825.5,278.7,828.6,279.9,831.8,279.9z"/>
</g>
<g>
	<defs>
		<rect id="SVGID_97_" y="0" width="1080" height="720"/>
	</defs>
	<clipPath id="SVGID_98_">
		<use xlink:href="#SVGID_97_"  style="overflow:visible;"/>
	</clipPath>
	<path class="st48" d="M761.3,211.2c5.6,0,11-2.2,15-6.2s6.2-9.4,6.2-15s-2.2-11-6.2-15s-9.4-6.2-15-6.2s-11,2.2-15,6.2
		s-6.2,9.4-6.2,15s2.2,11,6.2,15S755.7,211.2,761.3,211.2z"/>
</g>
<g>
	<defs>
		<rect id="SVGID_99_" y="0" width="1080" height="720"/>
	</defs>
	<clipPath id="SVGID_100_">
		<use xlink:href="#SVGID_99_"  style="overflow:visible;"/>
	</clipPath>
	<path class="st49" d="M795,297.3c3.2,0,6.4-1.3,8.7-3.6c2.3-2.3,3.6-5.4,3.6-8.7c0-3.2-1.3-6.4-3.6-8.7c-2.3-2.3-5.4-3.6-8.7-3.6
		c-3.2,0-6.4,1.3-8.7,3.6c-2.3,2.3-3.6,5.4-3.6,8.7c0,3.2,1.3,6.4,3.6,8.7S791.8,297.3,795,297.3z"/>
</g>
<g>
	<defs>
		<rect id="SVGID_101_" y="0" width="1080" height="720"/>
	</defs>
	<clipPath id="SVGID_102_">
		<use xlink:href="#SVGID_101_"  style="overflow:visible;"/>
	</clipPath>
	<path class="st50" d="M476.8,124.9c2.3,0,4.5-0.9,6.1-2.5c1.6-1.6,2.5-3.8,2.5-6.1s-0.9-4.5-2.5-6.1c-1.6-1.6-3.8-2.5-6.1-2.5
		c-2.3,0-4.5,0.9-6.1,2.5s-2.5,3.8-2.5,6.1s0.9,4.5,2.5,6.1S474.5,124.9,476.8,124.9z"/>
</g>
<g>
	<defs>
		<rect id="SVGID_103_" y="0" width="1080" height="720"/>
	</defs>
	<clipPath id="SVGID_104_">
		<use xlink:href="#SVGID_103_"  style="overflow:visible;"/>
	</clipPath>
	<path class="st51" d="M523.2,140.1c2.3,0,4.5-0.9,6.1-2.5c1.6-1.6,2.5-3.8,2.5-6.1s-0.9-4.5-2.5-6.1s-3.8-2.5-6.1-2.5
		c-2.3,0-4.5,0.9-6.1,2.5s-2.5,3.8-2.5,6.1s0.9,4.5,2.5,6.1C518.7,139.1,520.9,140.1,523.2,140.1z"/>
</g>
<g>
	<defs>
		<rect id="SVGID_105_" y="0" width="1080" height="720"/>
	</defs>
	<clipPath id="SVGID_106_">
		<use xlink:href="#SVGID_105_"  style="overflow:visible;"/>
	</clipPath>
	<path class="st52" d="M728.9,363.9c5.1,0,10.1-2,13.7-5.7c3.6-3.6,5.7-8.6,5.7-13.7c0-5.1-2-10.1-5.7-13.7
		c-3.6-3.6-8.6-5.7-13.7-5.7s-10.1,2-13.7,5.7c-3.6,3.6-5.7,8.6-5.7,13.7c0,5.1,2,10.1,5.7,13.7
		C718.9,361.8,723.8,363.9,728.9,363.9z"/>
</g>
<g>
	<defs>
		<rect id="SVGID_107_" y="0" width="1080" height="720"/>
	</defs>
	<clipPath id="SVGID_108_">
		<use xlink:href="#SVGID_107_"  style="overflow:visible;"/>
	</clipPath>
	<path class="st53" d="M711.9,392c2.3,0,4.5-0.9,6.1-2.5s2.5-3.8,2.5-6.1c0-2.3-0.9-4.5-2.5-6.1c-1.6-1.6-3.8-2.5-6.1-2.5
		c-2.3,0-4.5,0.9-6.1,2.5c-1.6,1.6-2.5,3.8-2.5,6.1c0,2.3,0.9,4.5,2.5,6.1S709.6,392,711.9,392z"/>
</g>
<g>
	<defs>
		<rect id="SVGID_109_" y="0" width="1080" height="720"/>
	</defs>
	<clipPath id="SVGID_110_">
		<use xlink:href="#SVGID_109_"  style="overflow:visible;"/>
	</clipPath>
	<path class="st54" d="M680.9,350.5c3.2,0,6.4-1.3,8.7-3.6c2.3-2.3,3.6-5.4,3.6-8.7s-1.3-6.4-3.6-8.7c-2.3-2.3-5.4-3.6-8.7-3.6
		c-3.2,0-6.4,1.3-8.7,3.6c-2.3,2.3-3.6,5.4-3.6,8.7s1.3,6.4,3.6,8.7C674.5,349.2,677.6,350.5,680.9,350.5z"/>
</g>
<g>
	<defs>
		<rect id="SVGID_111_" y="0" width="1080" height="720"/>
	</defs>
	<clipPath id="SVGID_112_">
		<use xlink:href="#SVGID_111_"  style="overflow:visible;"/>
	</clipPath>
	<path class="st55" d="M684.6,378.2c3.2,0,6.4-1.3,8.7-3.6c2.3-2.3,3.6-5.4,3.6-8.7c0-3.2-1.3-6.4-3.6-8.7c-2.3-2.3-5.4-3.6-8.7-3.6
		s-6.4,1.3-8.7,3.6c-2.3,2.3-3.6,5.4-3.6,8.7c0,3.2,1.3,6.4,3.6,8.7C678.2,376.9,681.3,378.2,684.6,378.2z"/>
</g>
<g>
	<defs>
		<rect id="SVGID_113_" y="0" width="1080" height="720"/>
	</defs>
	<clipPath id="SVGID_114_">
		<use xlink:href="#SVGID_113_"  style="overflow:visible;"/>
	</clipPath>
	<path class="st56" d="M786.5,383.5c2.3,0,4.5-0.9,6.1-2.5s2.5-3.8,2.5-6.1c0-2.3-0.9-4.5-2.5-6.1c-1.6-1.6-3.8-2.5-6.1-2.5
		s-4.5,0.9-6.1,2.5c-1.6,1.6-2.5,3.8-2.5,6.1c0,2.3,0.9,4.5,2.5,6.1C782,382.6,784.2,383.5,786.5,383.5z"/>
</g>
<g>
	<defs>
		<rect id="SVGID_115_" y="0" width="1080" height="720"/>
	</defs>
	<clipPath id="SVGID_116_">
		<use xlink:href="#SVGID_115_"  style="overflow:visible;"/>
	</clipPath>
	<path class="st57" d="M733.7,303.9c2.3,0,4.5-0.9,6.1-2.5c1.6-1.6,2.5-3.8,2.5-6.1c0-2.3-0.9-4.5-2.5-6.1s-3.8-2.5-6.1-2.5
		c-2.3,0-4.5,0.9-6.1,2.5s-2.5,3.8-2.5,6.1c0,2.3,0.9,4.5,2.5,6.1C729.2,303,731.4,303.9,733.7,303.9z"/>
</g>
<g>
	<defs>
		<rect id="SVGID_117_" y="0" width="1080" height="720"/>
	</defs>
	<clipPath id="SVGID_118_">
		<use xlink:href="#SVGID_117_"  style="overflow:visible;"/>
	</clipPath>
	<path class="st58" d="M438.9,305.7c4,0,7.8-1.6,10.6-4.4c2.8-2.8,4.4-6.6,4.4-10.6s-1.6-7.8-4.4-10.6c-2.8-2.8-6.6-4.4-10.6-4.4
		c-4,0-7.8,1.6-10.6,4.4c-2.8,2.8-4.4,6.6-4.4,10.6s1.6,7.8,4.4,10.6C431.1,304.1,434.9,305.7,438.9,305.7z"/>
</g>
<g>
	<defs>
		<rect id="SVGID_119_" y="0" width="1080" height="720"/>
	</defs>
	<clipPath id="SVGID_120_">
		<use xlink:href="#SVGID_119_"  style="overflow:visible;"/>
	</clipPath>
	<path class="st59" d="M446.3,259.3c2.3,0,4.5-0.9,6.1-2.5c1.6-1.6,2.5-3.8,2.5-6.1c0-2.3-0.9-4.5-2.5-6.1c-1.6-1.6-3.8-2.5-6.1-2.5
		s-4.5,0.9-6.1,2.5s-2.5,3.8-2.5,6.1c0,2.3,0.9,4.5,2.5,6.1C441.8,258.4,444,259.3,446.3,259.3z"/>
</g>
<g>
	<defs>
		<rect id="SVGID_121_" y="0" width="1080" height="720"/>
	</defs>
	<clipPath id="SVGID_122_">
		<use xlink:href="#SVGID_121_"  style="overflow:visible;"/>
	</clipPath>
	<path class="st60" d="M425,333.5c3.2,0,6.4-1.3,8.7-3.6c2.3-2.3,3.6-5.4,3.6-8.7c0-3.2-1.3-6.4-3.6-8.7c-2.3-2.3-5.4-3.6-8.7-3.6
		c-3.2,0-6.4,1.3-8.7,3.6c-2.3,2.3-3.6,5.4-3.6,8.7c0,3.2,1.3,6.4,3.6,8.7C418.6,332.2,421.7,333.5,425,333.5z"/>
</g>
<g>
	<defs>
		<rect id="SVGID_123_" y="0" width="1080" height="720"/>
	</defs>
	<clipPath id="SVGID_124_">
		<use xlink:href="#SVGID_123_"  style="overflow:visible;"/>
	</clipPath>
	<path class="st61" d="M462.9,332.7c3.2,0,6.4-1.3,8.7-3.6c2.3-2.3,3.6-5.4,3.6-8.7c0-3.2-1.3-6.4-3.6-8.7c-2.3-2.3-5.4-3.6-8.7-3.6
		s-6.4,1.3-8.7,3.6c-2.3,2.3-3.6,5.4-3.6,8.7c0,3.2,1.3,6.4,3.6,8.7C456.6,331.4,459.7,332.7,462.9,332.7z"/>
</g>
<g>
	<defs>
		<rect id="SVGID_125_" y="0" width="1080" height="720"/>
	</defs>
	<clipPath id="SVGID_126_">
		<use xlink:href="#SVGID_125_"  style="overflow:visible;"/>
	</clipPath>
	<path class="st62" d="M712.4,161.1c3.2,0,6.4-1.3,8.7-3.6c2.3-2.3,3.6-5.4,3.6-8.7s-1.3-6.4-3.6-8.7c-2.3-2.3-5.4-3.6-8.7-3.6
		s-6.4,1.3-8.7,3.6c-2.3,2.3-3.6,5.4-3.6,8.7s1.3,6.4,3.6,8.7C706,159.8,709.2,161.1,712.4,161.1z"/>
</g>
<g>
	<defs>
		<rect id="SVGID_127_" y="0" width="1080" height="720"/>
	</defs>
	<clipPath id="SVGID_128_">
		<use xlink:href="#SVGID_127_"  style="overflow:visible;"/>
	</clipPath>
	<path class="st63" d="M738.3,138c4.6,0,9-1.8,12.2-5.1s5.1-7.7,5.1-12.2s-1.8-9-5.1-12.2c-3.2-3.2-7.7-5.1-12.2-5.1
		s-9,1.8-12.2,5.1c-3.2,3.2-5.1,7.7-5.1,12.2s1.8,9,5.1,12.2S733.7,138,738.3,138z"/>
</g>
<g>
	<defs>
		<rect id="SVGID_129_" y="0" width="1080" height="720"/>
	</defs>
	<clipPath id="SVGID_130_">
		<use xlink:href="#SVGID_129_"  style="overflow:visible;"/>
	</clipPath>
	<path class="st64" d="M790.8,155c4,0,7.8-1.6,10.6-4.4c2.8-2.8,4.4-6.6,4.4-10.6c0-4-1.6-7.8-4.4-10.6c-2.8-2.8-6.6-4.4-10.6-4.4
		s-7.8,1.6-10.6,4.4c-2.8,2.8-4.4,6.6-4.4,10.6c0,4,1.6,7.8,4.4,10.6C783,153.4,786.8,155,790.8,155z"/>
</g>
<g>
	<defs>
		<rect id="SVGID_131_" y="0" width="1080" height="720"/>
	</defs>
	<clipPath id="SVGID_132_">
		<use xlink:href="#SVGID_131_"  style="overflow:visible;"/>
	</clipPath>
	<path class="st65" d="M766.3,159.6c4.6,0,9-1.8,12.2-5.1s5.1-7.7,5.1-12.2c0-4.6-1.8-9-5.1-12.2c-3.2-3.2-7.7-5.1-12.2-5.1
		s-9,1.8-12.2,5.1c-3.2,3.2-5.1,7.7-5.1,12.2c0,4.6,1.8,9,5.1,12.2S761.7,159.6,766.3,159.6z"/>
</g>
<g>
	<defs>
		<rect id="SVGID_133_" y="0" width="1080" height="720"/>
	</defs>
	<clipPath id="SVGID_134_">
		<use xlink:href="#SVGID_133_"  style="overflow:visible;"/>
	</clipPath>
	<path class="st66" d="M484.4,208.9c4,0,7.8-1.6,10.6-4.4c2.8-2.8,4.4-6.6,4.4-10.6c0-4-1.6-7.8-4.4-10.6c-2.8-2.8-6.6-4.4-10.6-4.4
		c-4,0-7.8,1.6-10.6,4.4c-2.8,2.8-4.4,6.6-4.4,10.6c0,4,1.6,7.8,4.4,10.6C476.6,207.3,480.4,208.9,484.4,208.9z"/>
</g>
<g>
	<defs>
		<rect id="SVGID_135_" y="0" width="1080" height="720"/>
	</defs>
	<clipPath id="SVGID_136_">
		<use xlink:href="#SVGID_135_"  style="overflow:visible;"/>
	</clipPath>
	<path class="st67" d="M505.4,249.4c4,0,7.8-1.6,10.6-4.4c2.8-2.8,4.4-6.6,4.4-10.6s-1.6-7.8-4.4-10.6c-2.8-2.8-6.6-4.4-10.6-4.4
		s-7.8,1.6-10.6,4.4c-2.8,2.8-4.4,6.6-4.4,10.6s1.6,7.8,4.4,10.6C497.6,247.8,501.4,249.4,505.4,249.4z"/>
</g>
<g>
	<defs>
		<rect id="SVGID_137_" y="0" width="1080" height="720"/>
	</defs>
	<clipPath id="SVGID_138_">
		<use xlink:href="#SVGID_137_"  style="overflow:visible;"/>
	</clipPath>
	<path class="st68" d="M509.3,227.8c4,0,7.8-1.6,10.6-4.4c2.8-2.8,4.4-6.6,4.4-10.6s-1.6-7.8-4.4-10.6c-2.8-2.8-6.6-4.4-10.6-4.4
		s-7.8,1.6-10.6,4.4c-2.8,2.8-4.4,6.6-4.4,10.6s1.6,7.8,4.4,10.6C501.5,226.3,505.3,227.8,509.3,227.8z"/>
</g>
<g>
	<defs>
		<rect id="SVGID_139_" y="0" width="1080" height="720"/>
	</defs>
	<clipPath id="SVGID_140_">
		<use xlink:href="#SVGID_139_"  style="overflow:visible;"/>
	</clipPath>
	<path class="st69" d="M549.8,211c4,0,7.8-1.6,10.6-4.4c2.8-2.8,4.4-6.6,4.4-10.6s-1.6-7.8-4.4-10.6c-2.8-2.8-6.6-4.4-10.6-4.4
		s-7.8,1.6-10.6,4.4c-2.8,2.8-4.4,6.6-4.4,10.6s1.6,7.8,4.4,10.6C542,209.4,545.8,211,549.8,211z"/>
</g>
<g>
	<defs>
		<rect id="SVGID_141_" y="0" width="1080" height="720"/>
	</defs>
	<clipPath id="SVGID_142_">
		<use xlink:href="#SVGID_141_"  style="overflow:visible;"/>
	</clipPath>
	<path class="st70" d="M657.8,276.2c3.2,0,6.4-1.3,8.7-3.6c2.3-2.3,3.6-5.4,3.6-8.7c0-3.2-1.3-6.4-3.6-8.7c-2.3-2.3-5.4-3.6-8.7-3.6
		s-6.4,1.3-8.7,3.6c-2.3,2.3-3.6,5.4-3.6,8.7c0,3.2,1.3,6.4,3.6,8.7C651.4,275,654.5,276.2,657.8,276.2z"/>
</g>
<g>
	<defs>
		<rect id="SVGID_143_" y="0" width="1080" height="720"/>
	</defs>
	<clipPath id="SVGID_144_">
		<use xlink:href="#SVGID_143_"  style="overflow:visible;"/>
	</clipPath>
	<path class="st71" d="M609.2,262.1c5.6,0,11-2.2,15-6.2c4-4,6.2-9.4,6.2-15s-2.2-11-6.2-15c-4-4-9.4-6.2-15-6.2
		c-5.6,0-11,2.2-15,6.2c-4,4-6.2,9.4-6.2,15s2.2,11,6.2,15C598.1,259.9,603.5,262.1,609.2,262.1z"/>
</g>
<g>
	<defs>
		<rect id="SVGID_145_" y="0" width="1080" height="720"/>
	</defs>
	<clipPath id="SVGID_146_">
		<use xlink:href="#SVGID_145_"  style="overflow:visible;"/>
	</clipPath>
	<path class="st72" d="M627.3,250.8c5.1,0,10.1-2,13.7-5.7s5.7-8.6,5.7-13.7s-2-10.1-5.7-13.7c-3.6-3.6-8.6-5.7-13.7-5.7
		s-10.1,2-13.7,5.7c-3.6,3.6-5.7,8.6-5.7,13.7s2,10.1,5.7,13.7C617.3,248.8,622.2,250.8,627.3,250.8z"/>
</g>
<g>
	<defs>
		<rect id="SVGID_147_" y="0" width="1080" height="720"/>
	</defs>
	<clipPath id="SVGID_148_">
		<use xlink:href="#SVGID_147_"  style="overflow:visible;"/>
	</clipPath>
	<path class="st73" d="M776.3,265.9c4,0,7.8-1.6,10.6-4.4c2.8-2.8,4.4-6.6,4.4-10.6s-1.6-7.8-4.4-10.6c-2.8-2.8-6.6-4.4-10.6-4.4
		c-4,0-7.8,1.6-10.6,4.4c-2.8,2.8-4.4,6.6-4.4,10.6s1.6,7.8,4.4,10.6C768.5,264.4,772.4,265.9,776.3,265.9z"/>
</g>
<g>
	<defs>
		<rect id="SVGID_149_" y="0" width="1080" height="720"/>
	</defs>
	<clipPath id="SVGID_150_">
		<use xlink:href="#SVGID_149_"  style="overflow:visible;"/>
	</clipPath>
	<path class="st74" d="M557.7,260c4.6,0,9-1.8,12.2-5.1c3.2-3.2,5.1-7.7,5.1-12.2c0-4.6-1.8-9-5.1-12.2c-3.2-3.2-7.7-5.1-12.2-5.1
		s-9,1.8-12.2,5.1s-5.1,7.7-5.1,12.2c0,4.6,1.8,9,5.1,12.2S553.1,260,557.7,260z"/>
</g>
<g>
	<defs>
		<rect id="SVGID_151_" y="0" width="1080" height="720"/>
	</defs>
	<clipPath id="SVGID_152_">
		<use xlink:href="#SVGID_151_"  style="overflow:visible;"/>
	</clipPath>
	<path class="st75" d="M561.9,240c5.1,0,10.1-2,13.7-5.7c3.6-3.6,5.7-8.6,5.7-13.7c0-5.1-2-10.1-5.7-13.7c-3.6-3.6-8.6-5.7-13.7-5.7
		s-10.1,2-13.7,5.7c-3.6,3.6-5.7,8.6-5.7,13.7c0,5.1,2,10.1,5.7,13.7C551.8,237.9,556.8,240,561.9,240z"/>
</g>
<g>
	<defs>
		<rect id="SVGID_153_" y="0" width="1080" height="720"/>
	</defs>
	<clipPath id="SVGID_154_">
		<use xlink:href="#SVGID_153_"  style="overflow:visible;"/>
	</clipPath>
	<path class="st76" d="M744.1,168c4,0,7.8-1.6,10.6-4.4c2.8-2.8,4.4-6.6,4.4-10.6s-1.6-7.8-4.4-10.6c-2.8-2.8-6.6-4.4-10.6-4.4
		c-4,0-7.8,1.6-10.6,4.4c-2.8,2.8-4.4,6.6-4.4,10.6s1.6,7.8,4.4,10.6C736.3,166.4,740.1,168,744.1,168z"/>
</g>
<g>
	<defs>
		<rect id="SVGID_155_" y="0" width="1080" height="720"/>
	</defs>
	<clipPath id="SVGID_156_">
		<use xlink:href="#SVGID_155_"  style="overflow:visible;"/>
	</clipPath>
	<path class="st77" d="M668.6,198.5c2.3,0,4.5-0.9,6.1-2.5c1.6-1.6,2.5-3.8,2.5-6.1c0-2.3-0.9-4.5-2.5-6.1c-1.6-1.6-3.8-2.5-6.1-2.5
		c-2.3,0-4.5,0.9-6.1,2.5c-1.6,1.6-2.5,3.8-2.5,6.1c0,2.3,0.9,4.5,2.5,6.1C664.1,197.5,666.3,198.5,668.6,198.5z"/>
</g>
<g>
	<defs>
		<rect id="SVGID_157_" y="0" width="1080" height="720"/>
	</defs>
	<clipPath id="SVGID_158_">
		<use xlink:href="#SVGID_157_"  style="overflow:visible;"/>
	</clipPath>
	<path class="st78" d="M622.5,289.4c3.2,0,6.4-1.3,8.7-3.6c2.3-2.3,3.6-5.4,3.6-8.7c0-3.2-1.3-6.4-3.6-8.7c-2.3-2.3-5.4-3.6-8.7-3.6
		s-6.4,1.3-8.7,3.6c-2.3,2.3-3.6,5.4-3.6,8.7c0,3.2,1.3,6.4,3.6,8.7C616.1,288.1,619.2,289.4,622.5,289.4z"/>
</g>
<g>
	<defs>
		<rect id="SVGID_159_" y="0" width="1080" height="720"/>
	</defs>
	<clipPath id="SVGID_160_">
		<use xlink:href="#SVGID_159_"  style="overflow:visible;"/>
	</clipPath>
	<path class="st79" d="M685.8,252.3c2.3,0,4.5-0.9,6.1-2.5c1.6-1.6,2.5-3.8,2.5-6.1s-0.9-4.5-2.5-6.1c-1.6-1.6-3.8-2.5-6.1-2.5
		s-4.5,0.9-6.1,2.5c-1.6,1.6-2.5,3.8-2.5,6.1s0.9,4.5,2.5,6.1C681.3,251.4,683.5,252.3,685.8,252.3z"/>
</g>
<g>
	<defs>
		<rect id="SVGID_161_" y="0" width="1080" height="720"/>
	</defs>
	<clipPath id="SVGID_162_">
		<use xlink:href="#SVGID_161_"  style="overflow:visible;"/>
	</clipPath>
	<g class="st80">
		<g transform="translate(960.384294 169.218226)scale(0.12 -0.12)">
			<g>
				<path id="DejaVuSans-50" d="M-1344.7-626.1h34.4v-8.3h-46.3v8.3c3.7,3.9,8.8,9.1,15.3,15.6c6.5,6.5,10.5,10.7,12.2,12.6
					c3.2,3.5,5.4,6.5,6.6,9c1.3,2.5,1.9,4.9,1.9,7.2c0,3.9-1.4,7-4.1,9.5c-2.7,2.4-6.3,3.7-10.6,3.7c-3.1,0-6.4-0.5-9.8-1.6
					c-3.4-1.1-7.1-2.7-11-4.9v10c4,1.6,7.7,2.8,11.1,3.6c3.5,0.8,6.6,1.2,9.5,1.2c7.6,0,13.6-1.9,18.1-5.7c4.5-3.8,6.7-8.8,6.7-15.1
					c0-3-0.6-5.8-1.7-8.5c-1.1-2.7-3.2-5.8-6.1-9.5c-0.8-0.9-3.4-3.7-7.8-8.2C-1330.6-611.7-1336.7-618-1344.7-626.1z"/>
			</g>
		</g>
	</g>
</g>
<g>
	<defs>
		<rect id="SVGID_163_" y="0" width="1080" height="720"/>
	</defs>
	<clipPath id="SVGID_164_">
		<use xlink:href="#SVGID_163_"  style="overflow:visible;"/>
	</clipPath>
	<g class="st81">
		<g transform="translate(987.855065 194.884466)scale(0.12 -0.12)">
			<g>
				<path id="DejaVuSans-49" d="M-1351.5-626.1h16.1v55.6l-17.5-3.5v9l17.4,3.5h9.9v-64.6h16.1v-8.3h-42V-626.1z"/>
			</g>
			<g>
				<path d="M-1281.1-626.1h34.4v-8.3h-46.3v8.3c3.7,3.9,8.8,9.1,15.3,15.6c6.5,6.5,10.5,10.7,12.2,12.6c3.2,3.5,5.4,6.5,6.6,9
					c1.3,2.5,1.9,4.9,1.9,7.2c0,3.9-1.4,7-4.1,9.5c-2.7,2.4-6.3,3.7-10.6,3.7c-3.1,0-6.4-0.5-9.8-1.6c-3.4-1.1-7.1-2.7-11-4.9v10
					c4,1.6,7.7,2.8,11.1,3.6c3.5,0.8,6.6,1.2,9.5,1.2c7.6,0,13.6-1.9,18.1-5.7c4.5-3.8,6.7-8.8,6.7-15.1c0-3-0.6-5.8-1.7-8.5
					c-1.1-2.7-3.2-5.8-6.1-9.5c-0.8-0.9-3.4-3.7-7.8-8.2C-1267-611.7-1273.1-618-1281.1-626.1z"/>
			</g>
		</g>
	</g>
</g>
<g>
	<defs>
		<rect id="SVGID_165_" y="0" width="1080" height="720"/>
	</defs>
	<clipPath id="SVGID_166_">
		<use xlink:href="#SVGID_165_"  style="overflow:visible;"/>
	</clipPath>
	<g class="st82">
		<g transform="translate(917.315247 117.210538)scale(0.12 -0.12)">
			<g>
				<path d="M-1351.5-626.1h16.1v55.6l-17.5-3.5v9l17.4,3.5h9.9v-64.6h16.1v-8.3h-42V-626.1z"/>
			</g>
			<g>
				<path id="DejaVuSans-55" d="M-1292-561.5h46.9v-4.2l-26.5-68.7h-10.3l24.9,64.6h-35V-561.5z"/>
			</g>
		</g>
	</g>
</g>
<g>
	<defs>
		<rect id="SVGID_167_" y="0" width="1080" height="720"/>
	</defs>
	<clipPath id="SVGID_168_">
		<use xlink:href="#SVGID_167_"  style="overflow:visible;"/>
	</clipPath>
	<g class="st83">
		<g transform="translate(951.046556 212.212493)scale(0.12 -0.12)">
			<g>
				<path d="M-1351.5-626.1h16.1v55.6l-17.5-3.5v9l17.4,3.5h9.9v-64.6h16.1v-8.3h-42V-626.1z"/>
			</g>
			<g>
				<path id="DejaVuSans-48" d="M-1268.5-568c-5.1,0-8.9-2.5-11.5-7.5c-2.6-5-3.8-12.5-3.8-22.5c0-10,1.3-17.5,3.8-22.5
					c2.6-5,6.4-7.5,11.5-7.5c5.1,0,8.9,2.5,11.5,7.5c2.6,5,3.8,12.5,3.8,22.5c0,10-1.3,17.5-3.8,22.5
					C-1259.5-570.5-1263.4-568-1268.5-568z M-1268.5-560.1c8.2,0,14.4-3.2,18.7-9.7c4.3-6.5,6.5-15.8,6.5-28.1
					c0-12.3-2.2-21.6-6.5-28.1c-4.3-6.5-10.6-9.7-18.7-9.7c-8.2,0-14.4,3.2-18.7,9.7c-4.3,6.5-6.5,15.8-6.5,28.1
					c0,12.3,2.2,21.7,6.5,28.1C-1282.9-563.4-1276.6-560.1-1268.5-560.1z"/>
			</g>
		</g>
	</g>
</g>
<g>
	<defs>
		<rect id="SVGID_169_" y="0" width="1080" height="720"/>
	</defs>
	<clipPath id="SVGID_170_">
		<use xlink:href="#SVGID_169_"  style="overflow:visible;"/>
	</clipPath>
	<g class="st84">
		<g transform="translate(50.484642 71.571313)scale(0.12 -0.12)">
			<g>
				<path d="M3533.1-391.7h16.1v55.6l-17.5-3.5v9l17.4,3.5h9.9v-64.6h16.1v-8.3h-42V-391.7z"/>
			</g>
		</g>
	</g>
</g>
<g>
	<defs>
		<rect id="SVGID_171_" y="0" width="1080" height="720"/>
	</defs>
	<clipPath id="SVGID_172_">
		<use xlink:href="#SVGID_171_"  style="overflow:visible;"/>
	</clipPath>
	<g class="st85">
		<g transform="translate(93.047605 86.70143)scale(0.12 -0.12)">
			<g>
				<path d="M3539.9-391.7h34.4v-8.3H3528v8.3c3.7,3.9,8.8,9.1,15.3,15.6c6.5,6.5,10.5,10.7,12.2,12.6c3.2,3.5,5.4,6.5,6.6,9
					c1.3,2.5,1.9,4.9,1.9,7.2c0,3.9-1.4,7-4.1,9.5c-2.7,2.4-6.3,3.7-10.6,3.7c-3.1,0-6.4-0.5-9.8-1.6c-3.4-1.1-7.1-2.7-11-4.9v10
					c4,1.6,7.7,2.8,11.1,3.6c3.5,0.8,6.6,1.2,9.5,1.2c7.6,0,13.6-1.9,18.1-5.7c4.5-3.8,6.7-8.8,6.7-15.1c0-3-0.6-5.8-1.7-8.5
					c-1.1-2.7-3.2-5.8-6.1-9.5c-0.8-0.9-3.4-3.7-7.8-8.2C3554-377.3,3547.8-383.6,3539.9-391.7z"/>
			</g>
			<g>
				<path d="M3592.5-327.1h46.9v-4.2l-26.5-68.7h-10.3l24.9,64.6h-35V-327.1z"/>
			</g>
		</g>
	</g>
</g>
<g>
	<defs>
		<rect id="SVGID_173_" y="0" width="1080" height="720"/>
	</defs>
	<clipPath id="SVGID_174_">
		<use xlink:href="#SVGID_173_"  style="overflow:visible;"/>
	</clipPath>
	<g class="st86">
		<g transform="translate(964.278695 629.485597)scale(0.12 -0.12)">
			<g>
				<path id="DejaVuSans-51" d="M-1952.4,2386.4c4.7-1,8.4-3.1,11-6.3c2.7-3.2,4-7.1,4-11.8c0-7.2-2.5-12.8-7.4-16.7
					c-4.9-3.9-12-5.9-21.1-5.9c-3.1,0-6.2,0.3-9.4,0.9c-3.2,0.6-6.6,1.5-10,2.7v9.5c2.7-1.6,5.7-2.8,9-3.6c3.3-0.8,6.7-1.2,10.2-1.2
					c6.2,0,10.9,1.2,14.1,3.7c3.2,2.4,4.9,6,4.9,10.6c0,4.3-1.5,7.7-4.5,10.1c-3,2.4-7.2,3.6-12.6,3.6h-8.5v8.1h8.9
					c4.8,0,8.6,1,11.1,2.9c2.6,1.9,3.9,4.7,3.9,8.4c0,3.7-1.3,6.6-4,8.6c-2.6,2-6.4,3-11.4,3c-2.7,0-5.6-0.3-8.7-0.9
					c-3.1-0.6-6.5-1.5-10.2-2.7v8.8c3.8,1,7.3,1.8,10.5,2.3c3.3,0.5,6.4,0.8,9.2,0.8c7.5,0,13.4-1.7,17.8-5.1
					c4.4-3.4,6.5-8,6.5-13.8c0-4-1.2-7.5-3.5-10.2S-1948.1,2387.5-1952.4,2386.4z"/>
			</g>
		</g>
	</g>
</g>
<g>
	<defs>
		<rect id="SVGID_175_" y="0" width="1080" height="720"/>
	</defs>
	<clipPath id="SVGID_176_">
		<use xlink:href="#SVGID_175_"  style="overflow:visible;"/>
	</clipPath>
	<g class="st87">
		<g transform="translate(943.400203 668.355289)scale(0.12 -0.12)">
			<g>
				<path d="M-1973.8,2355.4h34.4v-8.3h-46.3v8.3c3.7,3.9,8.8,9.1,15.3,15.6c6.5,6.5,10.5,10.7,12.2,12.6c3.2,3.5,5.4,6.5,6.6,9
					c1.3,2.5,1.9,4.9,1.9,7.2c0,3.9-1.4,7-4.1,9.5c-2.7,2.4-6.3,3.7-10.6,3.7c-3.1,0-6.4-0.5-9.8-1.6c-3.4-1.1-7.1-2.7-11-4.9v10
					c4,1.6,7.7,2.8,11.1,3.6c3.5,0.8,6.6,1.2,9.5,1.2c7.6,0,13.6-1.9,18.1-5.7c4.5-3.8,6.7-8.8,6.7-15.1c0-3-0.6-5.8-1.7-8.5
					c-1.1-2.7-3.2-5.8-6.1-9.5c-0.8-0.9-3.4-3.7-7.8-8.2C-1959.7,2369.8-1965.8,2363.5-1973.8,2355.4z"/>
			</g>
			<g>
				<path id="DejaVuSans-52" d="M-1891.5,2411.4l-24.9-38.9h24.9V2411.4z M-1894.1,2420h12.4v-47.5h10.4v-8.2h-10.4v-17.2h-9.8v17.2
					h-32.9v9.5L-1894.1,2420z"/>
			</g>
		</g>
	</g>
</g>
<g>
	<defs>
		<rect id="SVGID_177_" y="0" width="1080" height="720"/>
	</defs>
	<clipPath id="SVGID_178_">
		<use xlink:href="#SVGID_177_"  style="overflow:visible;"/>
	</clipPath>
	<g class="st88">
		<g transform="translate(912.408541 623.191565)scale(0.12 -0.12)">
			<g>
				<path d="M-1980.5,2355.4h16.1v55.6l-17.5-3.5v9l17.4,3.5h9.9v-64.6h16.1v-8.3h-42V2355.4z"/>
			</g>
			<g>
				<path id="DejaVuSans-53" d="M-1918.5,2420h38.7v-8.3h-29.7v-17.9c1.4,0.5,2.9,0.9,4.3,1.1c1.4,0.2,2.9,0.4,4.3,0.4
					c8.1,0,14.6-2.2,19.3-6.7c4.8-4.5,7.1-10.5,7.1-18.1c0-7.8-2.4-13.9-7.3-18.3c-4.9-4.3-11.8-6.5-20.7-6.5
					c-3.1,0-6.2,0.3-9.4,0.8c-3.2,0.5-6.4,1.3-9.8,2.3v9.9c2.9-1.6,6-2.8,9.1-3.6s6.4-1.2,9.9-1.2c5.6,0,10.1,1.5,13.4,4.4
					c3.3,3,4.9,7,4.9,12.1c0,5.1-1.6,9.1-4.9,12c-3.3,3-7.7,4.5-13.4,4.5c-2.6,0-5.3-0.3-7.9-0.9c-2.6-0.6-5.3-1.5-8-2.7V2420z"/>
			</g>
		</g>
	</g>
</g>
<g>
	<defs>
		<rect id="SVGID_179_" y="0" width="1080" height="720"/>
	</defs>
	<clipPath id="SVGID_180_">
		<use xlink:href="#SVGID_179_"  style="overflow:visible;"/>
	</clipPath>
	<g class="st89">
		<g transform="translate(916.095891 650.888065)scale(0.12 -0.12)">
			<g>
				<path d="M-1973.8,2355.4h34.4v-8.3h-46.3v8.3c3.7,3.9,8.8,9.1,15.3,15.6c6.5,6.5,10.5,10.7,12.2,12.6c3.2,3.5,5.4,6.5,6.6,9
					c1.3,2.5,1.9,4.9,1.9,7.2c0,3.9-1.4,7-4.1,9.5c-2.7,2.4-6.3,3.7-10.6,3.7c-3.1,0-6.4-0.5-9.8-1.6c-3.4-1.1-7.1-2.7-11-4.9v10
					c4,1.6,7.7,2.8,11.1,3.6c3.5,0.8,6.6,1.2,9.5,1.2c7.6,0,13.6-1.9,18.1-5.7c4.5-3.8,6.7-8.8,6.7-15.1c0-3-0.6-5.8-1.7-8.5
					c-1.1-2.7-3.2-5.8-6.1-9.5c-0.8-0.9-3.4-3.7-7.8-8.2C-1959.7,2369.8-1965.8,2363.5-1973.8,2355.4z"/>
			</g>
			<g>
				<path id="DejaVuSans-57" d="M-1918.3,2348.6v9c2.5-1.2,5-2.1,7.5-2.7c2.5-0.6,5-0.9,7.5-0.9c6.5,0,11.5,2.2,14.9,6.6
					c3.4,4.4,5.4,11,5.9,20c-1.9-2.8-4.3-5-7.2-6.5c-2.9-1.5-6.1-2.2-9.6-2.2c-7.3,0-13.1,2.2-17.3,6.6c-4.2,4.4-6.4,10.5-6.4,18.1
					c0,7.5,2.2,13.5,6.6,18c4.4,4.5,10.3,6.8,17.7,6.8c8.4,0,14.9-3.2,19.3-9.7c4.4-6.5,6.7-15.8,6.7-28.1c0-11.5-2.7-20.7-8.2-27.5
					c-5.4-6.9-12.8-10.3-22-10.3c-2.5,0-5,0.2-7.5,0.7C-1913,2346.9-1915.6,2347.7-1918.3,2348.6z M-1898.7,2379.6
					c4.4,0,7.9,1.5,10.5,4.5c2.6,3,3.9,7.2,3.9,12.5c0,5.2-1.3,9.4-3.9,12.4c-2.6,3-6.1,4.6-10.5,4.6s-7.9-1.5-10.5-4.6
					c-2.6-3-3.9-7.2-3.9-12.4c0-5.3,1.3-9.4,3.9-12.5C-1906.6,2381.1-1903.1,2379.6-1898.7,2379.6z"/>
			</g>
		</g>
	</g>
</g>
<g>
	<defs>
		<rect id="SVGID_181_" y="0" width="1080" height="720"/>
	</defs>
	<clipPath id="SVGID_182_">
		<use xlink:href="#SVGID_181_"  style="overflow:visible;"/>
	</clipPath>
	<g class="st90">
		<g transform="translate(1018.062858 659.800113)scale(0.12 -0.12)">
			<g>
				<path d="M-1952.4,2386.4c4.7-1,8.4-3.1,11-6.3c2.7-3.2,4-7.1,4-11.8c0-7.2-2.5-12.8-7.4-16.7c-4.9-3.9-12-5.9-21.1-5.9
					c-3.1,0-6.2,0.3-9.4,0.9c-3.2,0.6-6.6,1.5-10,2.7v9.5c2.7-1.6,5.7-2.8,9-3.6c3.3-0.8,6.7-1.2,10.2-1.2c6.2,0,10.9,1.2,14.1,3.7
					s4.9,6,4.9,10.6c0,4.3-1.5,7.7-4.5,10.1c-3,2.4-7.2,3.6-12.6,3.6h-8.5v8.1h8.9c4.8,0,8.6,1,11.1,2.9s3.9,4.7,3.9,8.4
					c0,3.7-1.3,6.6-4,8.6c-2.6,2-6.4,3-11.4,3c-2.7,0-5.6-0.3-8.7-0.9c-3.1-0.6-6.5-1.5-10.2-2.7v8.8c3.8,1,7.3,1.8,10.5,2.3
					c3.3,0.5,6.4,0.8,9.2,0.8c7.5,0,13.4-1.7,17.8-5.1c4.4-3.4,6.5-8,6.5-13.8c0-4-1.2-7.5-3.5-10.2S-1948.1,2387.5-1952.4,2386.4z"
					/>
			</g>
			<g>
				<path d="M-1891.5,2411.4l-24.9-38.9h24.9V2411.4z M-1894.1,2420h12.4v-47.5h10.4v-8.2h-10.4v-17.2h-9.8v17.2h-32.9v9.5
					L-1894.1,2420z"/>
			</g>
		</g>
	</g>
</g>
<g>
	<defs>
		<rect id="SVGID_183_" y="0" width="1080" height="720"/>
	</defs>
	<clipPath id="SVGID_184_">
		<use xlink:href="#SVGID_183_"  style="overflow:visible;"/>
	</clipPath>
	<g class="st91">
		<g transform="translate(965.264774 580.239374)scale(0.12 -0.12)">
			<g>
				<path d="M-1980.5,2355.4h16.1v55.6l-17.5-3.5v9l17.4,3.5h9.9v-64.6h16.1v-8.3h-42V2355.4z"/>
			</g>
			<g>
				<path d="M-1916.9,2355.4h16.1v55.6l-17.5-3.5v9l17.4,3.5h9.9v-64.6h16.1v-8.3h-42V2355.4z"/>
			</g>
		</g>
	</g>
</g>
<g>
	<defs>
		<rect id="SVGID_185_" y="0" width="1080" height="720"/>
	</defs>
	<clipPath id="SVGID_186_">
		<use xlink:href="#SVGID_185_"  style="overflow:visible;"/>
	</clipPath>
	<g class="st92">
		<g transform="translate(399.936675 651.695465)scale(0.12 -0.12)">
			<g>
				<path d="M330.3,3044.9l-24.9-38.9h24.9V3044.9z M327.7,3053.5h12.4V3006h10.4v-8.2h-10.4v-17.2h-9.8v17.2h-32.9v9.5
					L327.7,3053.5z"/>
			</g>
		</g>
	</g>
</g>
<g>
	<defs>
		<rect id="SVGID_187_" y="0" width="1080" height="720"/>
	</defs>
	<clipPath id="SVGID_188_">
		<use xlink:href="#SVGID_187_"  style="overflow:visible;"/>
	</clipPath>
	<g class="st93">
		<g transform="translate(403.602127 611.641685)scale(0.12 -0.12)">
			<g>
				<path d="M311.7,2988.9h34.4v-8.3h-46.3v8.3c3.7,3.9,8.8,9.1,15.3,15.6c6.5,6.5,10.5,10.7,12.2,12.6c3.2,3.5,5.4,6.5,6.6,9
					c1.3,2.5,1.9,4.9,1.9,7.2c0,3.9-1.4,7-4.1,9.5c-2.7,2.4-6.3,3.7-10.6,3.7c-3.1,0-6.4-0.5-9.8-1.6c-3.4-1.1-7.1-2.7-11-4.9v10
					c4,1.6,7.7,2.8,11.1,3.6c3.5,0.8,6.6,1.2,9.5,1.2c7.6,0,13.6-1.9,18.1-5.7c4.5-3.8,6.7-8.8,6.7-15.1c0-3-0.6-5.8-1.7-8.5
					c-1.1-2.7-3.2-5.8-6.1-9.5c-0.8-0.9-3.4-3.7-7.8-8.2C325.8,3003.3,319.6,2997,311.7,2988.9z"/>
			</g>
			<g>
				<path d="M368.5,2988.9h16.1v55.6l-17.5-3.5v9l17.4,3.5h9.9v-64.6h16.1v-8.3h-42V2988.9z"/>
			</g>
		</g>
	</g>
</g>
<g>
	<defs>
		<rect id="SVGID_189_" y="0" width="1080" height="720"/>
	</defs>
	<clipPath id="SVGID_190_">
		<use xlink:href="#SVGID_189_"  style="overflow:visible;"/>
	</clipPath>
	<g class="st94">
		<g transform="translate(382.253365 682.237965)scale(0.12 -0.12)">
			<g>
				<path d="M311.7,2988.9h34.4v-8.3h-46.3v8.3c3.7,3.9,8.8,9.1,15.3,15.6c6.5,6.5,10.5,10.7,12.2,12.6c3.2,3.5,5.4,6.5,6.6,9
					c1.3,2.5,1.9,4.9,1.9,7.2c0,3.9-1.4,7-4.1,9.5c-2.7,2.4-6.3,3.7-10.6,3.7c-3.1,0-6.4-0.5-9.8-1.6c-3.4-1.1-7.1-2.7-11-4.9v10
					c4,1.6,7.7,2.8,11.1,3.6c3.5,0.8,6.6,1.2,9.5,1.2c7.6,0,13.6-1.9,18.1-5.7c4.5-3.8,6.7-8.8,6.7-15.1c0-3-0.6-5.8-1.7-8.5
					c-1.1-2.7-3.2-5.8-6.1-9.5c-0.8-0.9-3.4-3.7-7.8-8.2C325.8,3003.3,319.6,2997,311.7,2988.9z"/>
			</g>
			<g>
				<path d="M396.7,3019.9c4.7-1,8.4-3.1,11-6.3c2.7-3.2,4-7.1,4-11.8c0-7.2-2.5-12.8-7.4-16.7c-4.9-3.9-12-5.9-21.1-5.9
					c-3.1,0-6.2,0.3-9.4,0.9c-3.2,0.6-6.6,1.5-10,2.7v9.5c2.7-1.6,5.7-2.8,9-3.6c3.3-0.8,6.7-1.2,10.2-1.2c6.2,0,10.9,1.2,14.1,3.7
					c3.2,2.4,4.9,6,4.9,10.6c0,4.3-1.5,7.7-4.5,10.1c-3,2.4-7.2,3.6-12.6,3.6h-8.5v8.1h8.9c4.8,0,8.6,1,11.1,2.9
					c2.6,1.9,3.9,4.7,3.9,8.4c0,3.7-1.3,6.6-4,8.6c-2.6,2-6.4,3-11.4,3c-2.7,0-5.6-0.3-8.7-0.9c-3.1-0.6-6.5-1.5-10.2-2.7v8.8
					c3.8,1,7.3,1.8,10.5,2.3c3.3,0.5,6.4,0.8,9.2,0.8c7.5,0,13.4-1.7,17.8-5.1c4.4-3.4,6.5-8,6.5-13.8c0-4-1.2-7.5-3.5-10.2
					S401,3021,396.7,3019.9z"/>
			</g>
		</g>
	</g>
</g>
<g>
	<defs>
		<rect id="SVGID_191_" y="0" width="1080" height="720"/>
	</defs>
	<clipPath id="SVGID_192_">
		<use xlink:href="#SVGID_191_"  style="overflow:visible;"/>
	</clipPath>
	<g class="st95">
		<g transform="translate(424.009466 681.418835)scale(0.12 -0.12)">
			<g>
				<path d="M303.5,2982.1v9c2.5-1.2,5-2.1,7.5-2.7c2.5-0.6,5-0.9,7.5-0.9c6.5,0,11.5,2.2,14.9,6.6c3.4,4.4,5.4,11,5.9,20
					c-1.9-2.8-4.3-5-7.2-6.5c-2.9-1.5-6.1-2.2-9.6-2.2c-7.3,0-13.1,2.2-17.3,6.6c-4.2,4.4-6.4,10.5-6.4,18.1c0,7.5,2.2,13.5,6.6,18
					c4.4,4.5,10.3,6.8,17.7,6.8c8.4,0,14.9-3.2,19.3-9.7c4.4-6.5,6.7-15.8,6.7-28.1c0-11.5-2.7-20.7-8.2-27.5
					c-5.4-6.9-12.8-10.3-22-10.3c-2.5,0-5,0.2-7.5,0.7C308.9,2980.4,306.2,2981.1,303.5,2982.1z M323.1,3013c4.4,0,7.9,1.5,10.5,4.5
					c2.6,3,3.9,7.2,3.9,12.5c0,5.2-1.3,9.4-3.9,12.4c-2.6,3-6.1,4.6-10.5,4.6c-4.4,0-7.9-1.5-10.5-4.6c-2.6-3-3.9-7.2-3.9-12.4
					c0-5.3,1.3-9.4,3.9-12.5C315.2,3014.5,318.7,3013,323.1,3013z"/>
			</g>
		</g>
	</g>
</g>
<g>
	<defs>
		<rect id="SVGID_193_" y="0" width="1080" height="720"/>
	</defs>
	<clipPath id="SVGID_194_">
		<use xlink:href="#SVGID_193_"  style="overflow:visible;"/>
	</clipPath>
	<g class="st96">
		<g transform="translate(872.254337 76.056496)scale(0.12 -0.12)">
			<g>
				<path d="M-1353.1-561.5h38.7v-8.3h-29.7v-17.9c1.4,0.5,2.9,0.9,4.3,1.1c1.4,0.2,2.9,0.4,4.3,0.4c8.1,0,14.6-2.2,19.3-6.7
					c4.8-4.5,7.1-10.5,7.1-18.1c0-7.8-2.4-13.9-7.3-18.3c-4.9-4.3-11.8-6.5-20.7-6.5c-3.1,0-6.2,0.3-9.4,0.8
					c-3.2,0.5-6.4,1.3-9.8,2.3v9.9c2.9-1.6,6-2.8,9.1-3.6s6.4-1.2,9.9-1.2c5.6,0,10.1,1.5,13.4,4.4c3.3,3,4.9,7,4.9,12.1
					c0,5.1-1.6,9.1-4.9,12c-3.3,3-7.7,4.5-13.4,4.5c-2.6,0-5.3-0.3-7.9-0.9c-2.6-0.6-5.3-1.5-8-2.7V-561.5z"/>
			</g>
		</g>
	</g>
</g>
<g>
	<defs>
		<rect id="SVGID_195_" y="0" width="1080" height="720"/>
	</defs>
	<clipPath id="SVGID_196_">
		<use xlink:href="#SVGID_195_"  style="overflow:visible;"/>
	</clipPath>
	<g class="st97">
		<g transform="translate(894.321662 47.841567)scale(0.12 -0.12)">
			<g>
				<path d="M-1351.5-626.1h16.1v55.6l-17.5-3.5v9l17.4,3.5h9.9v-64.6h16.1v-8.3h-42V-626.1z"/>
			</g>
			<g>
				<path d="M-1289.3-632.8v9c2.5-1.2,5-2.1,7.5-2.7c2.5-0.6,5-0.9,7.5-0.9c6.5,0,11.5,2.2,14.9,6.6c3.4,4.4,5.4,11,5.9,20
					c-1.9-2.8-4.3-5-7.2-6.5c-2.9-1.5-6.1-2.2-9.6-2.2c-7.3,0-13.1,2.2-17.3,6.6c-4.2,4.4-6.4,10.5-6.4,18.1c0,7.5,2.2,13.5,6.6,18
					c4.4,4.5,10.3,6.8,17.7,6.8c8.4,0,14.9-3.2,19.3-9.7c4.4-6.5,6.7-15.8,6.7-28.1c0-11.5-2.7-20.7-8.2-27.5
					c-5.4-6.9-12.8-10.3-22-10.3c-2.5,0-5,0.2-7.5,0.7C-1283.9-634.6-1286.5-633.8-1289.3-632.8z M-1269.6-601.9
					c4.4,0,7.9,1.5,10.5,4.5c2.6,3,3.9,7.2,3.9,12.5c0,5.2-1.3,9.4-3.9,12.4c-2.6,3-6.1,4.6-10.5,4.6s-7.9-1.5-10.5-4.6
					c-2.6-3-3.9-7.2-3.9-12.4c0-5.3,1.3-9.4,3.9-12.5C-1277.6-600.4-1274.1-601.9-1269.6-601.9z"/>
			</g>
		</g>
	</g>
</g>
<g>
	<defs>
		<rect id="SVGID_197_" y="0" width="1080" height="720"/>
	</defs>
	<clipPath id="SVGID_198_">
		<use xlink:href="#SVGID_197_"  style="overflow:visible;"/>
	</clipPath>
	<g class="st98">
		<g transform="translate(950.612544 67.208672)scale(0.12 -0.12)">
			<g>
				<path id="DejaVuSans-54" d="M-1330.9-594c-4.4,0-7.9-1.5-10.5-4.5c-2.6-3-3.9-7.2-3.9-12.4c0-5.2,1.3-9.4,3.9-12.4
					c2.6-3,6.1-4.6,10.5-4.6s7.9,1.5,10.5,4.6c2.6,3.1,3.9,7.2,3.9,12.4c0,5.3-1.3,9.4-3.9,12.4
					C-1322.9-595.5-1326.4-594-1330.9-594z M-1311.3-563.1v-9c-2.5,1.2-5,2.1-7.5,2.7c-2.5,0.6-5,0.9-7.5,0.9
					c-6.5,0-11.5-2.2-14.9-6.6c-3.4-4.4-5.4-11-5.9-19.9c1.9,2.8,4.3,5,7.2,6.5c2.9,1.5,6.1,2.3,9.6,2.3c7.3,0,13.1-2.2,17.4-6.7
					c4.2-4.4,6.4-10.5,6.4-18.1c0-7.5-2.2-13.5-6.6-18c-4.4-4.5-10.3-6.8-17.7-6.8c-8.4,0-14.9,3.2-19.3,9.7
					c-4.5,6.5-6.7,15.8-6.7,28.1c0,11.5,2.7,20.7,8.2,27.6c5.5,6.9,12.8,10.3,22,10.3c2.5,0,5-0.2,7.5-0.7
					C-1316.6-561.4-1314-562.1-1311.3-563.1z"/>
			</g>
		</g>
	</g>
</g>
<g>
	<defs>
		<rect id="SVGID_199_" y="0" width="1080" height="720"/>
	</defs>
	<clipPath id="SVGID_200_">
		<use xlink:href="#SVGID_199_"  style="overflow:visible;"/>
	</clipPath>
	<g class="st99">
		<g transform="translate(922.364021 69.497427)scale(0.12 -0.12)">
			<g>
				<path d="M-1344.7-626.1h34.4v-8.3h-46.3v8.3c3.7,3.9,8.8,9.1,15.3,15.6c6.5,6.5,10.5,10.7,12.2,12.6c3.2,3.5,5.4,6.5,6.6,9
					c1.3,2.5,1.9,4.9,1.9,7.2c0,3.9-1.4,7-4.1,9.5c-2.7,2.4-6.3,3.7-10.6,3.7c-3.1,0-6.4-0.5-9.8-1.6c-3.4-1.1-7.1-2.7-11-4.9v10
					c4,1.6,7.7,2.8,11.1,3.6c3.5,0.8,6.6,1.2,9.5,1.2c7.6,0,13.6-1.9,18.1-5.7c4.5-3.8,6.7-8.8,6.7-15.1c0-3-0.6-5.8-1.7-8.5
					c-1.1-2.7-3.2-5.8-6.1-9.5c-0.8-0.9-3.4-3.7-7.8-8.2C-1330.6-611.7-1336.7-618-1344.7-626.1z"/>
			</g>
			<g>
				<path d="M-1268.5-568c-5.1,0-8.9-2.5-11.5-7.5c-2.6-5-3.8-12.5-3.8-22.5c0-10,1.3-17.5,3.8-22.5c2.6-5,6.4-7.5,11.5-7.5
					c5.1,0,8.9,2.5,11.5,7.5c2.6,5,3.8,12.5,3.8,22.5c0,10-1.3,17.5-3.8,22.5C-1259.5-570.5-1263.4-568-1268.5-568z M-1268.5-560.1
					c8.2,0,14.4-3.2,18.7-9.7c4.3-6.5,6.5-15.8,6.5-28.1c0-12.3-2.2-21.6-6.5-28.1c-4.3-6.5-10.6-9.7-18.7-9.7
					c-8.2,0-14.4,3.2-18.7,9.7c-4.3,6.5-6.5,15.8-6.5,28.1c0,12.3,2.2,21.7,6.5,28.1C-1282.9-563.4-1276.6-560.1-1268.5-560.1z"/>
			</g>
		</g>
	</g>
</g>
<g>
	<defs>
		<rect id="SVGID_201_" y="0" width="1080" height="720"/>
	</defs>
	<clipPath id="SVGID_202_">
		<use xlink:href="#SVGID_201_"  style="overflow:visible;"/>
	</clipPath>
	<g class="st100">
		<g transform="translate(480.560012 197.214226)scale(0.12 -0.12)">
			<g>
				<path d="M8.2,72.9h46.9v-4.2L28.6,0H18.3l24.9,64.6h-35V72.9z"/>
			</g>
		</g>
	</g>
</g>
<g>
	<defs>
		<rect id="SVGID_203_" y="0" width="1080" height="720"/>
	</defs>
	<clipPath id="SVGID_204_">
		<use xlink:href="#SVGID_203_"  style="overflow:visible;"/>
	</clipPath>
	<g class="st101">
		<g transform="translate(497.726784 237.679247)scale(0.12 -0.12)">
			<g>
				<path d="M12.4,8.3h16.1v55.6L11,60.4v9l17.4,3.5h9.9V8.3h16.1V0h-42V8.3z"/>
			</g>
			<g>
				<path d="M101.4,64.3L76.5,25.4h24.9V64.3z M98.8,72.9h12.4V25.4h10.4v-8.2h-10.4V0h-9.8v17.2H68.5v9.5L98.8,72.9z"/>
			</g>
		</g>
	</g>
</g>
<g>
	<defs>
		<rect id="SVGID_205_" y="0" width="1080" height="720"/>
	</defs>
	<clipPath id="SVGID_206_">
		<use xlink:href="#SVGID_205_"  style="overflow:visible;"/>
	</clipPath>
	<g class="st102">
		<g transform="translate(501.673725 216.151415)scale(0.12 -0.12)">
			<g>
				<path d="M40.6,39.3c4.7-1,8.4-3.1,11-6.3c2.7-3.2,4-7.1,4-11.8c0-7.2-2.5-12.8-7.4-16.7c-4.9-3.9-12-5.9-21.1-5.9
					c-3.1,0-6.2,0.3-9.4,0.9S11.1,1,7.6,2.2v9.5c2.7-1.6,5.7-2.8,9-3.6c3.3-0.8,6.7-1.2,10.2-1.2c6.2,0,10.9,1.2,14.1,3.7
					s4.9,6,4.9,10.6c0,4.3-1.5,7.7-4.5,10.1c-3,2.4-7.2,3.6-12.6,3.6h-8.5V43h8.9c4.8,0,8.6,1,11.1,2.9c2.6,1.9,3.9,4.7,3.9,8.4
					c0,3.7-1.3,6.6-4,8.6c-2.6,2-6.4,3-11.4,3c-2.7,0-5.6-0.3-8.7-0.9c-3.1-0.6-6.5-1.5-10.2-2.7v8.8c3.8,1,7.3,1.8,10.5,2.3
					s6.4,0.8,9.2,0.8c7.5,0,13.4-1.7,17.8-5.1c4.4-3.4,6.5-8,6.5-13.8c0-4-1.2-7.5-3.5-10.2C48.1,42.3,44.8,40.4,40.6,39.3z"/>
			</g>
			<g>
				<path d="M95.4,66.4c-5.1,0-8.9-2.5-11.5-7.5c-2.6-5-3.8-12.5-3.8-22.5c0-10,1.3-17.5,3.8-22.5c2.6-5,6.4-7.5,11.5-7.5
					c5.1,0,8.9,2.5,11.5,7.5c2.6,5,3.8,12.5,3.8,22.5c0,10-1.3,17.5-3.8,22.5C104.4,63.9,100.5,66.4,95.4,66.4z M95.4,74.2
					c8.2,0,14.4-3.2,18.7-9.7c4.3-6.5,6.5-15.8,6.5-28.1c0-12.3-2.2-21.6-6.5-28.1c-4.3-6.5-10.6-9.7-18.7-9.7
					c-8.2,0-14.4,3.2-18.7,9.7c-4.3,6.5-6.5,15.8-6.5,28.1c0,12.3,2.2,21.7,6.5,28.1C81,71,87.2,74.2,95.4,74.2z"/>
			</g>
		</g>
	</g>
</g>
<g>
	<defs>
		<rect id="SVGID_207_" y="0" width="1080" height="720"/>
	</defs>
	<clipPath id="SVGID_208_">
		<use xlink:href="#SVGID_207_"  style="overflow:visible;"/>
	</clipPath>
	<g class="st103">
		<g transform="translate(542.132215 199.2963)scale(0.12 -0.12)">
			<g>
				<path d="M12.4,8.3h16.1v55.6L11,60.4v9l17.4,3.5h9.9V8.3h16.1V0h-42V8.3z"/>
			</g>
			<g>
				<path id="DejaVuSans-56" d="M95.4,34.6c-4.7,0-8.4-1.3-11.1-3.8c-2.7-2.5-4-6-4-10.3c0-4.4,1.3-7.8,4-10.4
					c2.7-2.5,6.4-3.8,11.1-3.8s8.4,1.3,11.1,3.8c2.7,2.5,4.1,6,4.1,10.3c0,4.4-1.3,7.8-4,10.3C103.8,33.4,100.1,34.6,95.4,34.6z
					 M85.5,38.8c-4.2,1-7.5,3-9.9,5.9c-2.4,2.9-3.5,6.4-3.5,10.6c0,5.8,2.1,10.4,6.2,13.8c4.2,3.4,9.8,5.1,17.1,5.1
					c7.3,0,13-1.7,17.1-5.1c4.1-3.4,6.2-8,6.2-13.8c0-4.2-1.2-7.7-3.5-10.6c-2.4-2.9-5.6-4.9-9.8-5.9c4.8-1.1,8.4-3.3,11.1-6.5
					c2.7-3.2,4-7.2,4-11.8c0-7.1-2.2-12.5-6.5-16.3c-4.3-3.8-10.5-5.7-18.5-5.7c-8,0-14.2,1.9-18.5,5.7c-4.3,3.8-6.5,9.2-6.5,16.3
					c0,4.6,1.3,8.6,4,11.8C77.1,35.5,80.8,37.7,85.5,38.8z M81.9,54.4c0-3.8,1.2-6.7,3.5-8.8c2.4-2.1,5.7-3.2,9.9-3.2
					c4.2,0,7.6,1.1,9.9,3.2c2.4,2.1,3.6,5.1,3.6,8.8c0,3.8-1.2,6.7-3.6,8.8c-2.4,2.1-5.7,3.2-9.9,3.2c-4.3,0-7.6-1.1-9.9-3.2
					C83.1,61.1,81.9,58.2,81.9,54.4z"/>
			</g>
		</g>
	</g>
</g>
<g>
	<defs>
		<rect id="SVGID_209_" y="0" width="1080" height="720"/>
	</defs>
	<clipPath id="SVGID_210_">
		<use xlink:href="#SVGID_209_"  style="overflow:visible;"/>
	</clipPath>
	<g class="st104">
		<g transform="translate(653.968985 267.312643)scale(0.12 -0.12)">
			<g>
				<path d="M31.8,34.6c-4.7,0-8.4-1.3-11.1-3.8c-2.7-2.5-4-6-4-10.3c0-4.4,1.3-7.8,4-10.4c2.7-2.5,6.4-3.8,11.1-3.8
					s8.4,1.3,11.1,3.8c2.7,2.5,4.1,6,4.1,10.3c0,4.4-1.3,7.8-4,10.3C40.2,33.4,36.5,34.6,31.8,34.6z M21.9,38.8
					c-4.2,1-7.5,3-9.9,5.9c-2.4,2.9-3.5,6.4-3.5,10.6c0,5.8,2.1,10.4,6.2,13.8c4.2,3.4,9.8,5.1,17.1,5.1c7.3,0,13-1.7,17.1-5.1
					s6.2-8,6.2-13.8c0-4.2-1.2-7.7-3.5-10.6c-2.4-2.9-5.6-4.9-9.8-5.9c4.8-1.1,8.4-3.3,11.1-6.5c2.7-3.2,4-7.2,4-11.8
					c0-7.1-2.2-12.5-6.5-16.3C46,0.5,39.8-1.4,31.8-1.4c-8,0-14.2,1.9-18.5,5.7C8.9,8,6.8,13.4,6.8,20.5c0,4.6,1.3,8.6,4,11.8
					C13.5,35.5,17.2,37.7,21.9,38.8z M18.3,54.4c0-3.8,1.2-6.7,3.5-8.8c2.4-2.1,5.7-3.2,9.9-3.2c4.2,0,7.6,1.1,9.9,3.2
					c2.4,2.1,3.6,5.1,3.6,8.8c0,3.8-1.2,6.7-3.6,8.8c-2.4,2.1-5.7,3.2-9.9,3.2c-4.3,0-7.6-1.1-9.9-3.2
					C19.5,61.1,18.3,58.2,18.3,54.4z"/>
			</g>
		</g>
	</g>
</g>
<g>
	<defs>
		<rect id="SVGID_211_" y="0" width="1080" height="720"/>
	</defs>
	<clipPath id="SVGID_212_">
		<use xlink:href="#SVGID_211_"  style="overflow:visible;"/>
	</clipPath>
	<g class="st105">
		<g transform="translate(601.522868 244.24123)scale(0.12 -0.12)">
			<g>
				<path d="M40.6,39.3c4.7-1,8.4-3.1,11-6.3c2.7-3.2,4-7.1,4-11.8c0-7.2-2.5-12.8-7.4-16.7c-4.9-3.9-12-5.9-21.1-5.9
					c-3.1,0-6.2,0.3-9.4,0.9S11.1,1,7.6,2.2v9.5c2.7-1.6,5.7-2.8,9-3.6c3.3-0.8,6.7-1.2,10.2-1.2c6.2,0,10.9,1.2,14.1,3.7
					s4.9,6,4.9,10.6c0,4.3-1.5,7.7-4.5,10.1c-3,2.4-7.2,3.6-12.6,3.6h-8.5V43h8.9c4.8,0,8.6,1,11.1,2.9s3.9,4.7,3.9,8.4
					c0,3.7-1.3,6.6-4,8.6c-2.6,2-6.4,3-11.4,3c-2.7,0-5.6-0.3-8.7-0.9c-3.1-0.6-6.5-1.5-10.2-2.7v8.8c3.8,1,7.3,1.8,10.5,2.3
					s6.4,0.8,9.2,0.8c7.5,0,13.4-1.7,17.8-5.1c4.4-3.4,6.5-8,6.5-13.8c0-4-1.2-7.5-3.5-10.2S44.8,40.4,40.6,39.3z"/>
			</g>
			<g>
				<path d="M104.2,39.3c4.7-1,8.4-3.1,11-6.3c2.7-3.2,4-7.1,4-11.8c0-7.2-2.5-12.8-7.4-16.7c-4.9-3.9-12-5.9-21.1-5.9
					c-3.1,0-6.2,0.3-9.4,0.9s-6.6,1.5-10,2.7v9.5c2.7-1.6,5.7-2.8,9-3.6c3.3-0.8,6.7-1.2,10.2-1.2c6.2,0,10.9,1.2,14.1,3.7
					c3.2,2.4,4.9,6,4.9,10.6c0,4.3-1.5,7.7-4.5,10.1c-3,2.4-7.2,3.6-12.6,3.6h-8.5V43h8.9c4.8,0,8.6,1,11.1,2.9
					c2.6,1.9,3.9,4.7,3.9,8.4c0,3.7-1.3,6.6-4,8.6c-2.6,2-6.4,3-11.4,3c-2.7,0-5.6-0.3-8.7-0.9c-3.1-0.6-6.5-1.5-10.2-2.7v8.8
					c3.8,1,7.3,1.8,10.5,2.3s6.4,0.8,9.2,0.8c7.5,0,13.4-1.7,17.8-5.1c4.4-3.4,6.5-8,6.5-13.8c0-4-1.2-7.5-3.5-10.2
					S108.5,40.4,104.2,39.3z"/>
			</g>
		</g>
	</g>
</g>
<g>
	<defs>
		<rect id="SVGID_213_" y="0" width="1080" height="720"/>
	</defs>
	<clipPath id="SVGID_214_">
		<use xlink:href="#SVGID_213_"  style="overflow:visible;"/>
	</clipPath>
	<g class="st106">
		<g transform="translate(619.700376 234.745214)scale(0.12 -0.12)">
			<g>
				<path d="M19.2,8.3h34.4V0H7.3v8.3c3.7,3.9,8.8,9.1,15.3,15.6c6.5,6.5,10.5,10.7,12.2,12.6c3.2,3.5,5.4,6.5,6.6,9
					c1.3,2.5,1.9,4.9,1.9,7.2c0,3.9-1.4,7-4.1,9.5c-2.7,2.4-6.3,3.7-10.6,3.7c-3.1,0-6.4-0.5-9.8-1.6c-3.4-1.1-7.1-2.7-11-4.9v10
					c4,1.6,7.7,2.8,11.1,3.6c3.5,0.8,6.6,1.2,9.5,1.2c7.6,0,13.6-1.9,18.1-5.7c4.5-3.8,6.7-8.8,6.7-15.1c0-3-0.6-5.8-1.7-8.5
					c-1.1-2.7-3.2-5.8-6.1-9.5c-0.8-0.9-3.4-3.7-7.8-8.2C33.3,22.7,27.1,16.4,19.2,8.3z"/>
			</g>
			<g>
				<path d="M96.6,40.4c-4.4,0-7.9-1.5-10.5-4.5c-2.6-3-3.9-7.2-3.9-12.4c0-5.2,1.3-9.4,3.9-12.4c2.6-3,6.1-4.6,10.5-4.6
					s7.9,1.5,10.5,4.6c2.6,3.1,3.9,7.2,3.9,12.4c0,5.3-1.3,9.4-3.9,12.4C104.6,38.9,101.1,40.4,96.6,40.4z M116.2,71.3v-9
					c-2.5,1.2-5,2.1-7.5,2.7c-2.5,0.6-5,0.9-7.5,0.9c-6.5,0-11.5-2.2-14.9-6.6c-3.4-4.4-5.4-11-5.9-19.9c1.9,2.8,4.3,5,7.2,6.5
					c2.9,1.5,6.1,2.3,9.6,2.3c7.3,0,13.1-2.2,17.4-6.7c4.2-4.4,6.4-10.5,6.4-18.1c0-7.5-2.2-13.5-6.6-18c-4.4-4.5-10.3-6.8-17.7-6.8
					c-8.4,0-14.9,3.2-19.3,9.7c-4.5,6.5-6.7,15.8-6.7,28.1c0,11.5,2.7,20.7,8.2,27.6c5.5,6.9,12.8,10.3,22,10.3c2.5,0,5-0.2,7.5-0.7
					C110.8,73,113.5,72.3,116.2,71.3z"/>
			</g>
		</g>
	</g>
</g>
<g>
	<defs>
		<rect id="SVGID_215_" y="0" width="1080" height="720"/>
	</defs>
	<clipPath id="SVGID_216_">
		<use xlink:href="#SVGID_215_"  style="overflow:visible;"/>
	</clipPath>
	<g class="st107">
		<g transform="translate(932.361197 178.127551)scale(0.12 -0.12)">
			<g>
				<path d="M-1344.7-626.1h34.4v-8.3h-46.3v8.3c3.7,3.9,8.8,9.1,15.3,15.6c6.5,6.5,10.5,10.7,12.2,12.6c3.2,3.5,5.4,6.5,6.6,9
					c1.3,2.5,1.9,4.9,1.9,7.2c0,3.9-1.4,7-4.1,9.5c-2.7,2.4-6.3,3.7-10.6,3.7c-3.1,0-6.4-0.5-9.8-1.6c-3.4-1.1-7.1-2.7-11-4.9v10
					c4,1.6,7.7,2.8,11.1,3.6c3.5,0.8,6.6,1.2,9.5,1.2c7.6,0,13.6-1.9,18.1-5.7c4.5-3.8,6.7-8.8,6.7-15.1c0-3-0.6-5.8-1.7-8.5
					c-1.1-2.7-3.2-5.8-6.1-9.5c-0.8-0.9-3.4-3.7-7.8-8.2C-1330.6-611.7-1336.7-618-1344.7-626.1z"/>
			</g>
			<g>
				<path d="M-1289.5-561.5h38.7v-8.3h-29.7v-17.9c1.4,0.5,2.9,0.9,4.3,1.1c1.4,0.2,2.9,0.4,4.3,0.4c8.1,0,14.6-2.2,19.3-6.7
					c4.8-4.5,7.1-10.5,7.1-18.1c0-7.8-2.4-13.9-7.3-18.3c-4.9-4.3-11.8-6.5-20.7-6.5c-3.1,0-6.2,0.3-9.4,0.8
					c-3.2,0.5-6.4,1.3-9.8,2.3v9.9c2.9-1.6,6-2.8,9.1-3.6s6.4-1.2,9.9-1.2c5.6,0,10.1,1.5,13.4,4.4c3.3,3,4.9,7,4.9,12.1
					c0,5.1-1.6,9.1-4.9,12c-3.3,3-7.7,4.5-13.4,4.5c-2.6,0-5.3-0.3-7.9-0.9c-2.6-0.6-5.3-1.5-8-2.7V-561.5z"/>
			</g>
		</g>
	</g>
</g>
<g>
	<defs>
		<rect id="SVGID_217_" y="0" width="1080" height="720"/>
	</defs>
	<clipPath id="SVGID_218_">
		<use xlink:href="#SVGID_217_"  style="overflow:visible;"/>
	</clipPath>
	<g class="st108">
		<g transform="translate(550.056965 245.942238)scale(0.12 -0.12)">
			<g>
				<path d="M12.4,8.3h16.1v55.6L11,60.4v9l17.4,3.5h9.9V8.3h16.1V0h-42V8.3z"/>
			</g>
			<g>
				<path d="M104.2,39.3c4.7-1,8.4-3.1,11-6.3c2.7-3.2,4-7.1,4-11.8c0-7.2-2.5-12.8-7.4-16.7c-4.9-3.9-12-5.9-21.1-5.9
					c-3.1,0-6.2,0.3-9.4,0.9C78,0.1,74.7,1,71.2,2.2v9.5c2.7-1.6,5.7-2.8,9-3.6c3.3-0.8,6.7-1.2,10.2-1.2c6.2,0,10.9,1.2,14.1,3.7
					c3.2,2.4,4.9,6,4.9,10.6c0,4.3-1.5,7.7-4.5,10.1c-3,2.4-7.2,3.6-12.6,3.6h-8.5V43h8.9c4.8,0,8.6,1,11.1,2.9
					c2.6,1.9,3.9,4.7,3.9,8.4c0,3.7-1.3,6.6-4,8.6c-2.6,2-6.4,3-11.4,3c-2.7,0-5.6-0.3-8.7-0.9c-3.1-0.6-6.5-1.5-10.2-2.7v8.8
					c3.8,1,7.3,1.8,10.5,2.3c3.3,0.5,6.4,0.8,9.2,0.8c7.5,0,13.4-1.7,17.8-5.1c4.4-3.4,6.5-8,6.5-13.8c0-4-1.2-7.5-3.5-10.2
					S108.5,40.4,104.2,39.3z"/>
			</g>
		</g>
	</g>
</g>
<g>
	<defs>
		<rect id="SVGID_219_" y="0" width="1080" height="720"/>
	</defs>
	<clipPath id="SVGID_220_">
		<use xlink:href="#SVGID_219_"  style="overflow:visible;"/>
	</clipPath>
	<g class="st109">
		<g transform="translate(554.261729 223.902521)scale(0.12 -0.12)">
			<g>
				<path d="M19.2,8.3h34.4V0H7.3v8.3c3.7,3.9,8.8,9.1,15.3,15.6c6.5,6.5,10.5,10.7,12.2,12.6c3.2,3.5,5.4,6.5,6.6,9
					c1.3,2.5,1.9,4.9,1.9,7.2c0,3.9-1.4,7-4.1,9.5c-2.7,2.4-6.3,3.7-10.6,3.7c-3.1,0-6.4-0.5-9.8-1.6c-3.4-1.1-7.1-2.7-11-4.9v10
					c4,1.6,7.7,2.8,11.1,3.6c3.5,0.8,6.6,1.2,9.5,1.2c7.6,0,13.6-1.9,18.1-5.7c4.5-3.8,6.7-8.8,6.7-15.1c0-3-0.6-5.8-1.7-8.5
					c-1.1-2.7-3.2-5.8-6.1-9.5c-0.8-0.9-3.4-3.7-7.8-8.2C33.3,22.7,27.1,16.4,19.2,8.3z"/>
			</g>
			<g>
				<path d="M82.8,8.3h34.4V0H71v8.3c3.7,3.9,8.8,9.1,15.3,15.6c6.5,6.5,10.5,10.7,12.2,12.6c3.2,3.5,5.4,6.5,6.6,9
					c1.3,2.5,1.9,4.9,1.9,7.2c0,3.9-1.4,7-4.1,9.5c-2.7,2.4-6.3,3.7-10.6,3.7c-3.1,0-6.4-0.5-9.8-1.6c-3.4-1.1-7.1-2.7-11-4.9v10
					c4,1.6,7.7,2.8,11.1,3.6c3.5,0.8,6.6,1.2,9.5,1.2c7.6,0,13.6-1.9,18.1-5.7c4.5-3.8,6.7-8.8,6.7-15.1c0-3-0.6-5.8-1.7-8.5
					c-1.1-2.7-3.2-5.8-6.1-9.5c-0.8-0.9-3.4-3.7-7.8-8.2C96.9,22.7,90.8,16.4,82.8,8.3z"/>
			</g>
		</g>
	</g>
</g>
<g>
	<defs>
		<rect id="SVGID_221_" y="0" width="1080" height="720"/>
	</defs>
	<clipPath id="SVGID_222_">
		<use xlink:href="#SVGID_221_"  style="overflow:visible;"/>
	</clipPath>
	<g class="st110">
		<g transform="translate(900.115214 80.146192)scale(0.12 -0.12)">
			<g>
				<path d="M-1323.3-595c4.7-1,8.4-3.1,11-6.3c2.7-3.2,4-7.1,4-11.8c0-7.2-2.5-12.8-7.4-16.7c-4.9-3.9-12-5.9-21.1-5.9
					c-3.1,0-6.2,0.3-9.4,0.9c-3.2,0.6-6.6,1.5-10,2.7v9.5c2.7-1.6,5.7-2.8,9-3.6c3.3-0.8,6.7-1.2,10.2-1.2c6.2,0,10.9,1.2,14.1,3.7
					s4.9,6,4.9,10.6c0,4.3-1.5,7.7-4.5,10.1c-3,2.4-7.2,3.6-12.6,3.6h-8.5v8.1h8.9c4.8,0,8.6,1,11.1,2.9s3.9,4.7,3.9,8.4
					c0,3.7-1.3,6.6-4,8.6c-2.6,2-6.4,3-11.4,3c-2.7,0-5.6-0.3-8.7-0.9c-3.1-0.6-6.5-1.5-10.2-2.7v8.8c3.8,1,7.3,1.8,10.5,2.3
					c3.3,0.5,6.4,0.8,9.2,0.8c7.5,0,13.4-1.7,17.8-5.1c4.4-3.4,6.5-8,6.5-13.8c0-4-1.2-7.5-3.5-10.2S-1319-594-1323.3-595z"/>
			</g>
			<g>
				<path d="M-1287.8-626.1h16.1v55.6l-17.5-3.5v9l17.4,3.5h9.9v-64.6h16.1v-8.3h-42V-626.1z"/>
			</g>
		</g>
	</g>
</g>
<g>
	<defs>
		<rect id="SVGID_223_" y="0" width="1080" height="720"/>
	</defs>
	<clipPath id="SVGID_224_">
		<use xlink:href="#SVGID_223_"  style="overflow:visible;"/>
	</clipPath>
	<g class="st111">
		<g transform="translate(660.929169 193.107034)scale(0.12 -0.12)">
			<g>
				<path d="M12.4,8.3h16.1v55.6L11,60.4v9l17.4,3.5h9.9V8.3h16.1V0h-42V8.3z"/>
			</g>
			<g>
				<path d="M96.6,40.4c-4.4,0-7.9-1.5-10.5-4.5c-2.6-3-3.9-7.2-3.9-12.4c0-5.2,1.3-9.4,3.9-12.4c2.6-3,6.1-4.6,10.5-4.6
					c4.4,0,7.9,1.5,10.5,4.6c2.6,3.1,3.9,7.2,3.9,12.4c0,5.3-1.3,9.4-3.9,12.4C104.6,38.9,101.1,40.4,96.6,40.4z M116.2,71.3v-9
					c-2.5,1.2-5,2.1-7.5,2.7c-2.5,0.6-5,0.9-7.5,0.9c-6.5,0-11.5-2.2-14.9-6.6c-3.4-4.4-5.4-11-5.9-19.9c1.9,2.8,4.3,5,7.2,6.5
					c2.9,1.5,6.1,2.3,9.6,2.3c7.3,0,13.1-2.2,17.4-6.7c4.2-4.4,6.4-10.5,6.4-18.1c0-7.5-2.2-13.5-6.6-18c-4.4-4.5-10.3-6.8-17.7-6.8
					c-8.4,0-14.9,3.2-19.3,9.7c-4.5,6.5-6.7,15.8-6.7,28.1c0,11.5,2.7,20.7,8.2,27.6s12.8,10.3,22,10.3c2.5,0,5-0.2,7.5-0.7
					C110.8,73,113.5,72.3,116.2,71.3z"/>
			</g>
		</g>
	</g>
</g>
<g>
	<defs>
		<rect id="SVGID_225_" y="0" width="1080" height="720"/>
	</defs>
	<clipPath id="SVGID_226_">
		<use xlink:href="#SVGID_225_"  style="overflow:visible;"/>
	</clipPath>
	<g class="st112">
		<g transform="translate(614.855245 280.496817)scale(0.12 -0.12)">
			<g>
				<path d="M19.2,8.3h34.4V0H7.3v8.3c3.7,3.9,8.8,9.1,15.3,15.6c6.5,6.5,10.5,10.7,12.2,12.6c3.2,3.5,5.4,6.5,6.6,9
					c1.3,2.5,1.9,4.9,1.9,7.2c0,3.9-1.4,7-4.1,9.5c-2.7,2.4-6.3,3.7-10.6,3.7c-3.1,0-6.4-0.5-9.8-1.6c-3.4-1.1-7.1-2.7-11-4.9v10
					c4,1.6,7.7,2.8,11.1,3.6c3.5,0.8,6.6,1.2,9.5,1.2c7.6,0,13.6-1.9,18.1-5.7c4.5-3.8,6.7-8.8,6.7-15.1c0-3-0.6-5.8-1.7-8.5
					c-1.1-2.7-3.2-5.8-6.1-9.5c-0.8-0.9-3.4-3.7-7.8-8.2C33.3,22.7,27.1,16.4,19.2,8.3z"/>
			</g>
			<g>
				<path d="M95.4,34.6c-4.7,0-8.4-1.3-11.1-3.8c-2.7-2.5-4-6-4-10.3c0-4.4,1.3-7.8,4-10.4c2.7-2.5,6.4-3.8,11.1-3.8
					s8.4,1.3,11.1,3.8c2.7,2.5,4.1,6,4.1,10.3c0,4.4-1.3,7.8-4,10.3C103.8,33.4,100.1,34.6,95.4,34.6z M85.5,38.8
					c-4.2,1-7.5,3-9.9,5.9c-2.4,2.9-3.5,6.4-3.5,10.6c0,5.8,2.1,10.4,6.2,13.8c4.2,3.4,9.8,5.1,17.1,5.1c7.3,0,13-1.7,17.1-5.1
					c4.1-3.4,6.2-8,6.2-13.8c0-4.2-1.2-7.7-3.5-10.6c-2.4-2.9-5.6-4.9-9.8-5.9c4.8-1.1,8.4-3.3,11.1-6.5c2.7-3.2,4-7.2,4-11.8
					c0-7.1-2.2-12.5-6.5-16.3c-4.3-3.8-10.5-5.7-18.5-5.7c-8,0-14.2,1.9-18.5,5.7c-4.3,3.8-6.5,9.2-6.5,16.3c0,4.6,1.3,8.6,4,11.8
					C77.1,35.5,80.8,37.7,85.5,38.8z M81.9,54.4c0-3.8,1.2-6.7,3.5-8.8c2.4-2.1,5.7-3.2,9.9-3.2c4.2,0,7.6,1.1,9.9,3.2
					c2.4,2.1,3.6,5.1,3.6,8.8c0,3.8-1.2,6.7-3.6,8.8c-2.4,2.1-5.7,3.2-9.9,3.2c-4.3,0-7.6-1.1-9.9-3.2
					C83.1,61.1,81.9,58.2,81.9,54.4z"/>
			</g>
		</g>
	</g>
</g>
<g>
	<defs>
		<rect id="SVGID_227_" y="0" width="1080" height="720"/>
	</defs>
	<clipPath id="SVGID_228_">
		<use xlink:href="#SVGID_227_"  style="overflow:visible;"/>
	</clipPath>
	<g class="st113">
		<g transform="translate(678.12135 246.972901)scale(0.12 -0.12)">
			<g>
				<path d="M40.6,39.3c4.7-1,8.4-3.1,11-6.3c2.7-3.2,4-7.1,4-11.8c0-7.2-2.5-12.8-7.4-16.7c-4.9-3.9-12-5.9-21.1-5.9
					c-3.1,0-6.2,0.3-9.4,0.9S11.1,1,7.6,2.2v9.5c2.7-1.6,5.7-2.8,9-3.6c3.3-0.8,6.7-1.2,10.2-1.2c6.2,0,10.9,1.2,14.1,3.7
					s4.9,6,4.9,10.6c0,4.3-1.5,7.7-4.5,10.1c-3,2.4-7.2,3.6-12.6,3.6h-8.5V43h8.9c4.8,0,8.6,1,11.1,2.9s3.9,4.7,3.9,8.4
					c0,3.7-1.3,6.6-4,8.6c-2.6,2-6.4,3-11.4,3c-2.7,0-5.6-0.3-8.7-0.9c-3.1-0.6-6.5-1.5-10.2-2.7v8.8c3.8,1,7.3,1.8,10.5,2.3
					s6.4,0.8,9.2,0.8c7.5,0,13.4-1.7,17.8-5.1c4.4-3.4,6.5-8,6.5-13.8c0-4-1.2-7.5-3.5-10.2S44.8,40.4,40.6,39.3z"/>
			</g>
			<g>
				<path d="M82.8,8.3h34.4V0H71v8.3c3.7,3.9,8.8,9.1,15.3,15.6c6.5,6.5,10.5,10.7,12.2,12.6c3.2,3.5,5.4,6.5,6.6,9
					c1.3,2.5,1.9,4.9,1.9,7.2c0,3.9-1.4,7-4.1,9.5c-2.7,2.4-6.3,3.7-10.6,3.7c-3.1,0-6.4-0.5-9.8-1.6c-3.4-1.1-7.1-2.7-11-4.9v10
					c4,1.6,7.7,2.8,11.1,3.6c3.5,0.8,6.6,1.2,9.5,1.2c7.6,0,13.6-1.9,18.1-5.7c4.5-3.8,6.7-8.8,6.7-15.1c0-3-0.6-5.8-1.7-8.5
					c-1.1-2.7-3.2-5.8-6.1-9.5c-0.8-0.9-3.4-3.7-7.8-8.2C96.9,22.7,90.8,16.4,82.8,8.3z"/>
			</g>
		</g>
	</g>
</g>
</svg>
