<?xml version="1.0" encoding="utf-8"?>
<!-- Generator: Adobe Illustrator 23.1.1, SVG Export Plug-In . SVG Version: 6.00 Build 0)  -->
<svg version="1.1" id="Layer_1" xmlns="http://www.w3.org/2000/svg" xmlns:xlink="http://www.w3.org/1999/xlink" x="0px" y="0px"
	 viewBox="0 0 1080 720" style="enable-background:new 0 0 1080 720;" xml:space="preserve">
<style type="text/css">
	.st0{clip-path:url(#SVGID_2_);fill:none;stroke:#000000;stroke-linejoin:round;}
	.st1{clip-path:url(#SVGID_4_);fill:none;stroke:#000000;stroke-linejoin:round;}
	.st2{clip-path:url(#SVGID_6_);fill:none;stroke:#000000;stroke-linejoin:round;}
	.st3{clip-path:url(#SVGID_8_);fill:none;stroke:#000000;stroke-linejoin:round;}
	.st4{clip-path:url(#SVGID_10_);fill:none;stroke:#000000;stroke-linejoin:round;}
	.st5{clip-path:url(#SVGID_12_);fill:none;stroke:#000000;stroke-linejoin:round;}
	.st6{clip-path:url(#SVGID_14_);fill:none;stroke:#000000;stroke-linejoin:round;}
	.st7{clip-path:url(#SVGID_16_);fill:none;stroke:#000000;stroke-linejoin:round;}
	.st8{clip-path:url(#SVGID_18_);fill:none;stroke:#000000;stroke-linejoin:round;}
	.st9{clip-path:url(#SVGID_20_);fill:none;stroke:#000000;stroke-linejoin:round;}
	.st10{clip-path:url(#SVGID_22_);fill:none;stroke:#000000;stroke-linejoin:round;}
	.st11{clip-path:url(#SVGID_24_);fill:none;stroke:#000000;stroke-linejoin:round;}
	.st12{clip-path:url(#SVGID_26_);fill:none;stroke:#000000;stroke-linejoin:round;}
	.st13{clip-path:url(#SVGID_28_);fill:none;stroke:#000000;stroke-linejoin:round;}
	.st14{clip-path:url(#SVGID_30_);fill:none;stroke:#000000;stroke-linejoin:round;}
	.st15{clip-path:url(#SVGID_32_);fill:none;stroke:#000000;stroke-linejoin:round;}
	.st16{clip-path:url(#SVGID_34_);fill:none;stroke:#000000;stroke-linejoin:round;}
	.st17{clip-path:url(#SVGID_36_);fill:none;stroke:#000000;stroke-linejoin:round;}
	.st18{clip-path:url(#SVGID_38_);fill:none;stroke:#000000;stroke-linejoin:round;}
	.st19{clip-path:url(#SVGID_40_);fill:none;stroke:#000000;stroke-linejoin:round;}
	.st20{clip-path:url(#SVGID_42_);fill:none;stroke:#000000;stroke-linejoin:round;}
	.st21{clip-path:url(#SVGID_44_);fill:none;stroke:#000000;stroke-linejoin:round;}
	.st22{clip-path:url(#SVGID_46_);fill:none;stroke:#000000;stroke-linejoin:round;}
	.st23{clip-path:url(#SVGID_48_);fill:none;stroke:#000000;stroke-linejoin:round;}
	.st24{clip-path:url(#SVGID_50_);fill:none;stroke:#000000;stroke-linejoin:round;}
	.st25{clip-path:url(#SVGID_52_);fill:none;stroke:#000000;stroke-linejoin:round;}
	.st26{clip-path:url(#SVGID_54_);fill:none;stroke:#000000;stroke-linejoin:round;}
	.st27{clip-path:url(#SVGID_56_);fill:none;stroke:#000000;stroke-linejoin:round;}
	.st28{clip-path:url(#SVGID_58_);fill:none;stroke:#000000;stroke-linejoin:round;}
	.st29{clip-path:url(#SVGID_60_);fill:none;stroke:#000000;stroke-linejoin:round;}
	.st30{clip-path:url(#SVGID_62_);fill:none;stroke:#000000;stroke-linejoin:round;}
	.st31{clip-path:url(#SVGID_64_);fill:none;stroke:#000000;stroke-linejoin:round;}
	.st32{clip-path:url(#SVGID_66_);fill:none;stroke:#000000;stroke-linejoin:round;}
	.st33{clip-path:url(#SVGID_68_);fill:none;stroke:#000000;stroke-linejoin:round;}
	.st34{clip-path:url(#SVGID_70_);fill:none;stroke:#000000;stroke-linejoin:round;}
	.st35{clip-path:url(#SVGID_72_);fill:none;stroke:#000000;stroke-linejoin:round;}
	.st36{clip-path:url(#SVGID_74_);fill:none;stroke:#000000;stroke-linejoin:round;}
	.st37{clip-path:url(#SVGID_76_);fill:none;stroke:#000000;stroke-linejoin:round;}
	.st38{clip-path:url(#SVGID_78_);fill:none;stroke:#000000;stroke-linejoin:round;}
	.st39{clip-path:url(#SVGID_80_);fill:none;stroke:#000000;stroke-linejoin:round;}
	.st40{clip-path:url(#SVGID_82_);fill:none;stroke:#000000;stroke-linejoin:round;}
	.st41{clip-path:url(#SVGID_84_);fill:none;stroke:#000000;stroke-linejoin:round;}
	.st42{clip-path:url(#SVGID_86_);fill:none;stroke:#000000;stroke-linejoin:round;}
	.st43{clip-path:url(#SVGID_88_);fill:none;stroke:#000000;stroke-linejoin:round;}
	.st44{clip-path:url(#SVGID_90_);fill:none;stroke:#000000;stroke-linejoin:round;}
	.st45{clip-path:url(#SVGID_92_);fill:none;stroke:#000000;stroke-linejoin:round;}
	.st46{clip-path:url(#SVGID_94_);fill:#FF0000;stroke:#FF0000;stroke-linejoin:round;}
	.st47{clip-path:url(#SVGID_96_);fill:#FF0000;stroke:#FF0000;stroke-linejoin:round;}
	.st48{clip-path:url(#SVGID_98_);fill:#FF0000;stroke:#FF0000;stroke-linejoin:round;}
	.st49{clip-path:url(#SVGID_100_);fill:#FF0000;stroke:#FF0000;stroke-linejoin:round;}
	.st50{clip-path:url(#SVGID_102_);fill:#FF00FF;stroke:#FF00FF;stroke-linejoin:round;}
	.st51{clip-path:url(#SVGID_104_);fill:#FF00FF;stroke:#FF00FF;stroke-linejoin:round;}
	.st52{clip-path:url(#SVGID_106_);fill:#008000;stroke:#008000;stroke-linejoin:round;}
	.st53{clip-path:url(#SVGID_108_);fill:#008000;stroke:#008000;stroke-linejoin:round;}
	.st54{clip-path:url(#SVGID_110_);fill:#008000;stroke:#008000;stroke-linejoin:round;}
	.st55{clip-path:url(#SVGID_112_);fill:#008000;stroke:#008000;stroke-linejoin:round;}
	.st56{clip-path:url(#SVGID_114_);fill:#008000;stroke:#008000;stroke-linejoin:round;}
	.st57{clip-path:url(#SVGID_116_);fill:#008000;stroke:#008000;stroke-linejoin:round;}
	.st58{clip-path:url(#SVGID_118_);fill:#0000FF;stroke:#0000FF;stroke-linejoin:round;}
	.st59{clip-path:url(#SVGID_120_);fill:#0000FF;stroke:#0000FF;stroke-linejoin:round;}
	.st60{clip-path:url(#SVGID_122_);fill:#0000FF;stroke:#0000FF;stroke-linejoin:round;}
	.st61{clip-path:url(#SVGID_124_);fill:#0000FF;stroke:#0000FF;stroke-linejoin:round;}
	.st62{clip-path:url(#SVGID_126_);fill:#FF0000;stroke:#FF0000;stroke-linejoin:round;}
	.st63{clip-path:url(#SVGID_128_);fill:#FF0000;stroke:#FF0000;stroke-linejoin:round;}
	.st64{clip-path:url(#SVGID_130_);fill:#FF0000;stroke:#FF0000;stroke-linejoin:round;}
	.st65{clip-path:url(#SVGID_132_);fill:#FF0000;stroke:#FF0000;stroke-linejoin:round;}
	.st66{clip-path:url(#SVGID_134_);fill:#FFFF00;stroke:#FFFF00;stroke-linejoin:round;}
	.st67{clip-path:url(#SVGID_136_);fill:#FFFF00;stroke:#FFFF00;stroke-linejoin:round;}
	.st68{clip-path:url(#SVGID_138_);fill:#FFFF00;stroke:#FFFF00;stroke-linejoin:round;}
	.st69{clip-path:url(#SVGID_140_);fill:#FFFF00;stroke:#FFFF00;stroke-linejoin:round;}
	.st70{clip-path:url(#SVGID_142_);fill:#FFFF00;stroke:#FFFF00;stroke-linejoin:round;}
	.st71{clip-path:url(#SVGID_144_);fill:#FFFF00;stroke:#FFFF00;stroke-linejoin:round;}
	.st72{clip-path:url(#SVGID_146_);fill:#FFFF00;stroke:#FFFF00;stroke-linejoin:round;}
	.st73{clip-path:url(#SVGID_148_);fill:#FF0000;stroke:#FF0000;stroke-linejoin:round;}
	.st74{clip-path:url(#SVGID_150_);fill:#FFFF00;stroke:#FFFF00;stroke-linejoin:round;}
	.st75{clip-path:url(#SVGID_152_);fill:#FFFF00;stroke:#FFFF00;stroke-linejoin:round;}
	.st76{clip-path:url(#SVGID_154_);fill:#FF0000;stroke:#FF0000;stroke-linejoin:round;}
	.st77{clip-path:url(#SVGID_156_);fill:#FFFF00;stroke:#FFFF00;stroke-linejoin:round;}
	.st78{clip-path:url(#SVGID_158_);fill:#FFFF00;stroke:#FFFF00;stroke-linejoin:round;}
	.st79{clip-path:url(#SVGID_160_);fill:#FFFF00;stroke:#FFFF00;stroke-linejoin:round;}
	.st80{clip-path:url(#SVGID_162_);}
	.st81{clip-path:url(#SVGID_164_);}
	.st82{clip-path:url(#SVGID_166_);}
	.st83{clip-path:url(#SVGID_168_);}
	.st84{clip-path:url(#SVGID_170_);}
	.st85{clip-path:url(#SVGID_172_);}
	.st86{clip-path:url(#SVGID_174_);}
	.st87{clip-path:url(#SVGID_176_);}
	.st88{clip-path:url(#SVGID_178_);}
	.st89{clip-path:url(#SVGID_180_);}
	.st90{clip-path:url(#SVGID_182_);}
	.st91{clip-path:url(#SVGID_184_);}
	.st92{clip-path:url(#SVGID_186_);}
	.st93{clip-path:url(#SVGID_188_);}
	.st94{clip-path:url(#SVGID_190_);}
	.st95{clip-path:url(#SVGID_192_);}
	.st96{clip-path:url(#SVGID_194_);}
	.st97{clip-path:url(#SVGID_196_);}
	.st98{clip-path:url(#SVGID_198_);}
	.st99{clip-path:url(#SVGID_200_);}
	.st100{clip-path:url(#SVGID_202_);}
	.st101{clip-path:url(#SVGID_204_);}
	.st102{clip-path:url(#SVGID_206_);}
	.st103{clip-path:url(#SVGID_208_);}
	.st104{clip-path:url(#SVGID_210_);}
	.st105{clip-path:url(#SVGID_212_);}
	.st106{clip-path:url(#SVGID_214_);}
	.st107{clip-path:url(#SVGID_216_);}
	.st108{clip-path:url(#SVGID_218_);}
	.st109{clip-path:url(#SVGID_220_);}
	.st110{clip-path:url(#SVGID_222_);}
	.st111{clip-path:url(#SVGID_224_);}
	.st112{clip-path:url(#SVGID_226_);}
	.st113{clip-path:url(#SVGID_228_);}
</style>
<g>
	<g>
		<defs>
			<rect id="SVGID_1_" x="-794.5" y="-174.3" width="2345.4" height="1563.6"/>
		</defs>
		<clipPath id="SVGID_2_">
			<use xlink:href="#SVGID_1_"  style="overflow:visible;"/>
		</clipPath>
		<path class="st0" d="M943.9,351.2l68,55.8"/>
	</g>
</g>
<g>
	<g>
		<defs>
			<rect id="SVGID_3_" x="-794.5" y="-174.3" width="2345.4" height="1563.6"/>
		</defs>
		<clipPath id="SVGID_4_">
			<use xlink:href="#SVGID_3_"  style="overflow:visible;"/>
		</clipPath>
		<path class="st1" d="M943.9,351.2l-85.3-112.9"/>
	</g>
</g>
<g>
	<g>
		<defs>
			<rect id="SVGID_5_" x="-794.5" y="-174.3" width="2345.4" height="1563.6"/>
		</defs>
		<clipPath id="SVGID_6_">
			<use xlink:href="#SVGID_5_"  style="overflow:visible;"/>
		</clipPath>
		<path class="st2" d="M943.9,351.2l-11.9,93.4"/>
	</g>
</g>
<g>
	<g>
		<defs>
			<rect id="SVGID_7_" x="-794.5" y="-174.3" width="2345.4" height="1563.6"/>
		</defs>
		<clipPath id="SVGID_8_">
			<use xlink:href="#SVGID_7_"  style="overflow:visible;"/>
		</clipPath>
		<path class="st3" d="M1011.9,407l-120.5-36.5"/>
	</g>
</g>
<g>
	<g>
		<defs>
			<rect id="SVGID_9_" x="-794.5" y="-174.3" width="2345.4" height="1563.6"/>
		</defs>
		<clipPath id="SVGID_10_">
			<use xlink:href="#SVGID_9_"  style="overflow:visible;"/>
		</clipPath>
		<path class="st4" d="M858.8,238.3l-106.2-89.5"/>
	</g>
</g>
<g>
	<g>
		<defs>
			<rect id="SVGID_11_" x="-794.5" y="-174.3" width="2345.4" height="1563.6"/>
		</defs>
		<clipPath id="SVGID_12_">
			<use xlink:href="#SVGID_11_"  style="overflow:visible;"/>
		</clipPath>
		<path class="st5" d="M858.8,238.3l64.1-108.6"/>
	</g>
</g>
<g>
	<g>
		<defs>
			<rect id="SVGID_13_" x="-794.5" y="-174.3" width="2345.4" height="1563.6"/>
		</defs>
		<clipPath id="SVGID_14_">
			<use xlink:href="#SVGID_13_"  style="overflow:visible;"/>
		</clipPath>
		<path class="st6" d="M858.8,238.3l10.9-103.6"/>
	</g>
</g>
<g>
	<g>
		<defs>
			<rect id="SVGID_15_" x="-794.5" y="-174.3" width="2345.4" height="1563.6"/>
		</defs>
		<clipPath id="SVGID_16_">
			<use xlink:href="#SVGID_15_"  style="overflow:visible;"/>
		</clipPath>
		<path class="st7" d="M858.8,238.3L821.4,158"/>
	</g>
</g>
<g>
	<g>
		<defs>
			<rect id="SVGID_17_" x="-794.5" y="-174.3" width="2345.4" height="1563.6"/>
		</defs>
		<clipPath id="SVGID_18_">
			<use xlink:href="#SVGID_17_"  style="overflow:visible;"/>
		</clipPath>
		<path class="st8" d="M858.8,238.3l32.6,132.3"/>
	</g>
</g>
<g>
	<g>
		<defs>
			<rect id="SVGID_19_" x="-794.5" y="-174.3" width="2345.4" height="1563.6"/>
		</defs>
		<clipPath id="SVGID_20_">
			<use xlink:href="#SVGID_19_"  style="overflow:visible;"/>
		</clipPath>
		<path class="st9" d="M931.9,444.6l-40.6-74.1"/>
	</g>
</g>
<g>
	<g>
		<defs>
			<rect id="SVGID_21_" x="-794.5" y="-174.3" width="2345.4" height="1563.6"/>
		</defs>
		<clipPath id="SVGID_22_">
			<use xlink:href="#SVGID_21_"  style="overflow:visible;"/>
		</clipPath>
		<path class="st10" d="M240.9,78.3l100.8,32.8"/>
	</g>
</g>
<g>
	<g>
		<defs>
			<rect id="SVGID_23_" x="-794.5" y="-174.3" width="2345.4" height="1563.6"/>
		</defs>
		<clipPath id="SVGID_24_">
			<use xlink:href="#SVGID_23_"  style="overflow:visible;"/>
		</clipPath>
		<path class="st11" d="M788.4,573.8l-37.1,84.5"/>
	</g>
</g>
<g>
	<g>
		<defs>
			<rect id="SVGID_25_" x="-794.5" y="-174.3" width="2345.4" height="1563.6"/>
		</defs>
		<clipPath id="SVGID_26_">
			<use xlink:href="#SVGID_25_"  style="overflow:visible;"/>
		</clipPath>
		<path class="st12" d="M788.4,573.8l-104.5-13.7"/>
	</g>
</g>
<g>
	<g>
		<defs>
			<rect id="SVGID_27_" x="-794.5" y="-174.3" width="2345.4" height="1563.6"/>
		</defs>
		<clipPath id="SVGID_28_">
			<use xlink:href="#SVGID_27_"  style="overflow:visible;"/>
		</clipPath>
		<path class="st13" d="M788.4,573.8L692,620.3"/>
	</g>
</g>
<g>
	<g>
		<defs>
			<rect id="SVGID_29_" x="-794.5" y="-174.3" width="2345.4" height="1563.6"/>
		</defs>
		<clipPath id="SVGID_30_">
			<use xlink:href="#SVGID_29_"  style="overflow:visible;"/>
		</clipPath>
		<path class="st14" d="M788.4,573.8l125.1,65.8"/>
	</g>
</g>
<g>
	<g>
		<defs>
			<rect id="SVGID_31_" x="-794.5" y="-174.3" width="2345.4" height="1563.6"/>
		</defs>
		<clipPath id="SVGID_32_">
			<use xlink:href="#SVGID_31_"  style="overflow:visible;"/>
		</clipPath>
		<path class="st15" d="M788.4,573.8L798.8,467"/>
	</g>
</g>
<g>
	<g>
		<defs>
			<rect id="SVGID_33_" x="-794.5" y="-174.3" width="2345.4" height="1563.6"/>
		</defs>
		<clipPath id="SVGID_34_">
			<use xlink:href="#SVGID_33_"  style="overflow:visible;"/>
		</clipPath>
		<path class="st16" d="M684.2,560.1l8,60.2"/>
	</g>
</g>
<g>
	<g>
		<defs>
			<rect id="SVGID_35_" x="-794.5" y="-174.3" width="2345.4" height="1563.6"/>
		</defs>
		<clipPath id="SVGID_36_">
			<use xlink:href="#SVGID_35_"  style="overflow:visible;"/>
		</clipPath>
		<path class="st17" d="M158.6,457l16.3-87.1"/>
	</g>
</g>
<g>
	<g>
		<defs>
			<rect id="SVGID_37_" x="-794.5" y="-174.3" width="2345.4" height="1563.6"/>
		</defs>
		<clipPath id="SVGID_38_">
			<use xlink:href="#SVGID_37_"  style="overflow:visible;"/>
		</clipPath>
		<path class="st18" d="M158.6,457l-30.2,66.5"/>
	</g>
</g>
<g>
	<g>
		<defs>
			<rect id="SVGID_39_" x="-794.5" y="-174.3" width="2345.4" height="1563.6"/>
		</defs>
		<clipPath id="SVGID_40_">
			<use xlink:href="#SVGID_39_"  style="overflow:visible;"/>
		</clipPath>
		<path class="st19" d="M158.6,457l52.3,64.5"/>
	</g>
</g>
<g>
	<g>
		<defs>
			<rect id="SVGID_41_" x="-794.5" y="-174.3" width="2345.4" height="1563.6"/>
		</defs>
		<clipPath id="SVGID_42_">
			<use xlink:href="#SVGID_41_"  style="overflow:visible;"/>
		</clipPath>
		<path class="st20" d="M128.4,523.4l82.3-1.7"/>
	</g>
</g>
<g>
	<g>
		<defs>
			<rect id="SVGID_43_" x="-794.5" y="-174.3" width="2345.4" height="1563.6"/>
		</defs>
		<clipPath id="SVGID_44_">
			<use xlink:href="#SVGID_43_"  style="overflow:visible;"/>
		</clipPath>
		<path class="st21" d="M752.6,149.1l56.2-61.2"/>
	</g>
</g>
<g>
	<g>
		<defs>
			<rect id="SVGID_45_" x="-794.5" y="-174.3" width="2345.4" height="1563.6"/>
		</defs>
		<clipPath id="SVGID_46_">
			<use xlink:href="#SVGID_45_"  style="overflow:visible;"/>
		</clipPath>
		<path class="st22" d="M808.8,87.8l114,42.1"/>
	</g>
</g>
<g>
	<g>
		<defs>
			<rect id="SVGID_47_" x="-794.5" y="-174.3" width="2345.4" height="1563.6"/>
		</defs>
		<clipPath id="SVGID_48_">
			<use xlink:href="#SVGID_47_"  style="overflow:visible;"/>
		</clipPath>
		<path class="st23" d="M808.8,87.8l60.8,47.1"/>
	</g>
</g>
<g>
	<g>
		<defs>
			<rect id="SVGID_49_" x="-794.5" y="-174.3" width="2345.4" height="1563.6"/>
		</defs>
		<clipPath id="SVGID_50_">
			<use xlink:href="#SVGID_49_"  style="overflow:visible;"/>
		</clipPath>
		<path class="st24" d="M808.8,87.8l12.6,70.1"/>
	</g>
</g>
<g>
	<g>
		<defs>
			<rect id="SVGID_51_" x="-794.5" y="-174.3" width="2345.4" height="1563.6"/>
		</defs>
		<clipPath id="SVGID_52_">
			<use xlink:href="#SVGID_51_"  style="overflow:visible;"/>
		</clipPath>
		<path class="st25" d="M922.8,129.7l-53,5"/>
	</g>
</g>
<g>
	<g>
		<defs>
			<rect id="SVGID_53_" x="-794.5" y="-174.3" width="2345.4" height="1563.6"/>
		</defs>
		<clipPath id="SVGID_54_">
			<use xlink:href="#SVGID_53_"  style="overflow:visible;"/>
		</clipPath>
		<path class="st26" d="M869.6,134.7L821.4,158"/>
	</g>
</g>
<g>
	<g>
		<defs>
			<rect id="SVGID_55_" x="-794.5" y="-174.3" width="2345.4" height="1563.6"/>
		</defs>
		<clipPath id="SVGID_56_">
			<use xlink:href="#SVGID_55_"  style="overflow:visible;"/>
		</clipPath>
		<path class="st27" d="M257.4,246.8l45.6,88"/>
	</g>
</g>
<g>
	<g>
		<defs>
			<rect id="SVGID_57_" x="-794.5" y="-174.3" width="2345.4" height="1563.6"/>
		</defs>
		<clipPath id="SVGID_58_">
			<use xlink:href="#SVGID_57_"  style="overflow:visible;"/>
		</clipPath>
		<path class="st28" d="M257.4,246.8l54.1,41"/>
	</g>
</g>
<g>
	<g>
		<defs>
			<rect id="SVGID_59_" x="-794.5" y="-174.3" width="2345.4" height="1563.6"/>
		</defs>
		<clipPath id="SVGID_60_">
			<use xlink:href="#SVGID_59_"  style="overflow:visible;"/>
		</clipPath>
		<path class="st29" d="M257.4,246.8l142,4.6"/>
	</g>
</g>
<g>
	<g>
		<defs>
			<rect id="SVGID_61_" x="-794.5" y="-174.3" width="2345.4" height="1563.6"/>
		</defs>
		<clipPath id="SVGID_62_">
			<use xlink:href="#SVGID_61_"  style="overflow:visible;"/>
		</clipPath>
		<path class="st30" d="M303,334.7l113.6,18"/>
	</g>
</g>
<g>
	<g>
		<defs>
			<rect id="SVGID_63_" x="-794.5" y="-174.3" width="2345.4" height="1563.6"/>
		</defs>
		<clipPath id="SVGID_64_">
			<use xlink:href="#SVGID_63_"  style="overflow:visible;"/>
		</clipPath>
		<path class="st31" d="M303,334.7l122.7-30"/>
	</g>
</g>
<g>
	<g>
		<defs>
			<rect id="SVGID_65_" x="-794.5" y="-174.3" width="2345.4" height="1563.6"/>
		</defs>
		<clipPath id="SVGID_66_">
			<use xlink:href="#SVGID_65_"  style="overflow:visible;"/>
		</clipPath>
		<path class="st32" d="M311.5,287.8l105.1,64.7"/>
	</g>
</g>
<g>
	<g>
		<defs>
			<rect id="SVGID_67_" x="-794.5" y="-174.3" width="2345.4" height="1563.6"/>
		</defs>
		<clipPath id="SVGID_68_">
			<use xlink:href="#SVGID_67_"  style="overflow:visible;"/>
		</clipPath>
		<path class="st33" d="M311.5,287.8l114.2,16.9"/>
	</g>
</g>
<g>
	<g>
		<defs>
			<rect id="SVGID_69_" x="-794.5" y="-174.3" width="2345.4" height="1563.6"/>
		</defs>
		<clipPath id="SVGID_70_">
			<use xlink:href="#SVGID_69_"  style="overflow:visible;"/>
		</clipPath>
		<path class="st34" d="M399.4,251.3l26.3,53.4"/>
	</g>
</g>
<g>
	<g>
		<defs>
			<rect id="SVGID_71_" x="-794.5" y="-174.3" width="2345.4" height="1563.6"/>
		</defs>
		<clipPath id="SVGID_72_">
			<use xlink:href="#SVGID_71_"  style="overflow:visible;"/>
		</clipPath>
		<path class="st35" d="M399.4,251.3l129,97.5"/>
	</g>
</g>
<g>
	<g>
		<defs>
			<rect id="SVGID_73_" x="-794.5" y="-174.3" width="2345.4" height="1563.6"/>
		</defs>
		<clipPath id="SVGID_74_">
			<use xlink:href="#SVGID_73_"  style="overflow:visible;"/>
		</clipPath>
		<path class="st36" d="M634,399l-105.5-50.2"/>
	</g>
</g>
<g>
	<g>
		<defs>
			<rect id="SVGID_75_" x="-794.5" y="-174.3" width="2345.4" height="1563.6"/>
		</defs>
		<clipPath id="SVGID_76_">
			<use xlink:href="#SVGID_75_"  style="overflow:visible;"/>
		</clipPath>
		<path class="st37" d="M634,399l-66.2-70.8"/>
	</g>
</g>
<g>
	<g>
		<defs>
			<rect id="SVGID_77_" x="-794.5" y="-174.3" width="2345.4" height="1563.6"/>
		</defs>
		<clipPath id="SVGID_78_">
			<use xlink:href="#SVGID_77_"  style="overflow:visible;"/>
		</clipPath>
		<path class="st38" d="M528.4,348.8l-111.8,3.7"/>
	</g>
</g>
<g>
	<g>
		<defs>
			<rect id="SVGID_79_" x="-794.5" y="-174.3" width="2345.4" height="1563.6"/>
		</defs>
		<clipPath id="SVGID_80_">
			<use xlink:href="#SVGID_79_"  style="overflow:visible;"/>
		</clipPath>
		<path class="st39" d="M528.4,348.8l-102.7-44.1"/>
	</g>
</g>
<g>
	<g>
		<defs>
			<rect id="SVGID_81_" x="-794.5" y="-174.3" width="2345.4" height="1563.6"/>
		</defs>
		<clipPath id="SVGID_82_">
			<use xlink:href="#SVGID_81_"  style="overflow:visible;"/>
		</clipPath>
		<path class="st40" d="M528.4,348.8l28.9,78.8"/>
	</g>
</g>
<g>
	<g>
		<defs>
			<rect id="SVGID_83_" x="-794.5" y="-174.3" width="2345.4" height="1563.6"/>
		</defs>
		<clipPath id="SVGID_84_">
			<use xlink:href="#SVGID_83_"  style="overflow:visible;"/>
		</clipPath>
		<path class="st41" d="M528.4,348.8l166.3,5.9"/>
	</g>
</g>
<g>
	<g>
		<defs>
			<rect id="SVGID_85_" x="-794.5" y="-174.3" width="2345.4" height="1563.6"/>
		</defs>
		<clipPath id="SVGID_86_">
			<use xlink:href="#SVGID_85_"  style="overflow:visible;"/>
		</clipPath>
		<path class="st42" d="M567.7,328.2l-151.1,24.3"/>
	</g>
</g>
<g>
	<g>
		<defs>
			<rect id="SVGID_87_" x="-794.5" y="-174.3" width="2345.4" height="1563.6"/>
		</defs>
		<clipPath id="SVGID_88_">
			<use xlink:href="#SVGID_87_"  style="overflow:visible;"/>
		</clipPath>
		<path class="st43" d="M567.7,328.2l-142-23.5"/>
	</g>
</g>
<g>
	<g>
		<defs>
			<rect id="SVGID_89_" x="-794.5" y="-174.3" width="2345.4" height="1563.6"/>
		</defs>
		<clipPath id="SVGID_90_">
			<use xlink:href="#SVGID_89_"  style="overflow:visible;"/>
		</clipPath>
		<path class="st44" d="M567.7,328.2l89.5-90.3"/>
	</g>
</g>
<g>
	<g>
		<defs>
			<rect id="SVGID_91_" x="-794.5" y="-174.3" width="2345.4" height="1563.6"/>
		</defs>
		<clipPath id="SVGID_92_">
			<use xlink:href="#SVGID_91_"  style="overflow:visible;"/>
		</clipPath>
		<path class="st45" d="M567.7,328.2l-10.4,99.5"/>
	</g>
</g>
<g>
	<g>
		<defs>
			<rect id="SVGID_93_" x="-794.5" y="-174.3" width="2345.4" height="1563.6"/>
		</defs>
		<clipPath id="SVGID_94_">
			<use xlink:href="#SVGID_93_"  style="overflow:visible;"/>
		</clipPath>
		<path class="st46" d="M943.9,383.8c8.7,0,16.9-3.5,23-9.6c6.1-6.1,9.6-14.3,9.6-23c0-8.7-3.5-16.9-9.6-23
			c-6.1-6.1-14.3-9.6-23-9.6c-8.7,0-16.9,3.5-23,9.6c-6.1,6.1-9.6,14.3-9.6,23c0,8.7,3.5,16.9,9.6,23
			C926.9,380.3,935.4,383.8,943.9,383.8z"/>
	</g>
</g>
<g>
	<g>
		<defs>
			<rect id="SVGID_95_" x="-794.5" y="-174.3" width="2345.4" height="1563.6"/>
		</defs>
		<clipPath id="SVGID_96_">
			<use xlink:href="#SVGID_95_"  style="overflow:visible;"/>
		</clipPath>
		<path class="st47" d="M1011.9,433.5c6.9,0,13.9-2.8,18.9-7.8c5-5,7.8-11.7,7.8-18.9c0-6.9-2.8-13.9-7.8-18.9
			c-5-5-11.7-7.8-18.9-7.8s-13.9,2.8-18.9,7.8c-5,5-7.8,11.7-7.8,18.9c0,6.9,2.8,13.9,7.8,18.9
			C998.2,430.9,1004.9,433.5,1011.9,433.5z"/>
	</g>
</g>
<g>
	<g>
		<defs>
			<rect id="SVGID_97_" x="-794.5" y="-174.3" width="2345.4" height="1563.6"/>
		</defs>
		<clipPath id="SVGID_98_">
			<use xlink:href="#SVGID_97_"  style="overflow:visible;"/>
		</clipPath>
		<path class="st48" d="M858.8,284.3c12.2,0,23.9-4.8,32.6-13.5c8.7-8.7,13.5-20.4,13.5-32.6s-4.8-23.9-13.5-32.6
			c-8.7-8.7-20.4-13.5-32.6-13.5c-12.2,0-23.9,4.8-32.6,13.5c-8.7,8.7-13.5,20.4-13.5,32.6s4.8,23.9,13.5,32.6
			C834.9,279.6,846.6,284.3,858.8,284.3z"/>
	</g>
</g>
<g>
	<g>
		<defs>
			<rect id="SVGID_99_" x="-794.5" y="-174.3" width="2345.4" height="1563.6"/>
		</defs>
		<clipPath id="SVGID_100_">
			<use xlink:href="#SVGID_99_"  style="overflow:visible;"/>
		</clipPath>
		<path class="st49" d="M931.9,471.3c6.9,0,13.9-2.8,18.9-7.8c5-5,7.8-11.7,7.8-18.9c0-6.9-2.8-13.9-7.8-18.9
			c-5-5-11.7-7.8-18.9-7.8c-6.9,0-13.9,2.8-18.9,7.8c-5,5-7.8,11.7-7.8,18.9c0,6.9,2.8,13.9,7.8,18.9
			C918,468.5,925,471.3,931.9,471.3z"/>
	</g>
</g>
<g>
	<g>
		<defs>
			<rect id="SVGID_101_" x="-794.5" y="-174.3" width="2345.4" height="1563.6"/>
		</defs>
		<clipPath id="SVGID_102_">
			<use xlink:href="#SVGID_101_"  style="overflow:visible;"/>
		</clipPath>
		<path class="st50" d="M240.9,96.9c5,0,9.8-2,13.2-5.4s5.4-8.3,5.4-13.2c0-5-2-9.8-5.4-13.2s-8.3-5.4-13.2-5.4c-5,0-9.8,2-13.2,5.4
			c-3.5,3.5-5.4,8.3-5.4,13.2c0,5,2,9.8,5.4,13.2C231.1,95,235.9,96.9,240.9,96.9z"/>
	</g>
</g>
<g>
	<g>
		<defs>
			<rect id="SVGID_103_" x="-794.5" y="-174.3" width="2345.4" height="1563.6"/>
		</defs>
		<clipPath id="SVGID_104_">
			<use xlink:href="#SVGID_103_"  style="overflow:visible;"/>
		</clipPath>
		<path class="st51" d="M341.7,129.9c5,0,9.8-2,13.2-5.4c3.5-3.5,5.4-8.3,5.4-13.2c0-5-2-9.8-5.4-13.2c-3.5-3.5-8.3-5.4-13.2-5.4
			s-9.8,2-13.2,5.4c-3.5,3.5-5.4,8.3-5.4,13.2c0,5,2,9.8,5.4,13.2C331.9,127.8,336.7,129.9,341.7,129.9z"/>
	</g>
</g>
<g>
	<g>
		<defs>
			<rect id="SVGID_105_" x="-794.5" y="-174.3" width="2345.4" height="1563.6"/>
		</defs>
		<clipPath id="SVGID_106_">
			<use xlink:href="#SVGID_105_"  style="overflow:visible;"/>
		</clipPath>
		<path class="st52" d="M788.4,616c11.1,0,21.9-4.3,29.8-12.4c7.8-7.8,12.4-18.7,12.4-29.8c0-11.1-4.3-21.9-12.4-29.8
			c-7.8-7.8-18.7-12.4-29.8-12.4c-11.1,0-21.9,4.3-29.8,12.4c-7.8,7.8-12.4,18.7-12.4,29.8c0,11.1,4.3,21.9,12.4,29.8
			C766.7,611.4,777.3,616,788.4,616z"/>
	</g>
</g>
<g>
	<g>
		<defs>
			<rect id="SVGID_107_" x="-794.5" y="-174.3" width="2345.4" height="1563.6"/>
		</defs>
		<clipPath id="SVGID_108_">
			<use xlink:href="#SVGID_107_"  style="overflow:visible;"/>
		</clipPath>
		<path class="st53" d="M751.5,677c5,0,9.8-2,13.2-5.4c3.5-3.5,5.4-8.3,5.4-13.2c0-5-2-9.8-5.4-13.2c-3.5-3.5-8.3-5.4-13.2-5.4
			c-5,0-9.8,2-13.2,5.4s-5.4,8.3-5.4,13.2c0,5,2,9.8,5.4,13.2S746.5,677,751.5,677z"/>
	</g>
</g>
<g>
	<g>
		<defs>
			<rect id="SVGID_109_" x="-794.5" y="-174.3" width="2345.4" height="1563.6"/>
		</defs>
		<clipPath id="SVGID_110_">
			<use xlink:href="#SVGID_109_"  style="overflow:visible;"/>
		</clipPath>
		<path class="st54" d="M684.2,586.9c6.9,0,13.9-2.8,18.9-7.8c5-5,7.8-11.7,7.8-18.9s-2.8-13.9-7.8-18.9c-5-5-11.7-7.8-18.9-7.8
			c-6.9,0-13.9,2.8-18.9,7.8c-5,5-7.8,11.7-7.8,18.9s2.8,13.9,7.8,18.9C670.3,584,677,586.9,684.2,586.9z"/>
	</g>
</g>
<g>
	<g>
		<defs>
			<rect id="SVGID_111_" x="-794.5" y="-174.3" width="2345.4" height="1563.6"/>
		</defs>
		<clipPath id="SVGID_112_">
			<use xlink:href="#SVGID_111_"  style="overflow:visible;"/>
		</clipPath>
		<path class="st55" d="M692.2,647c6.9,0,13.9-2.8,18.9-7.8c5-5,7.8-11.7,7.8-18.9c0-6.9-2.8-13.9-7.8-18.9c-5-5-11.7-7.8-18.9-7.8
			s-13.9,2.8-18.9,7.8c-5,5-7.8,11.7-7.8,18.9c0,6.9,2.8,13.9,7.8,18.9C678.3,644.2,685,647,692.2,647z"/>
	</g>
</g>
<g>
	<g>
		<defs>
			<rect id="SVGID_113_" x="-794.5" y="-174.3" width="2345.4" height="1563.6"/>
		</defs>
		<clipPath id="SVGID_114_">
			<use xlink:href="#SVGID_113_"  style="overflow:visible;"/>
		</clipPath>
		<path class="st56" d="M913.5,658.5c5,0,9.8-2,13.2-5.4s5.4-8.3,5.4-13.2s-2-9.8-5.4-13.2s-8.3-5.4-13.2-5.4c-5,0-9.8,2-13.2,5.4
			s-5.4,8.3-5.4,13.2c0,5,2,9.8,5.4,13.2S908.5,658.5,913.5,658.5z"/>
	</g>
</g>
<g>
	<g>
		<defs>
			<rect id="SVGID_115_" x="-794.5" y="-174.3" width="2345.4" height="1563.6"/>
		</defs>
		<clipPath id="SVGID_116_">
			<use xlink:href="#SVGID_115_"  style="overflow:visible;"/>
		</clipPath>
		<path class="st57" d="M798.8,485.7c5,0,9.8-2,13.2-5.4s5.4-8.3,5.4-13.2c0-5-2-9.8-5.4-13.2s-8.3-5.4-13.2-5.4
			c-5,0-9.8,2-13.2,5.4c-3.5,3.5-5.4,8.3-5.4,13.2c0,5,2,9.8,5.4,13.2C789,483.7,793.8,485.7,798.8,485.7z"/>
	</g>
</g>
<g>
	<g>
		<defs>
			<rect id="SVGID_117_" x="-794.5" y="-174.3" width="2345.4" height="1563.6"/>
		</defs>
		<clipPath id="SVGID_118_">
			<use xlink:href="#SVGID_117_"  style="overflow:visible;"/>
		</clipPath>
		<path class="st58" d="M158.6,489.6c8.7,0,16.9-3.5,23-9.6c6.1-6.1,9.6-14.3,9.6-23c0-8.7-3.5-16.9-9.6-23
			c-6.1-6.1-14.3-9.6-23-9.6c-8.7,0-16.9,3.5-23,9.6c-6.1,6.1-9.6,14.3-9.6,23c0,8.7,3.5,16.9,9.6,23
			C141.7,486.1,149.9,489.6,158.6,489.6z"/>
	</g>
</g>
<g>
	<g>
		<defs>
			<rect id="SVGID_119_" x="-794.5" y="-174.3" width="2345.4" height="1563.6"/>
		</defs>
		<clipPath id="SVGID_120_">
			<use xlink:href="#SVGID_119_"  style="overflow:visible;"/>
		</clipPath>
		<path class="st59" d="M174.7,388.8c5,0,9.8-2,13.2-5.4c3.5-3.5,5.4-8.3,5.4-13.2c0-5-2-9.8-5.4-13.2c-3.5-3.5-8.3-5.4-13.2-5.4
			c-5,0-9.8,2-13.2,5.4c-3.5,3.5-5.4,8.3-5.4,13.2c0,5,2,9.8,5.4,13.2C164.9,386.9,169.7,388.8,174.7,388.8z"/>
	</g>
</g>
<g>
	<g>
		<defs>
			<rect id="SVGID_121_" x="-794.5" y="-174.3" width="2345.4" height="1563.6"/>
		</defs>
		<clipPath id="SVGID_122_">
			<use xlink:href="#SVGID_121_"  style="overflow:visible;"/>
		</clipPath>
		<path class="st60" d="M128.4,549.9c6.9,0,13.9-2.8,18.9-7.8c5-5,7.8-11.7,7.8-18.9c0-6.9-2.8-13.9-7.8-18.9
			c-5-5-11.7-7.8-18.9-7.8c-6.9,0-13.9,2.8-18.9,7.8c-5,5-7.8,11.7-7.8,18.9c0,6.9,2.8,13.9,7.8,18.9
			C114.5,547.1,121.3,549.9,128.4,549.9z"/>
	</g>
</g>
<g>
	<g>
		<defs>
			<rect id="SVGID_123_" x="-794.5" y="-174.3" width="2345.4" height="1563.6"/>
		</defs>
		<clipPath id="SVGID_124_">
			<use xlink:href="#SVGID_123_"  style="overflow:visible;"/>
		</clipPath>
		<path class="st61" d="M210.7,548.2c6.9,0,13.9-2.8,18.9-7.8c5-5,7.8-11.7,7.8-18.9c0-6.9-2.8-13.9-7.8-18.9
			c-5-5-11.7-7.8-18.9-7.8s-13.9,2.8-18.9,7.8c-5,5-7.8,11.7-7.8,18.9c0,6.9,2.8,13.9,7.8,18.9C197,545.4,203.8,548.2,210.7,548.2z"
			/>
	</g>
</g>
<g>
	<g>
		<defs>
			<rect id="SVGID_125_" x="-794.5" y="-174.3" width="2345.4" height="1563.6"/>
		</defs>
		<clipPath id="SVGID_126_">
			<use xlink:href="#SVGID_125_"  style="overflow:visible;"/>
		</clipPath>
		<path class="st62" d="M752.6,175.5c6.9,0,13.9-2.8,18.9-7.8c5-5,7.8-11.7,7.8-18.9s-2.8-13.9-7.8-18.9c-5-5-11.7-7.8-18.9-7.8
			s-13.9,2.8-18.9,7.8c-5,5-7.8,11.7-7.8,18.9s2.8,13.9,7.8,18.9C738.7,172.7,745.6,175.5,752.6,175.5z"/>
	</g>
</g>
<g>
	<g>
		<defs>
			<rect id="SVGID_127_" x="-794.5" y="-174.3" width="2345.4" height="1563.6"/>
		</defs>
		<clipPath id="SVGID_128_">
			<use xlink:href="#SVGID_127_"  style="overflow:visible;"/>
		</clipPath>
		<path class="st63" d="M808.8,125.4c10,0,19.5-3.9,26.5-11.1c6.9-7.2,11.1-16.7,11.1-26.5s-3.9-19.5-11.1-26.5
			c-6.9-6.9-16.7-11.1-26.5-11.1s-19.5,3.9-26.5,11.1c-6.9,6.9-11.1,16.7-11.1,26.5s3.9,19.5,11.1,26.5
			C789.5,121.3,798.8,125.4,808.8,125.4z"/>
	</g>
</g>
<g>
	<g>
		<defs>
			<rect id="SVGID_129_" x="-794.5" y="-174.3" width="2345.4" height="1563.6"/>
		</defs>
		<clipPath id="SVGID_130_">
			<use xlink:href="#SVGID_129_"  style="overflow:visible;"/>
		</clipPath>
		<path class="st64" d="M922.8,162.3c8.7,0,16.9-3.5,23-9.6c6.1-6.1,9.6-14.3,9.6-23s-3.5-16.9-9.6-23c-6.1-6.1-14.3-9.6-23-9.6
			c-8.7,0-16.9,3.5-23,9.6c-6.1,6.1-9.6,14.3-9.6,23s3.5,16.9,9.6,23C905.9,158.8,914.1,162.3,922.8,162.3z"/>
	</g>
</g>
<g>
	<g>
		<defs>
			<rect id="SVGID_131_" x="-794.5" y="-174.3" width="2345.4" height="1563.6"/>
		</defs>
		<clipPath id="SVGID_132_">
			<use xlink:href="#SVGID_131_"  style="overflow:visible;"/>
		</clipPath>
		<path class="st65" d="M869.6,172.3c10,0,19.5-3.9,26.5-11.1s11.1-16.7,11.1-26.5c0-10-3.9-19.5-11.1-26.5
			c-6.9-6.9-16.7-11.1-26.5-11.1s-19.5,3.9-26.5,11.1c-6.9,6.9-11.1,16.7-11.1,26.5c0,10,3.9,19.5,11.1,26.5
			S859.6,172.3,869.6,172.3z"/>
	</g>
</g>
<g>
	<g>
		<defs>
			<rect id="SVGID_133_" x="-794.5" y="-174.3" width="2345.4" height="1563.6"/>
		</defs>
		<clipPath id="SVGID_134_">
			<use xlink:href="#SVGID_133_"  style="overflow:visible;"/>
		</clipPath>
		<path class="st66" d="M257.4,279.4c8.7,0,16.9-3.5,23-9.6c6.1-6.1,9.6-14.3,9.6-23c0-8.7-3.5-16.9-9.6-23s-14.3-9.6-23-9.6
			c-8.7,0-16.9,3.5-23,9.6c-6.1,6.1-9.6,14.3-9.6,23c0,8.7,3.5,16.9,9.6,23C240.5,275.9,248.7,279.4,257.4,279.4z"/>
	</g>
</g>
<g>
	<g>
		<defs>
			<rect id="SVGID_135_" x="-794.5" y="-174.3" width="2345.4" height="1563.6"/>
		</defs>
		<clipPath id="SVGID_136_">
			<use xlink:href="#SVGID_135_"  style="overflow:visible;"/>
		</clipPath>
		<path class="st67" d="M303,367.3c8.7,0,16.9-3.5,23-9.6c6.1-6.1,9.6-14.3,9.6-23s-3.5-16.9-9.6-23c-6.1-6.1-14.3-9.6-23-9.6
			s-16.9,3.5-23,9.6c-6.1,6.1-9.6,14.3-9.6,23s3.5,16.9,9.6,23C286.1,363.8,294.3,367.3,303,367.3z"/>
	</g>
</g>
<g>
	<g>
		<defs>
			<rect id="SVGID_137_" x="-794.5" y="-174.3" width="2345.4" height="1563.6"/>
		</defs>
		<clipPath id="SVGID_138_">
			<use xlink:href="#SVGID_137_"  style="overflow:visible;"/>
		</clipPath>
		<path class="st68" d="M311.5,320.4c8.7,0,16.9-3.5,23-9.6c6.1-6.1,9.6-14.3,9.6-23s-3.5-16.9-9.6-23c-6.1-6.1-14.3-9.6-23-9.6
			c-8.7,0-16.9,3.5-23,9.6c-6.1,6.1-9.6,14.3-9.6,23s3.5,16.9,9.6,23C294.6,317.1,302.8,320.4,311.5,320.4z"/>
	</g>
</g>
<g>
	<g>
		<defs>
			<rect id="SVGID_139_" x="-794.5" y="-174.3" width="2345.4" height="1563.6"/>
		</defs>
		<clipPath id="SVGID_140_">
			<use xlink:href="#SVGID_139_"  style="overflow:visible;"/>
		</clipPath>
		<path class="st69" d="M399.4,283.9c8.7,0,16.9-3.5,23-9.6s9.6-14.3,9.6-23c0-8.7-3.5-16.9-9.6-23c-6.1-6.1-14.3-9.6-23-9.6
			s-16.9,3.5-23,9.6c-6.1,6.1-9.6,14.3-9.6,23c0,8.7,3.5,16.9,9.6,23C382.5,280.4,390.8,283.9,399.4,283.9z"/>
	</g>
</g>
<g>
	<g>
		<defs>
			<rect id="SVGID_141_" x="-794.5" y="-174.3" width="2345.4" height="1563.6"/>
		</defs>
		<clipPath id="SVGID_142_">
			<use xlink:href="#SVGID_141_"  style="overflow:visible;"/>
		</clipPath>
		<path class="st70" d="M634,425.5c6.9,0,13.9-2.8,18.9-7.8c5-5,7.8-11.7,7.8-18.9c0-6.9-2.8-13.9-7.8-18.9c-5-5-11.7-7.8-18.9-7.8
			s-13.9,2.8-18.9,7.8c-5,5-7.8,11.7-7.8,18.9c0,6.9,2.8,13.9,7.8,18.9C620.1,422.9,626.8,425.5,634,425.5z"/>
	</g>
</g>
<g>
	<g>
		<defs>
			<rect id="SVGID_143_" x="-794.5" y="-174.3" width="2345.4" height="1563.6"/>
		</defs>
		<clipPath id="SVGID_144_">
			<use xlink:href="#SVGID_143_"  style="overflow:visible;"/>
		</clipPath>
		<path class="st71" d="M528.4,394.9c12.2,0,23.9-4.8,32.6-13.5c8.7-8.7,13.5-20.4,13.5-32.6s-4.8-23.9-13.5-32.6
			c-8.7-8.7-20.4-13.5-32.6-13.5c-12.2,0-23.9,4.8-32.6,13.5s-13.5,20.4-13.5,32.6s4.8,23.9,13.5,32.6
			C504.3,390.1,516.1,394.9,528.4,394.9z"/>
	</g>
</g>
<g>
	<g>
		<defs>
			<rect id="SVGID_145_" x="-794.5" y="-174.3" width="2345.4" height="1563.6"/>
		</defs>
		<clipPath id="SVGID_146_">
			<use xlink:href="#SVGID_145_"  style="overflow:visible;"/>
		</clipPath>
		<path class="st72" d="M567.7,370.3c11.1,0,21.9-4.3,29.8-12.4c7.8-8,12.4-18.7,12.4-29.8c0-11.1-4.3-21.9-12.4-29.8
			c-7.8-7.8-18.7-12.4-29.8-12.4c-11.1,0-21.9,4.3-29.8,12.4c-7.8,7.8-12.4,18.7-12.4,29.8c0,11.1,4.3,21.9,12.4,29.8
			C546,366,556.7,370.3,567.7,370.3z"/>
	</g>
</g>
<g>
	<g>
		<defs>
			<rect id="SVGID_147_" x="-794.5" y="-174.3" width="2345.4" height="1563.6"/>
		</defs>
		<clipPath id="SVGID_148_">
			<use xlink:href="#SVGID_147_"  style="overflow:visible;"/>
		</clipPath>
		<path class="st73" d="M891.3,403.1c8.7,0,16.9-3.5,23-9.6c6.1-6.1,9.6-14.3,9.6-23c0-8.7-3.5-16.9-9.6-23
			c-6.1-6.1-14.3-9.6-23-9.6c-8.7,0-16.9,3.5-23,9.6c-6.1,6.1-9.6,14.3-9.6,23c0,8.7,3.5,16.9,9.6,23
			C874.4,399.9,882.9,403.1,891.3,403.1z"/>
	</g>
</g>
<g>
	<g>
		<defs>
			<rect id="SVGID_149_" x="-794.5" y="-174.3" width="2345.4" height="1563.6"/>
		</defs>
		<clipPath id="SVGID_150_">
			<use xlink:href="#SVGID_149_"  style="overflow:visible;"/>
		</clipPath>
		<path class="st74" d="M416.6,390.3c10,0,19.5-3.9,26.5-11.1c6.9-6.9,11.1-16.7,11.1-26.5c0-10-3.9-19.5-11.1-26.5
			c-6.9-6.9-16.7-11.1-26.5-11.1c-9.8,0-19.5,3.9-26.5,11.1c-6.9,7.2-11.1,16.7-11.1,26.5c0,10,3.9,19.5,11.1,26.5
			C397.3,386.2,406.6,390.3,416.6,390.3z"/>
	</g>
</g>
<g>
	<g>
		<defs>
			<rect id="SVGID_151_" x="-794.5" y="-174.3" width="2345.4" height="1563.6"/>
		</defs>
		<clipPath id="SVGID_152_">
			<use xlink:href="#SVGID_151_"  style="overflow:visible;"/>
		</clipPath>
		<path class="st75" d="M425.7,346.9c11.1,0,21.9-4.3,29.8-12.4c7.8-7.8,12.4-18.7,12.4-29.8c0-11.1-4.3-21.9-12.4-29.8
			c-7.8-7.8-18.7-12.4-29.8-12.4c-11.1,0-21.9,4.3-29.8,12.4c-7.8,7.8-12.4,18.7-12.4,29.8s4.3,21.9,12.4,29.8
			C403.8,342.3,414.6,346.9,425.7,346.9z"/>
	</g>
</g>
<g>
	<g>
		<defs>
			<rect id="SVGID_153_" x="-794.5" y="-174.3" width="2345.4" height="1563.6"/>
		</defs>
		<clipPath id="SVGID_154_">
			<use xlink:href="#SVGID_153_"  style="overflow:visible;"/>
		</clipPath>
		<path class="st76" d="M821.4,190.5c8.7,0,16.9-3.5,23-9.6c6.1-6.1,9.6-14.3,9.6-23c0-8.7-3.5-16.9-9.6-23
			c-6.1-6.1-14.3-9.6-23-9.6c-8.7,0-16.9,3.5-23,9.6c-6.1,6.1-9.6,14.3-9.6,23c0,8.7,3.5,16.9,9.6,23
			C804.5,187.1,812.7,190.5,821.4,190.5z"/>
	</g>
</g>
<g>
	<g>
		<defs>
			<rect id="SVGID_155_" x="-794.5" y="-174.3" width="2345.4" height="1563.6"/>
		</defs>
		<clipPath id="SVGID_156_">
			<use xlink:href="#SVGID_155_"  style="overflow:visible;"/>
		</clipPath>
		<path class="st77" d="M657.4,256.8c5,0,9.8-2,13.2-5.4s5.4-8.3,5.4-13.2s-2-9.8-5.4-13.2c-3.5-3.5-8.3-5.4-13.2-5.4
			c-5,0-9.8,2-13.2,5.4c-3.5,3.5-5.4,8.3-5.4,13.2s2,9.8,5.4,13.2C647.7,254.6,652.4,256.8,657.4,256.8z"/>
	</g>
</g>
<g>
	<g>
		<defs>
			<rect id="SVGID_157_" x="-794.5" y="-174.3" width="2345.4" height="1563.6"/>
		</defs>
		<clipPath id="SVGID_158_">
			<use xlink:href="#SVGID_157_"  style="overflow:visible;"/>
		</clipPath>
		<path class="st78" d="M557.3,454.2c6.9,0,13.9-2.8,18.9-7.8c5-5,7.8-11.7,7.8-18.9c0-6.9-2.8-13.9-7.8-18.9
			c-5-5-11.7-7.8-18.9-7.8s-13.9,2.8-18.9,7.8c-5,5-7.8,11.7-7.8,18.9c0,6.9,2.8,13.9,7.8,18.9C543.4,451.4,550.2,454.2,557.3,454.2
			z"/>
	</g>
</g>
<g>
	<g>
		<defs>
			<rect id="SVGID_159_" x="-794.5" y="-174.3" width="2345.4" height="1563.6"/>
		</defs>
		<clipPath id="SVGID_160_">
			<use xlink:href="#SVGID_159_"  style="overflow:visible;"/>
		</clipPath>
		<path class="st79" d="M694.8,373.6c5,0,9.8-2,13.2-5.4c3.5-3.5,5.4-8.3,5.4-13.2s-2-9.8-5.4-13.2c-3.5-3.5-8.3-5.4-13.2-5.4
			c-5,0-9.8,2-13.2,5.4c-3.5,3.5-5.4,8.3-5.4,13.2s2,9.8,5.4,13.2S689.8,373.6,694.8,373.6z"/>
	</g>
</g>
<g>
	<g>
		<defs>
			<rect id="SVGID_161_" x="-794.5" y="-174.3" width="2345.4" height="1563.6"/>
		</defs>
		<clipPath id="SVGID_162_">
			<use xlink:href="#SVGID_161_"  style="overflow:visible;"/>
		</clipPath>
		<g class="st80">
			<g transform="translate(960.384294 169.218226)scale(0.12 -0.12)">
				<g>
					<path id="DejaVuSans-50" d="M-164.3-1559.4h74.7v-18h-100.5v18c8,8.5,19.1,19.8,33.2,33.9c14.1,14.1,22.8,23.2,26.5,27.4
						c6.9,7.6,11.7,14.1,14.3,19.5c2.8,5.4,4.1,10.6,4.1,15.6c0,8.5-3,15.2-8.9,20.6c-5.9,5.2-13.7,8-23,8c-6.7,0-13.9-1.1-21.3-3.5
						s-15.4-5.9-23.9-10.6v21.7c8.7,3.5,16.7,6.1,24.1,7.8c7.6,1.7,14.3,2.6,20.6,2.6c16.5,0,29.5-4.1,39.3-12.4
						c9.8-8.3,14.5-19.1,14.5-32.8c0-6.5-1.3-12.6-3.7-18.5s-6.9-12.6-13.2-20.6c-1.7-2-7.4-8-16.9-17.8
						C-133.7-1528.1-146.9-1541.8-164.3-1559.4z"/>
				</g>
			</g>
		</g>
	</g>
</g>
<g>
	<g>
		<defs>
			<rect id="SVGID_163_" x="-794.5" y="-174.3" width="2345.4" height="1563.6"/>
		</defs>
		<clipPath id="SVGID_164_">
			<use xlink:href="#SVGID_163_"  style="overflow:visible;"/>
		</clipPath>
		<g class="st81">
			<g transform="translate(987.855065 194.884466)scale(0.12 -0.12)">
				<g>
					<path id="DejaVuSans-49" d="M89.1-1810h35v120.7l-38-7.6v19.5l37.8,7.6h21.5V-1810h35v-18H89.1V-1810z"/>
				</g>
				<g>
					<path d="M242-1810h74.7v-18H216.2v18c8,8.5,19.1,19.8,33.2,33.9c14.1,14.1,22.8,23.2,26.5,27.4c6.9,7.6,11.7,14.1,14.3,19.5
						c2.8,5.4,4.1,10.6,4.1,15.6c0,8.5-3,15.2-8.9,20.6c-5.9,5.2-13.7,8-23,8c-6.7,0-13.9-1.1-21.3-3.5s-15.4-5.9-23.9-10.6v21.7
						c8.7,3.5,16.7,6.1,24.1,7.8c7.6,1.7,14.3,2.6,20.6,2.6c16.5,0,29.5-4.1,39.3-12.4c9.8-8.3,14.5-19.1,14.5-32.8
						c0-6.5-1.3-12.6-3.7-18.5c-2.4-5.9-6.9-12.6-13.2-20.6c-1.7-2-7.4-8-16.9-17.8C272.6-1778.7,259.4-1792.4,242-1810z"/>
				</g>
			</g>
		</g>
	</g>
</g>
<g>
	<g>
		<defs>
			<rect id="SVGID_165_" x="-794.5" y="-174.3" width="2345.4" height="1563.6"/>
		</defs>
		<clipPath id="SVGID_166_">
			<use xlink:href="#SVGID_165_"  style="overflow:visible;"/>
		</clipPath>
		<g class="st82">
			<g transform="translate(917.315247 117.210538)scale(0.12 -0.12)">
				<g>
					<path d="M-599.6-1051.6h35v120.7l-38-7.6v19.5l37.8,7.6h21.5v-140.3h35v-18h-91.2V-1051.6z"/>
				</g>
				<g>
					<path id="DejaVuSans-55" d="M-470.4-911.3h101.9v-9.1l-57.5-149.2h-22.4l54.1,140.3h-76V-911.3z"/>
				</g>
			</g>
		</g>
	</g>
</g>
<g>
	<g>
		<defs>
			<rect id="SVGID_167_" x="-794.5" y="-174.3" width="2345.4" height="1563.6"/>
		</defs>
		<clipPath id="SVGID_168_">
			<use xlink:href="#SVGID_167_"  style="overflow:visible;"/>
		</clipPath>
		<g class="st83">
			<g transform="translate(951.046556 212.212493)scale(0.12 -0.12)">
				<g>
					<path d="M-270.3-1979.1h35v120.7l-38-7.6v19.5l37.8,7.6h21.5v-140.3h35v-18h-91.2V-1979.1z"/>
				</g>
				<g>
					<path id="DejaVuSans-48" d="M-90-1853c-11.1,0-19.3-5.4-25-16.3c-5.6-10.9-8.3-27.1-8.3-48.9s2.8-38,8.3-48.9
						c5.6-10.9,13.9-16.3,25-16.3s19.3,5.4,25,16.3s8.3,27.1,8.3,48.9s-2.8,38-8.3,48.9S-78.9-1853-90-1853z M-90-1835.8
						c17.8,0,31.3-6.9,40.6-21.1c9.3-14.1,14.1-34.3,14.1-61s-4.8-46.9-14.1-61c-9.3-14.1-23-21.1-40.6-21.1
						c-17.8,0-31.3,6.9-40.6,21.1c-9.3,14.1-14.1,34.3-14.1,61s4.8,47.1,14.1,61C-121.3-1843-107.6-1835.8-90-1835.8z"/>
				</g>
			</g>
		</g>
	</g>
</g>
<g>
	<g>
		<defs>
			<rect id="SVGID_169_" x="-794.5" y="-174.3" width="2345.4" height="1563.6"/>
		</defs>
		<clipPath id="SVGID_170_">
			<use xlink:href="#SVGID_169_"  style="overflow:visible;"/>
		</clipPath>
		<g class="st84">
			<g transform="translate(50.484642 71.571313)scale(0.12 -0.12)">
				<g>
					<path d="M1544.5-96.9h35V23.8l-38-7.6v19.5l37.8,7.6h21.5V-96.9h35v-18h-91.2V-96.9z"/>
				</g>
			</g>
		</g>
	</g>
</g>
<g>
	<g>
		<defs>
			<rect id="SVGID_171_" x="-794.5" y="-174.3" width="2345.4" height="1563.6"/>
		</defs>
		<clipPath id="SVGID_172_">
			<use xlink:href="#SVGID_171_"  style="overflow:visible;"/>
		</clipPath>
		<g class="st85">
			<g transform="translate(93.047605 86.70143)scale(0.12 -0.12)">
				<g>
					<path d="M1974.9-244.6h74.7v-18H1949v18c8,8.5,19.1,19.8,33.2,33.9c14.1,14.1,22.8,23.2,26.5,27.4c6.9,7.6,11.7,14.1,14.3,19.5
						c2.8,5.4,4.1,10.6,4.1,15.6c0,8.5-3,15.2-8.9,20.6c-5.9,5.2-13.7,8-23,8c-6.7,0-13.9-1.1-21.3-3.5c-7.4-2.4-15.4-5.9-23.9-10.6
						v21.7c8.7,3.5,16.7,6.1,24.1,7.8c7.6,1.7,14.3,2.6,20.6,2.6c16.5,0,29.5-4.1,39.3-12.4c9.8-8.3,14.5-19.1,14.5-32.8
						c0-6.5-1.3-12.6-3.7-18.5c-2.4-5.9-6.9-12.6-13.2-20.6c-1.7-2-7.4-8-16.9-17.8C2005.5-213.4,1992-227,1974.9-244.6z"/>
				</g>
				<g>
					<path d="M2089.1-104.4h101.9v-9.1l-57.5-149.2H2111l54.1,140.3h-76L2089.1-104.4L2089.1-104.4z"/>
				</g>
			</g>
		</g>
	</g>
</g>
<g>
	<g>
		<defs>
			<rect id="SVGID_173_" x="-794.5" y="-174.3" width="2345.4" height="1563.6"/>
		</defs>
		<clipPath id="SVGID_174_">
			<use xlink:href="#SVGID_173_"  style="overflow:visible;"/>
		</clipPath>
		<g class="st86">
			<g transform="translate(964.278695 629.485597)scale(0.12 -0.12)">
				<g>
					<path id="DejaVuSans-51" d="M-1446,488.8c10.2-2.2,18.2-6.7,23.9-13.7c5.9-6.9,8.7-15.4,8.7-25.6c0-15.6-5.4-27.8-16.1-36.3
						c-10.6-8.5-26.1-12.8-45.8-12.8c-6.7,0-13.5,0.7-20.4,2c-6.9,1.3-14.3,3.3-21.7,5.9v20.6c5.9-3.5,12.4-6.1,19.5-7.8
						c7.2-1.7,14.6-2.6,22.2-2.6c13.5,0,23.7,2.6,30.6,8c6.9,5.2,10.6,13,10.6,23c0,9.3-3.3,16.7-9.8,21.9
						c-6.5,5.2-15.6,7.8-27.4,7.8h-18.5v17.6h19.3c10.4,0,18.7,2.2,24.1,6.3c5.6,4.1,8.5,10.2,8.5,18.2s-2.8,14.3-8.7,18.7
						c-5.6,4.3-13.9,6.5-24.8,6.5c-5.9,0-12.2-0.7-18.9-2c-6.7-1.3-14.1-3.3-22.2-5.9v19.1c8.3,2.2,15.9,3.9,22.8,5
						c7.2,1.1,13.9,1.7,20,1.7c16.3,0,29.1-3.7,38.7-11.1c9.6-7.4,14.1-17.4,14.1-30c0-8.7-2.6-16.3-7.6-22.2
						C-1429.7,495.5-1436.7,491.2-1446,488.8z"/>
				</g>
			</g>
		</g>
	</g>
</g>
<g>
	<g>
		<defs>
			<rect id="SVGID_175_" x="-794.5" y="-174.3" width="2345.4" height="1563.6"/>
		</defs>
		<clipPath id="SVGID_176_">
			<use xlink:href="#SVGID_175_"  style="overflow:visible;"/>
		</clipPath>
		<g class="st87">
			<g transform="translate(943.400203 668.355289)scale(0.12 -0.12)">
				<g>
					<path d="M-1696.3,42h74.7v-18h-100.5v18c8,8.5,19.1,19.8,33.2,33.9s22.8,23.2,26.5,27.4c6.9,7.6,11.7,14.1,14.3,19.5
						c2.8,5.4,4.1,10.6,4.1,15.6c0,8.5-3,15.2-8.9,20.6c-5.9,5.2-13.7,8-23,8c-6.7,0-13.9-1.1-21.3-3.5c-7.4-2.4-15.4-5.9-23.9-10.6
						v21.7c8.7,3.5,16.7,6.1,24.1,7.8c7.6,1.7,14.3,2.6,20.6,2.6c16.5,0,29.5-4.1,39.3-12.4s14.6-19.1,14.6-32.8
						c0-6.5-1.3-12.6-3.7-18.5c-2.4-5.9-6.9-12.6-13.2-20.6c-1.7-2-7.4-8-16.9-17.8C-1665.7,73.2-1679,59.6-1696.3,42z"/>
				</g>
				<g>
					<path id="DejaVuSans-52" d="M-1517.6,163.6l-54.1-84.5h54.1V163.6z M-1523.2,182.3h26.9V79.1h22.6V61.3h-22.6V23.9h-21.3v37.4
						h-71.4v20.6L-1523.2,182.3z"/>
				</g>
			</g>
		</g>
	</g>
</g>
<g>
	<g>
		<defs>
			<rect id="SVGID_177_" x="-794.5" y="-174.3" width="2345.4" height="1563.6"/>
		</defs>
		<clipPath id="SVGID_178_">
			<use xlink:href="#SVGID_177_"  style="overflow:visible;"/>
		</clipPath>
		<g class="st88">
			<g transform="translate(912.408541 623.191565)scale(0.12 -0.12)">
				<g>
					<path d="M-2013.5,482.9h35v120.7l-38-7.6v19.5l37.8,7.6h21.5V482.9h35v-18h-91.2V482.9z"/>
				</g>
				<g>
					<path id="DejaVuSans-53" d="M-1878.8,623.2h84v-18h-64.5v-38.9c3,1.1,6.3,2,9.3,2.4c3,0.4,6.3,0.9,9.3,0.9
						c17.6,0,31.7-4.8,41.9-14.5c10.4-9.8,15.4-22.8,15.4-39.3c0-16.9-5.2-30.2-15.9-39.7c-10.6-9.3-25.6-14.1-45-14.1
						c-6.7,0-13.5,0.7-20.4,1.7c-6.9,1.1-13.9,2.8-21.3,5v21.5c6.3-3.5,13-6.1,19.8-7.8c6.7-1.7,13.9-2.6,21.5-2.6
						c12.2,0,21.9,3.3,29.1,9.6c7.2,6.5,10.6,15.2,10.6,26.3c0,11.1-3.5,19.8-10.6,26.1c-7.2,6.5-16.7,9.8-29.1,9.8
						c-5.6,0-11.5-0.7-17.2-2c-5.6-1.3-11.5-3.3-17.4-5.9v79.7H-1878.8z"/>
				</g>
			</g>
		</g>
	</g>
</g>
<g>
	<g>
		<defs>
			<rect id="SVGID_179_" x="-794.5" y="-174.3" width="2345.4" height="1563.6"/>
		</defs>
		<clipPath id="SVGID_180_">
			<use xlink:href="#SVGID_179_"  style="overflow:visible;"/>
		</clipPath>
		<g class="st89">
			<g transform="translate(916.095891 650.888065)scale(0.12 -0.12)">
				<g>
					<path d="M-1962.9,212.5h74.7v-18h-100.5v18c8,8.5,19.1,19.8,33.2,33.9s22.8,23.2,26.5,27.4c6.9,7.6,11.7,14.1,14.3,19.5
						c2.8,5.4,4.1,10.6,4.1,15.6c0,8.5-3,15.2-8.9,20.6c-5.9,5.2-13.7,8-23,8c-6.7,0-13.9-1.1-21.3-3.5c-7.4-2.4-15.4-5.9-23.9-10.6
						v21.7c8.7,3.5,16.7,6.1,24.1,7.8c7.6,1.7,14.3,2.6,20.6,2.6c16.5,0,29.5-4.1,39.3-12.4c9.8-8.3,14.5-19.1,14.5-32.8
						c0-6.5-1.3-12.6-3.7-18.5c-2.4-5.9-6.9-12.6-13.2-20.6c-1.7-2-7.4-8-16.9-17.8C-1932.3,243.8-1945.6,230.1-1962.9,212.5z"/>
				</g>
				<g>
					<path id="DejaVuSans-57" d="M-1842.4,197.7v19.5c5.4-2.6,10.9-4.6,16.3-5.9c5.4-1.3,10.9-2,16.3-2c14.1,0,25,4.8,32.4,14.3
						c7.4,9.6,11.7,23.9,12.8,43.4c-4.1-6.1-9.3-10.9-15.6-14.1c-6.3-3.3-13.2-4.8-20.8-4.8c-15.9,0-28.4,4.8-37.6,14.3
						c-9.1,9.6-13.9,22.8-13.9,39.3c0,16.3,4.8,29.3,14.3,39.1c9.6,9.8,22.4,14.8,38.4,14.8c18.2,0,32.4-6.9,41.9-21.1
						c9.6-14.1,14.6-34.3,14.6-61c0-25-5.9-45-17.8-59.7c-11.7-15-27.8-22.4-47.8-22.4c-5.4,0-10.9,0.4-16.3,1.5
						C-1830.9,194.1-1836.5,195.8-1842.4,197.7z M-1799.8,265.1c9.6,0,17.2,3.3,22.8,9.8c5.6,6.5,8.5,15.6,8.5,27.1
						c0,11.3-2.8,20.4-8.5,26.9c-5.6,6.5-13.2,10-22.8,10c-9.6,0-17.2-3.3-22.8-10c-5.6-6.5-8.5-15.6-8.5-26.9
						c0-11.5,2.8-20.4,8.5-27.1C-1817,268.3-1809.4,265.1-1799.8,265.1z"/>
				</g>
			</g>
		</g>
	</g>
</g>
<g>
	<g>
		<defs>
			<rect id="SVGID_181_" x="-794.5" y="-174.3" width="2345.4" height="1563.6"/>
		</defs>
		<clipPath id="SVGID_182_">
			<use xlink:href="#SVGID_181_"  style="overflow:visible;"/>
		</clipPath>
		<g class="st90">
			<g transform="translate(1018.062858 659.800113)scale(0.12 -0.12)">
				<g>
					<path d="M-920.9,192.8c10.2-2.2,18.2-6.7,23.9-13.7c5.9-6.9,8.7-15.4,8.7-25.6c0-15.6-5.4-27.8-16.1-36.3
						c-10.6-8.5-26.1-12.8-45.8-12.8c-6.7,0-13.5,0.7-20.4,2c-6.9,1.3-14.3,3.3-21.7,5.9v20.6c5.9-3.5,12.4-6.1,19.5-7.8
						c7.2-1.7,14.5-2.6,22.2-2.6c13.5,0,23.7,2.6,30.6,8c6.9,5.4,10.6,13,10.6,23c0,9.3-3.3,16.7-9.8,21.9
						c-6.5,5.2-15.6,7.8-27.4,7.8H-965v17.6h19.3c10.4,0,18.7,2.2,24.1,6.3s8.5,10.2,8.5,18.2s-2.8,14.3-8.7,18.7
						c-5.6,4.3-13.9,6.5-24.8,6.5c-5.9,0-12.2-0.7-18.9-2c-6.7-1.3-14.1-3.3-22.2-5.9v19.1c8.3,2.2,15.9,3.9,22.8,5
						c7.2,1.1,13.9,1.7,20,1.7c16.3,0,29.1-3.7,38.7-11.1c9.6-7.4,14.1-17.4,14.1-30c0-8.7-2.6-16.3-7.6-22.2
						C-904.6,199.6-911.5,195.2-920.9,192.8z"/>
				</g>
				<g>
					<path d="M-788.6,247.1l-54.1-84.5h54.1V247.1z M-794.3,265.8h26.9V162.6h22.6v-17.8h-22.6v-37.4h-21.3v37.4h-71.4v20.6
						L-794.3,265.8z"/>
				</g>
			</g>
		</g>
	</g>
</g>
<g>
	<g>
		<defs>
			<rect id="SVGID_183_" x="-794.5" y="-174.3" width="2345.4" height="1563.6"/>
		</defs>
		<clipPath id="SVGID_184_">
			<use xlink:href="#SVGID_183_"  style="overflow:visible;"/>
		</clipPath>
		<g class="st91">
			<g transform="translate(965.264774 580.239374)scale(0.12 -0.12)">
				<g>
					<path d="M-1497.4,902.3h35v120.7l-38-7.6v19.5l37.8,7.6h21.5V902.3h35v-18h-91.2V902.3z"/>
				</g>
				<g>
					<path d="M-1359.3,902.3h35v120.7l-38-7.6v19.5l37.8,7.6h21.5V902.3h35v-18h-91.2V902.3z"/>
				</g>
			</g>
		</g>
	</g>
</g>
<g>
	<g>
		<defs>
			<rect id="SVGID_185_" x="-794.5" y="-174.3" width="2345.4" height="1563.6"/>
		</defs>
		<clipPath id="SVGID_186_">
			<use xlink:href="#SVGID_185_"  style="overflow:visible;"/>
		</clipPath>
		<g class="st92">
			<g transform="translate(399.936675 651.695465)scale(0.12 -0.12)">
				<g>
					<path d="M-1998.9,1702l-54.1-84.5h54.1V1702z M-2004.5,1720.7h26.9v-103.2h22.6v-17.8h-22.6v-37.4h-21.3v37.4h-71.4v20.6
						L-2004.5,1720.7z"/>
				</g>
			</g>
		</g>
	</g>
</g>
<g>
	<g>
		<defs>
			<rect id="SVGID_187_" x="-794.5" y="-174.3" width="2345.4" height="1563.6"/>
		</defs>
		<clipPath id="SVGID_188_">
			<use xlink:href="#SVGID_187_"  style="overflow:visible;"/>
		</clipPath>
		<g class="st93">
			<g transform="translate(403.602127 611.641685)scale(0.12 -0.12)">
				<g>
					<path d="M-2003.5,1971.4h74.7v-18h-100.5v18c8,8.5,19.1,19.8,33.2,33.9c14.1,14.1,22.8,23.2,26.5,27.4
						c6.9,7.6,11.7,14.1,14.3,19.5c2.8,5.4,4.1,10.6,4.1,15.6c0,8.5-3,15.2-8.9,20.6c-5.9,5.2-13.7,8-23,8c-6.7,0-13.9-1.1-21.3-3.5
						c-7.4-2.4-15.4-5.9-23.9-10.6v21.7c8.7,3.5,16.7,6.1,24.1,7.8c7.6,1.7,14.3,2.6,20.6,2.6c16.5,0,29.5-4.1,39.3-12.4
						s14.6-19.1,14.6-32.8c0-6.5-1.3-12.6-3.7-18.5c-2.4-5.9-6.9-12.6-13.2-20.6c-1.7-2-7.4-8-16.9-17.8
						C-1972.9,2002.7-1986.3,1989-2003.5,1971.4z"/>
				</g>
				<g>
					<path d="M-1880.1,1971.4h35v120.7l-38-7.6v19.5l37.8,7.6h21.5v-140.3h35v-18h-91.2V1971.4z"/>
				</g>
			</g>
		</g>
	</g>
</g>
<g>
	<g>
		<defs>
			<rect id="SVGID_189_" x="-794.5" y="-174.3" width="2345.4" height="1563.6"/>
		</defs>
		<clipPath id="SVGID_190_">
			<use xlink:href="#SVGID_189_"  style="overflow:visible;"/>
		</clipPath>
		<g class="st94">
			<g transform="translate(382.253365 682.237965)scale(0.12 -0.12)">
				<g>
					<path d="M-2211.9,1282.2h74.7v-18h-100.5v18c8,8.5,19.1,19.8,33.2,33.9c14.1,14.1,22.8,23.2,26.5,27.4
						c6.9,7.6,11.7,14.1,14.3,19.5c2.8,5.4,4.1,10.6,4.1,15.6c0,8.5-3,15.2-8.9,20.6c-5.9,5.2-13.7,8-23,8c-6.7,0-13.9-1.1-21.3-3.5
						c-7.4-2.4-15.4-5.9-23.9-10.6v21.7c8.7,3.5,16.7,6.1,24.1,7.8c7.6,1.7,14.3,2.6,20.6,2.6c16.5,0,29.5-4.1,39.3-12.4
						c9.8-8.3,14.6-19.1,14.6-32.8c0-6.5-1.3-12.6-3.7-18.5c-2.4-5.9-6.9-12.6-13.2-20.6c-1.7-2-7.4-8-16.9-17.8
						C-2181.3,1313.4-2194.8,1299.8-2211.9,1282.2z"/>
				</g>
				<g>
					<path d="M-2027.3,1349.5c10.2-2.2,18.2-6.7,23.9-13.7c5.9-6.9,8.7-15.4,8.7-25.6c0-15.6-5.4-27.8-16.1-36.3
						s-26.1-12.8-45.8-12.8c-6.7,0-13.5,0.7-20.4,2c-6.9,1.3-14.3,3.3-21.7,5.9v20.6c5.9-3.5,12.4-6.1,19.5-7.8s14.6-2.6,22.2-2.6
						c13.5,0,23.7,2.6,30.6,8c6.9,5.2,10.6,13,10.6,23c0,9.3-3.3,16.7-9.8,21.9c-6.5,5.2-15.6,7.8-27.4,7.8h-18.5v17.6h19.3
						c10.4,0,18.7,2.2,24.1,6.3c5.6,4.1,8.5,10.2,8.5,18.2s-2.8,14.3-8.7,18.7c-5.6,4.3-13.9,6.5-24.8,6.5c-5.9,0-12.2-0.7-18.9-2
						c-6.7-1.3-14.1-3.3-22.2-5.9v19.1c8.3,2.2,15.9,3.9,22.8,5c7.2,1.1,13.9,1.7,20,1.7c16.3,0,29.1-3.7,38.7-11.1
						c9.6-7.4,14.1-17.4,14.1-30c0-8.7-2.6-16.3-7.6-22.2C-2011.1,1356.2-2018,1351.9-2027.3,1349.5z"/>
				</g>
			</g>
		</g>
	</g>
</g>
<g>
	<g>
		<defs>
			<rect id="SVGID_191_" x="-794.5" y="-174.3" width="2345.4" height="1563.6"/>
		</defs>
		<clipPath id="SVGID_192_">
			<use xlink:href="#SVGID_191_"  style="overflow:visible;"/>
		</clipPath>
		<g class="st95">
			<g transform="translate(424.009466 681.418835)scale(0.12 -0.12)">
				<g>
					<path d="M-1822,1275.4v19.5c5.4-2.6,10.9-4.6,16.3-5.9c5.4-1.3,10.9-2,16.3-2c14.1,0,25,4.8,32.4,14.3
						c7.4,9.6,11.7,23.9,12.8,43.4c-4.1-6.1-9.3-10.9-15.6-14.1c-6.3-3.3-13.2-4.8-20.8-4.8c-15.9,0-28.4,4.8-37.6,14.3
						c-9.1,9.6-13.9,22.8-13.9,39.3c0,16.3,4.8,29.3,14.3,39.1s22.4,14.8,38.4,14.8c18.2,0,32.4-6.9,41.9-21.1
						c9.6-14.1,14.6-34.3,14.6-61c0-25-5.9-45-17.8-59.7c-11.7-15-27.8-22.4-47.8-22.4c-5.4,0-10.9,0.4-16.3,1.5
						C-1810.3,1271.7-1816.2,1273.2-1822,1275.4z M-1779.5,1342.5c9.6,0,17.2,3.3,22.8,9.8c5.6,6.5,8.5,15.6,8.5,27.1
						c0,11.3-2.8,20.4-8.5,26.9c-5.6,6.5-13.2,10-22.8,10c-9.6,0-17.2-3.3-22.8-10c-5.6-6.5-8.5-15.6-8.5-26.9
						c0-11.5,2.8-20.4,8.5-27.1C-1796.6,1345.8-1789,1342.5-1779.5,1342.5z"/>
				</g>
			</g>
		</g>
	</g>
</g>
<g>
	<g>
		<defs>
			<rect id="SVGID_193_" x="-794.5" y="-174.3" width="2345.4" height="1563.6"/>
		</defs>
		<clipPath id="SVGID_194_">
			<use xlink:href="#SVGID_193_"  style="overflow:visible;"/>
		</clipPath>
		<g class="st96">
			<g transform="translate(872.254337 76.056496)scale(0.12 -0.12)">
				<g>
					<path d="M-1043-509.5h84v-18h-64.5v-38.9c3,1.1,6.3,2,9.3,2.4c3,0.4,6.3,0.9,9.3,0.9c17.6,0,31.7-4.8,41.9-14.6
						c10.4-9.8,15.4-22.8,15.4-39.3c0-16.9-5.2-30.2-15.9-39.7c-10.6-9.3-25.6-14.1-45-14.1c-6.7,0-13.5,0.7-20.4,1.7
						c-6.9,1.1-13.9,2.8-21.3,5v21.5c6.3-3.5,13-6.1,19.8-7.8c6.7-1.7,13.9-2.6,21.5-2.6c12.2,0,21.9,3.3,29.1,9.6
						c7.2,6.5,10.6,15.2,10.6,26.3c0,11.1-3.5,19.8-10.6,26.1c-7.2,6.5-16.7,9.8-29.1,9.8c-5.6,0-11.5-0.7-17.2-2
						c-5.6-1.3-11.5-3.3-17.4-5.9v79.7H-1043z"/>
				</g>
			</g>
		</g>
	</g>
</g>
<g>
	<g>
		<defs>
			<rect id="SVGID_195_" x="-794.5" y="-174.3" width="2345.4" height="1563.6"/>
		</defs>
		<clipPath id="SVGID_196_">
			<use xlink:href="#SVGID_195_"  style="overflow:visible;"/>
		</clipPath>
		<g class="st97">
			<g transform="translate(894.321662 47.841567)scale(0.12 -0.12)">
				<g>
					<path d="M-824.1-374.3h35v120.7l-38-7.6v19.5l37.8,7.6h21.5v-140.3h35v-18h-91.2V-374.3z"/>
				</g>
				<g>
					<path d="M-689-388.8v19.5c5.4-2.6,10.9-4.6,16.3-5.9c5.4-1.3,10.9-2,16.3-2c14.1,0,25,4.8,32.4,14.3
						c7.4,9.6,11.7,23.9,12.8,43.4c-4.1-6.1-9.3-10.9-15.6-14.1c-6.3-3.3-13.2-4.8-20.8-4.8c-15.9,0-28.4,4.8-37.6,14.3
						c-9.1,9.6-13.9,22.8-13.9,39.3c0,16.3,4.8,29.3,14.3,39.1c9.6,9.8,22.4,14.8,38.4,14.8c18.2,0,32.4-6.9,41.9-21.1
						c9.6-14.1,14.5-34.3,14.5-61c0-25-5.9-45-17.8-59.7c-11.7-15-27.8-22.4-47.8-22.4c-5.4,0-10.9,0.4-16.3,1.5
						C-677.3-392.7-682.9-391-689-388.8z M-646.2-321.7c9.6,0,17.2,3.3,22.8,9.8c5.6,6.5,8.5,15.6,8.5,27.1
						c0,11.3-2.8,20.4-8.5,26.9c-5.6,6.5-13.2,10-22.8,10c-9.6,0-17.2-3.3-22.8-10c-5.6-6.5-8.5-15.6-8.5-26.9
						c0-11.5,2.8-20.4,8.5-27.1C-663.6-318.4-656-321.7-646.2-321.7z"/>
				</g>
			</g>
		</g>
	</g>
</g>
<g>
	<g>
		<defs>
			<rect id="SVGID_197_" x="-794.5" y="-174.3" width="2345.4" height="1563.6"/>
		</defs>
		<clipPath id="SVGID_198_">
			<use xlink:href="#SVGID_197_"  style="overflow:visible;"/>
		</clipPath>
		<g class="st98">
			<g transform="translate(950.612544 67.208672)scale(0.12 -0.12)">
				<g>
					<path id="DejaVuSans-54" d="M-229.8-493.6c-9.6,0-17.2-3.3-22.8-9.8c-5.6-6.5-8.5-15.6-8.5-26.9c0-11.3,2.8-20.4,8.5-26.9
						s13.2-10,22.8-10s17.2,3.3,22.8,10c5.6,6.7,8.5,15.6,8.5,26.9c0,11.5-2.8,20.4-8.5,26.9C-212.4-496.9-220-493.6-229.8-493.6z
						 M-187.2-426.5v-19.5c-5.4,2.6-10.9,4.6-16.3,5.9c-5.4,1.3-10.9,2-16.3,2c-14.1,0-25-4.8-32.4-14.3
						c-7.4-9.6-11.7-23.9-12.8-43.2c4.1,6.1,9.3,10.9,15.6,14.1c6.3,3.3,13.2,5,20.8,5c15.9,0,28.4-4.8,37.8-14.6
						c9.1-9.6,13.9-22.8,13.9-39.3c0-16.3-4.8-29.3-14.3-39.1c-9.6-9.8-22.4-14.8-38.4-14.8c-18.2,0-32.4,6.9-41.9,21.1
						c-9.8,14.1-14.5,34.3-14.5,61c0,25,5.9,45,17.8,59.9c11.9,15,27.8,22.4,47.8,22.4c5.4,0,10.9-0.4,16.3-1.5
						C-198.7-422.8-193.1-424.4-187.2-426.5z"/>
				</g>
			</g>
		</g>
	</g>
</g>
<g>
	<g>
		<defs>
			<rect id="SVGID_199_" x="-794.5" y="-174.3" width="2345.4" height="1563.6"/>
		</defs>
		<clipPath id="SVGID_200_">
			<use xlink:href="#SVGID_199_"  style="overflow:visible;"/>
		</clipPath>
		<g class="st99">
			<g transform="translate(922.364021 69.497427)scale(0.12 -0.12)">
				<g>
					<path d="M-535.5-585.7h74.7v-18h-100.5v18c8,8.5,19.1,19.8,33.2,33.9c14.1,14.1,22.8,23.2,26.5,27.4
						c6.9,7.6,11.7,14.1,14.3,19.5c2.8,5.4,4.1,10.6,4.1,15.6c0,8.5-3,15.2-8.9,20.6c-5.9,5.2-13.7,8-23,8c-6.7,0-13.9-1.1-21.3-3.5
						s-15.4-5.9-23.9-10.6v21.7c8.7,3.5,16.7,6.1,24.1,7.8c7.6,1.7,14.3,2.6,20.6,2.6c16.5,0,29.5-4.1,39.3-12.4
						s14.5-19.1,14.5-32.8c0-6.5-1.3-12.6-3.7-18.5s-6.9-12.6-13.2-20.6c-1.7-2-7.4-8-16.9-17.8
						C-504.9-554.4-518.2-568.1-535.5-585.7z"/>
				</g>
				<g>
					<path d="M-370.1-459.5c-11.1,0-19.3-5.4-25-16.3c-5.6-10.9-8.3-27.1-8.3-48.9c0-21.7,2.8-38,8.3-48.9
						c5.6-10.9,13.9-16.3,25-16.3c11.1,0,19.3,5.4,25,16.3c5.6,10.9,8.3,27.1,8.3,48.9c0,21.7-2.8,38-8.3,48.9
						S-359-459.5-370.1-459.5z M-370.1-442.4c17.8,0,31.3-6.9,40.6-21.1c9.3-14.1,14.1-34.3,14.1-61c0-26.7-4.8-46.9-14.1-61
						s-23-21.1-40.6-21.1c-17.8,0-31.3,6.9-40.6,21.1c-9.3,14.1-14.1,34.3-14.1,61c0,26.7,4.8,47.1,14.1,61
						C-401.3-449.5-387.6-442.4-370.1-442.4z"/>
				</g>
			</g>
		</g>
	</g>
</g>
<g>
	<g>
		<defs>
			<rect id="SVGID_201_" x="-794.5" y="-174.3" width="2345.4" height="1563.6"/>
		</defs>
		<clipPath id="SVGID_202_">
			<use xlink:href="#SVGID_201_"  style="overflow:visible;"/>
		</clipPath>
		<g class="st100">
			<g transform="translate(480.560012 197.214226)scale(0.12 -0.12)">
				<g>
					<path d="M-1911.2-314.7h101.9v-9.1l-57.5-149.2h-22.4l54.1,140.3h-76C-1911.2-332.7-1911.2-314.7-1911.2-314.7z"/>
				</g>
			</g>
		</g>
	</g>
</g>
<g>
	<g>
		<defs>
			<rect id="SVGID_203_" x="-794.5" y="-174.3" width="2345.4" height="1563.6"/>
		</defs>
		<clipPath id="SVGID_204_">
			<use xlink:href="#SVGID_203_"  style="overflow:visible;"/>
		</clipPath>
		<g class="st101">
			<g transform="translate(497.726784 237.679247)scale(0.12 -0.12)">
				<g>
					<path d="M-1734.5-850.1h35v120.7l-38-7.6v19.5l37.8,7.6h21.5v-140.3h35v-18h-91.2C-1734.5-868.1-1734.5-850.1-1734.5-850.1z"/>
				</g>
				<g>
					<path d="M-1541.2-728.5l-54.1-84.5h54.1V-728.5z M-1546.8-709.8h26.9V-813h22.6v-17.8h-22.6v-37.4h-21.3v37.4h-71.4v20.6
						L-1546.8-709.8z"/>
				</g>
			</g>
		</g>
	</g>
</g>
<g>
	<g>
		<defs>
			<rect id="SVGID_205_" x="-794.5" y="-174.3" width="2345.4" height="1563.6"/>
		</defs>
		<clipPath id="SVGID_206_">
			<use xlink:href="#SVGID_205_"  style="overflow:visible;"/>
		</clipPath>
		<g class="st102">
			<g transform="translate(501.673725 216.151415)scale(0.12 -0.12)">
				<g>
					<path d="M-1634.7-572.6c10.2-2.2,18.2-6.7,23.9-13.7c5.9-6.9,8.7-15.4,8.7-25.6c0-15.6-5.4-27.8-16.1-36.3
						c-10.6-8.5-26.1-12.8-45.8-12.8c-6.7,0-13.5,0.7-20.4,2c-6.9,1.3-14.3,3.3-21.9,5.9v20.6c5.9-3.5,12.4-6.1,19.5-7.8
						c7.2-1.7,14.6-2.6,22.2-2.6c13.5,0,23.7,2.6,30.6,8s10.6,13,10.6,23c0,9.3-3.3,16.7-9.8,21.9c-6.5,5.2-15.6,7.8-27.4,7.8h-18.5
						v17.6h19.3c10.4,0,18.7,2.2,24.1,6.3c5.6,4.1,8.5,10.2,8.5,18.2c0,8-2.8,14.3-8.7,18.7c-5.6,4.3-13.9,6.5-24.8,6.5
						c-5.9,0-12.2-0.7-18.9-2c-6.7-1.3-14.1-3.3-22.2-5.9v19.1c8.3,2.2,15.9,3.9,22.8,5c6.9,1.1,13.9,1.7,20,1.7
						c16.3,0,29.1-3.7,38.7-11.1c9.6-7.4,14.1-17.4,14.1-30c0-8.7-2.6-16.3-7.6-22.2C-1618.4-566.1-1625.6-570.2-1634.7-572.6z"/>
				</g>
				<g>
					<path d="M-1515.7-513.7c-11.1,0-19.3-5.4-25-16.3c-5.6-10.9-8.3-27.1-8.3-48.9s2.8-38,8.3-48.9c5.6-10.9,13.9-16.3,25-16.3
						s19.3,5.4,25,16.3c5.6,10.9,8.3,27.1,8.3,48.9s-2.8,38-8.3,48.9C-1496.1-519.2-1504.6-513.7-1515.7-513.7z M-1515.7-496.8
						c17.8,0,31.3-6.9,40.6-21.1c9.3-14.1,14.1-34.3,14.1-61s-4.8-46.9-14.1-61c-9.3-14.1-23-21.1-40.6-21.1
						c-17.8,0-31.3,6.9-40.6,21.1c-9.3,14.1-14.1,34.3-14.1,61s4.8,47.1,14.1,61C-1546.9-503.7-1533.5-496.8-1515.7-496.8z"/>
				</g>
			</g>
		</g>
	</g>
</g>
<g>
	<g>
		<defs>
			<rect id="SVGID_207_" x="-794.5" y="-174.3" width="2345.4" height="1563.6"/>
		</defs>
		<clipPath id="SVGID_208_">
			<use xlink:href="#SVGID_207_"  style="overflow:visible;"/>
		</clipPath>
		<g class="st103">
			<g transform="translate(542.132215 199.2963)scale(0.12 -0.12)">
				<g>
					<path d="M-1300.9-475.3h35v120.7l-38-7.6v19.5l37.8,7.6h21.5v-140.3h35v-18h-91.2C-1300.9-493.4-1300.9-475.3-1300.9-475.3z"/>
				</g>
				<g>
					<path id="DejaVuSans-56" d="M-1120.6-418.2c-10.2,0-18.2-2.8-24.1-8.3c-5.9-5.4-8.7-13-8.7-22.4c0-9.6,2.8-16.9,8.7-22.6
						c5.9-5.4,13.9-8.3,24.1-8.3s18.2,2.8,24.1,8.3c5.9,5.4,8.9,13,8.9,22.4c0,9.6-2.8,16.9-8.7,22.4
						C-1102.4-420.8-1110.4-418.2-1120.6-418.2z M-1142.1-409.1c-9.1,2.2-16.3,6.5-21.5,12.8c-5.2,6.3-7.6,13.9-7.6,23
						c0,12.6,4.6,22.6,13.5,30c9.1,7.4,21.3,11.1,37.1,11.1c15.9,0,28.2-3.7,37.1-11.1c8.9-7.4,13.5-17.4,13.5-30
						c0-9.1-2.6-16.7-7.6-23c-5.2-6.3-12.2-10.6-21.3-12.8c10.4-2.4,18.2-7.2,24.1-14.1c5.9-6.9,8.7-15.6,8.7-25.6
						c0-15.4-4.8-27.1-14.1-35.4s-22.8-12.4-40.2-12.4s-30.8,4.1-40.2,12.4s-14.1,20-14.1,35.4c0,10,2.8,18.7,8.7,25.6
						C-1160.4-416.3-1152.3-411.5-1142.1-409.1z M-1150-375.2c0-8.3,2.6-14.6,7.6-19.1c5.2-4.6,12.4-6.9,21.5-6.9s16.5,2.4,21.5,6.9
						c5.2,4.6,7.8,11.1,7.8,19.1c0,8.3-2.6,14.6-7.8,19.1c-5.2,4.6-12.4,6.9-21.5,6.9c-9.3,0-16.5-2.4-21.5-6.9
						C-1147.4-360.7-1150-367-1150-375.2z"/>
				</g>
			</g>
		</g>
	</g>
</g>
<g>
	<g>
		<defs>
			<rect id="SVGID_209_" x="-794.5" y="-174.3" width="2345.4" height="1563.6"/>
		</defs>
		<clipPath id="SVGID_210_">
			<use xlink:href="#SVGID_209_"  style="overflow:visible;"/>
		</clipPath>
		<g class="st104">
			<g transform="translate(653.968985 267.312643)scale(0.12 -0.12)">
				<g>
					<path d="M-166.8-1082.3c-10.2,0-18.2-2.8-24.1-8.3c-5.9-5.4-8.7-13-8.7-22.4c0-9.6,2.8-16.9,8.7-22.6
						c5.9-5.4,13.9-8.3,24.1-8.3c10.2,0,18.2,2.8,24.1,8.3c5.9,5.4,8.9,13,8.9,22.4c0,9.6-2.8,16.9-8.7,22.4
						C-148.6-1084.9-156.6-1082.3-166.8-1082.3z M-188.3-1073.2c-9.1,2.2-16.3,6.5-21.5,12.8c-5.2,6.3-7.6,13.9-7.6,23
						c0,12.6,4.6,22.6,13.5,30c9.1,7.4,21.3,11.1,37.1,11.1s28.2-3.7,37.1-11.1c8.9-7.4,13.5-17.4,13.5-30c0-9.1-2.6-16.7-7.6-23
						c-5.2-6.3-12.2-10.6-21.3-12.8c10.4-2.4,18.2-7.2,24.1-14.1c5.9-6.9,8.7-15.6,8.7-25.6c0-15.4-4.8-27.1-14.1-35.4
						c-9.6-8-23-12.2-40.4-12.2s-30.8,4.1-40.2,12.4c-9.6,8-14.1,19.8-14.1,35.2c0,10,2.8,18.7,8.7,25.6
						C-206.5-1080.4-198.5-1075.6-188.3-1073.2z M-196.1-1039.3c0-8.3,2.6-14.6,7.6-19.1c5.2-4.6,12.4-6.9,21.5-6.9
						s16.5,2.4,21.5,6.9c5.2,4.6,7.8,11.1,7.8,19.1c0,8.3-2.6,14.6-7.8,19.1c-5.2,4.6-12.4,6.9-21.5,6.9c-9.3,0-16.5-2.4-21.5-6.9
						C-193.5-1024.8-196.1-1031.1-196.1-1039.3z"/>
				</g>
			</g>
		</g>
	</g>
</g>
<g>
	<g>
		<defs>
			<rect id="SVGID_211_" x="-794.5" y="-174.3" width="2345.4" height="1563.6"/>
		</defs>
		<clipPath id="SVGID_212_">
			<use xlink:href="#SVGID_211_"  style="overflow:visible;"/>
		</clipPath>
		<g class="st105">
			<g transform="translate(601.522868 244.24123)scale(0.12 -0.12)">
				<g>
					<path d="M-659.8-846.8c10.2-2.2,18.2-6.7,23.9-13.7c5.9-6.9,8.7-15.4,8.7-25.6c0-15.6-5.4-27.8-16.1-36.3s-26.1-12.8-45.8-12.8
						c-6.7,0-13.5,0.7-20.4,2c-6.9,1.3-14.3,3.3-21.9,5.9v20.6c5.9-3.5,12.4-6.1,19.5-7.8c7.2-1.7,14.6-2.6,22.2-2.6
						c13.5,0,23.7,2.6,30.6,8c6.9,5.4,10.6,13,10.6,23c0,9.3-3.3,16.7-9.8,21.9s-15.6,7.8-27.4,7.8h-18.5v17.6h19.3
						c10.4,0,18.7,2.2,24.1,6.3s8.5,10.2,8.5,18.2c0,8-2.8,14.3-8.7,18.7c-5.6,4.3-13.9,6.5-24.8,6.5c-5.9,0-12.2-0.7-18.9-2
						c-6.7-1.3-14.1-3.3-22.2-5.9v19.1c8.3,2.2,15.9,3.9,22.8,5c6.9,1.1,13.9,1.7,20,1.7c16.3,0,29.1-3.7,38.7-11.1
						c9.6-7.4,14.1-17.4,14.1-30c0-8.7-2.6-16.3-7.6-22.2S-650.6-844.5-659.8-846.8z"/>
				</g>
				<g>
					<path d="M-521.7-846.8c10.2-2.2,18.2-6.7,23.9-13.7c5.9-6.9,8.7-15.4,8.7-25.6c0-15.6-5.4-27.8-16.1-36.3s-26.1-12.8-45.8-12.8
						c-6.7,0-13.5,0.7-20.4,2c-6.9,1.3-14.3,3.3-21.7,5.9v20.6c5.9-3.5,12.4-6.1,19.5-7.8c7.2-1.7,14.6-2.6,22.2-2.6
						c13.5,0,23.7,2.6,30.6,8c6.9,5.2,10.6,13,10.6,23c0,9.3-3.3,16.7-9.8,21.9s-15.6,7.8-27.4,7.8h-18.5v17.6h19.3
						c10.4,0,18.7,2.2,24.1,6.3c5.6,4.1,8.5,10.2,8.5,18.2c0,8-2.8,14.3-8.7,18.7c-5.6,4.3-13.9,6.5-24.8,6.5
						c-5.9,0-12.2-0.7-18.9-2c-6.7-1.3-14.1-3.3-22.2-5.9v19.1c8.3,2.2,15.9,3.9,22.8,5c6.9,1.1,13.9,1.7,20,1.7
						c16.3,0,29.1-3.7,38.7-11.1c9.6-7.4,14.1-17.4,14.1-30c0-8.7-2.6-16.3-7.6-22.2S-512.3-844.5-521.7-846.8z"/>
				</g>
			</g>
		</g>
	</g>
</g>
<g>
	<g>
		<defs>
			<rect id="SVGID_213_" x="-794.5" y="-174.3" width="2345.4" height="1563.6"/>
		</defs>
		<clipPath id="SVGID_214_">
			<use xlink:href="#SVGID_213_"  style="overflow:visible;"/>
		</clipPath>
		<g class="st106">
			<g transform="translate(619.700376 234.745214)scale(0.12 -0.12)">
				<g>
					<path d="M-528.8-821.4h74.7v-18h-100.5v18c8,8.5,19.1,19.8,33.2,33.9c14.1,14.1,22.8,23.2,26.5,27.4
						c6.9,7.6,11.7,14.1,14.3,19.5c2.8,5.4,4.1,10.6,4.1,15.6c0,8.5-3,15.2-8.9,20.6c-5.9,5.2-13.7,8-23,8c-6.7,0-13.9-1.1-21.3-3.5
						c-7.4-2.4-15.4-5.9-23.9-10.6v21.7c8.7,3.5,16.7,6.1,24.1,7.8c7.6,1.7,14.3,2.6,20.6,2.6c16.5,0,29.5-4.1,39.3-12.4
						c9.8-8.3,14.6-19.1,14.6-32.8c0-6.5-1.3-12.6-3.7-18.5c-2.4-5.9-6.9-12.6-13.2-20.6c-1.7-2-7.4-8-16.9-17.8
						C-498.1-790.2-511.6-803.9-528.8-821.4z"/>
				</g>
				<g>
					<path d="M-360.7-751.7c-9.6,0-17.2-3.3-22.8-9.8s-8.5-15.6-8.5-26.9s2.8-20.4,8.5-26.9c5.6-6.5,13.2-10,22.8-10
						c9.6,0,17.2,3.3,22.8,10c5.6,6.7,8.5,15.6,8.5,26.9c0,11.5-2.8,20.4-8.5,26.9C-343.3-755-350.9-751.7-360.7-751.7z
						 M-318.1-684.6v-19.5c-5.4,2.6-10.9,4.6-16.3,5.9c-5.4,1.3-10.9,2-16.3,2c-14.1,0-25-4.8-32.4-14.3s-11.7-23.9-12.8-43.2
						c4.1,6.1,9.3,10.9,15.6,14.1c6.3,3.3,13.2,5,20.8,5c15.9,0,28.4-4.8,37.8-14.6c9.1-9.6,13.9-22.8,13.9-39.3
						c0-16.3-4.8-29.3-14.3-39.1s-22.4-14.8-38.4-14.8c-18.2,0-32.4,6.9-41.9,21.1c-9.8,14.1-14.6,34.3-14.6,61
						c0,25,5.9,45,17.8,59.9c11.9,15,27.8,22.4,47.8,22.4c5.4,0,10.9-0.4,16.3-1.5C-329.8-680.9-324-682.5-318.1-684.6z"/>
				</g>
			</g>
		</g>
	</g>
</g>
<g>
	<g>
		<defs>
			<rect id="SVGID_215_" x="-794.5" y="-174.3" width="2345.4" height="1563.6"/>
		</defs>
		<clipPath id="SVGID_216_">
			<use xlink:href="#SVGID_215_"  style="overflow:visible;"/>
		</clipPath>
		<g class="st107">
			<g transform="translate(932.361197 178.127551)scale(0.12 -0.12)">
				<g>
					<path d="M-437.9-1646.3h74.7v-18h-100.5v18c8,8.5,19.1,19.8,33.2,33.9c14.1,14.1,22.8,23.2,26.5,27.4
						c6.9,7.6,11.7,14.1,14.3,19.5c2.8,5.4,4.1,10.6,4.1,15.6c0,8.5-3,15.2-8.9,20.6c-5.9,5.2-13.7,8-23,8c-6.7,0-13.9-1.1-21.3-3.5
						c-7.4-2.4-15.4-5.9-23.9-10.6v21.7c8.7,3.5,16.7,6.1,24.1,7.8c7.6,1.7,14.3,2.6,20.6,2.6c16.5,0,29.5-4.1,39.3-12.4
						c9.8-8.3,14.5-19.1,14.5-32.8c0-6.5-1.3-12.6-3.7-18.5c-2.4-5.9-6.9-12.6-13.2-20.6c-1.7-2-7.4-8-16.9-17.8
						C-407.3-1615.1-420.6-1628.8-437.9-1646.3z"/>
				</g>
				<g>
					<path d="M-318-1506.1h84v-18h-64.5v-38.9c3,1.1,6.3,2,9.3,2.4c3,0.4,6.3,0.9,9.3,0.9c17.6,0,31.7-4.8,41.9-14.6
						c10.4-9.8,15.4-22.8,15.4-39.3c0-16.9-5.2-30.2-15.9-39.7c-10.6-9.3-25.6-14.1-45-14.1c-6.7,0-13.5,0.7-20.4,1.7
						c-6.9,1.1-13.9,2.8-21.3,5v21.5c6.3-3.5,13-6.1,19.8-7.8c6.7-1.7,13.9-2.6,21.5-2.6c12.2,0,21.9,3.3,29.1,9.6
						c7.2,6.5,10.6,15.2,10.6,26.3c0,11.1-3.5,19.8-10.6,26.1c-7.2,6.5-16.7,9.8-29.1,9.8c-5.6,0-11.5-0.7-17.2-2
						c-5.6-1.3-11.5-3.3-17.4-5.9v79.7H-318z"/>
				</g>
			</g>
		</g>
	</g>
</g>
<g>
	<g>
		<defs>
			<rect id="SVGID_217_" x="-794.5" y="-174.3" width="2345.4" height="1563.6"/>
		</defs>
		<clipPath id="SVGID_218_">
			<use xlink:href="#SVGID_217_"  style="overflow:visible;"/>
		</clipPath>
		<g class="st108">
			<g transform="translate(550.056965 245.942238)scale(0.12 -0.12)">
				<g>
					<path d="M-1223.5-930.8h35V-810l-38-7.6v19.5l37.8,7.6h21.5v-140.3h35v-18h-91.2C-1223.5-948.8-1223.5-930.8-1223.5-930.8z"/>
				</g>
				<g>
					<path d="M-1024.2-863.5c10.2-2.2,18.2-6.7,23.9-13.7c5.9-6.9,8.7-15.4,8.7-25.6c0-15.6-5.4-27.8-16.1-36.3
						c-10.6-8.5-26.1-12.8-45.8-12.8c-6.7,0-13.5,0.7-20.4,2c-7.2,1.3-14.3,3.3-21.9,5.9v20.6c5.9-3.5,12.4-6.1,19.5-7.8
						c7.2-1.7,14.6-2.6,22.2-2.6c13.5,0,23.7,2.6,30.6,8c6.9,5.2,10.6,13,10.6,23c0,9.3-3.3,16.7-9.8,21.9
						c-6.5,5.2-15.6,7.8-27.4,7.8h-18.5v17.6h19.3c10.4,0,18.7,2.2,24.1,6.3c5.6,4.1,8.5,10.2,8.5,18.2c0,8-2.8,14.3-8.7,18.7
						c-5.6,4.3-13.9,6.5-24.8,6.5c-5.9,0-12.2-0.7-18.9-2c-6.7-1.3-14.1-3.3-22.2-5.9v19.1c8.3,2.2,15.9,3.9,22.8,5
						c7.2,1.1,13.9,1.7,20,1.7c16.3,0,29.1-3.7,38.7-11.1c9.6-7.4,14.1-17.4,14.1-30c0-8.7-2.6-16.3-7.6-22.2
						S-1014.8-861.1-1024.2-863.5z"/>
				</g>
			</g>
		</g>
	</g>
</g>
<g>
	<g>
		<defs>
			<rect id="SVGID_219_" x="-794.5" y="-174.3" width="2345.4" height="1563.6"/>
		</defs>
		<clipPath id="SVGID_220_">
			<use xlink:href="#SVGID_219_"  style="overflow:visible;"/>
		</clipPath>
		<g class="st109">
			<g transform="translate(554.261729 223.902521)scale(0.12 -0.12)">
				<g>
					<path d="M-1167.7-715.6h74.7v-18h-100.5v18c8,8.5,19.1,19.8,33.2,33.9c14.1,14.1,22.8,23.2,26.5,27.4
						c6.9,7.6,11.7,14.1,14.3,19.5c2.8,5.4,4.1,10.6,4.1,15.6c0,8.5-3,15.2-8.9,20.6c-5.9,5.2-13.7,8-23,8c-6.7,0-13.9-1.1-21.3-3.5
						c-7.4-2.4-15.4-5.9-23.9-10.6v21.7c8.7,3.5,16.7,6.1,24.1,7.8c7.6,1.7,14.3,2.6,20.6,2.6c16.5,0,29.5-4.1,39.3-12.4
						c9.8-8.3,14.6-19.1,14.6-32.8c0-6.5-1.3-12.6-3.7-18.5s-6.9-12.6-13.2-20.6c-1.7-2-7.4-8-16.9-17.8
						C-1137.1-684.3-1150.5-698-1167.7-715.6z"/>
				</g>
				<g>
					<path d="M-1029.6-715.6h74.7v-18h-100.3v18c8,8.5,19.1,19.8,33.2,33.9c14.1,14.1,22.8,23.2,26.5,27.4
						c6.9,7.6,11.7,14.1,14.3,19.5c2.8,5.4,4.1,10.6,4.1,15.6c0,8.5-3,15.2-8.9,20.6c-5.9,5.2-13.7,8-23,8c-6.7,0-13.9-1.1-21.3-3.5
						c-7.4-2.4-15.4-5.9-23.9-10.6v21.7c8.7,3.5,16.7,6.1,24.1,7.8c7.6,1.7,14.3,2.6,20.6,2.6c16.5,0,29.5-4.1,39.3-12.4
						c9.8-8.3,14.6-19.1,14.6-32.8c0-6.5-1.3-12.6-3.7-18.5s-6.9-12.6-13.2-20.6c-1.7-2-7.4-8-16.9-17.8
						C-999-684.3-1012.2-698-1029.6-715.6z"/>
				</g>
			</g>
		</g>
	</g>
</g>
<g>
	<g>
		<defs>
			<rect id="SVGID_221_" x="-794.5" y="-174.3" width="2345.4" height="1563.6"/>
		</defs>
		<clipPath id="SVGID_222_">
			<use xlink:href="#SVGID_221_"  style="overflow:visible;"/>
		</clipPath>
		<g class="st110">
			<g transform="translate(900.115214 80.146192)scale(0.12 -0.12)">
				<g>
					<path d="M-706.3-622.1c10.2-2.2,18.2-6.7,23.9-13.7c5.9-6.9,8.7-15.4,8.7-25.6c0-15.6-5.4-27.8-16.1-36.3
						c-10.6-8.5-26.1-12.8-45.8-12.8c-6.7,0-13.5,0.7-20.4,2c-6.9,1.3-14.3,3.3-21.7,5.9v20.6c5.9-3.5,12.4-6.1,19.5-7.8
						c7.2-1.7,14.5-2.6,22.2-2.6c13.5,0,23.7,2.6,30.6,8s10.6,13,10.6,23c0,9.3-3.3,16.7-9.8,21.9c-6.5,5.2-15.6,7.8-27.4,7.8h-18.5
						v17.6h19.3c10.4,0,18.7,2.2,24.1,6.3c5.4,4.1,8.5,10.2,8.5,18.2s-2.8,14.3-8.7,18.7c-5.6,4.3-13.9,6.5-24.8,6.5
						c-5.9,0-12.2-0.7-18.9-2c-6.7-1.3-14.1-3.3-22.2-5.9v19.1c8.3,2.2,15.9,3.9,22.8,5c7.2,1.1,13.9,1.7,20,1.7
						c16.3,0,29.1-3.7,38.7-11.1c9.6-7.4,14.1-17.4,14.1-30c0-8.7-2.6-16.3-7.6-22.2C-690-615.4-697-620-706.3-622.1z"/>
				</g>
				<g>
					<path d="M-629.2-689.7h35v120.7l-38-7.6v19.5l37.8,7.6h21.5v-140.3h35v-18h-91.2V-689.7z"/>
				</g>
			</g>
		</g>
	</g>
</g>
<g>
	<g>
		<defs>
			<rect id="SVGID_223_" x="-794.5" y="-174.3" width="2345.4" height="1563.6"/>
		</defs>
		<clipPath id="SVGID_224_">
			<use xlink:href="#SVGID_223_"  style="overflow:visible;"/>
		</clipPath>
		<g class="st111">
			<g transform="translate(660.929169 193.107034)scale(0.12 -0.12)">
				<g>
					<path d="M-141-414.9h35v120.7l-38-7.6v19.5l37.8,7.6h21.5v-140.3h35v-18H-141C-141-432.9-141-414.9-141-414.9z"/>
				</g>
				<g>
					<path d="M41.9-345.2c-9.6,0-17.2-3.3-22.8-9.8c-5.6-6.5-8.5-15.6-8.5-26.9c0-11.3,2.8-20.4,8.5-26.9c5.6-6.5,13.2-10,22.8-10
						s17.2,3.3,22.8,10c5.6,6.7,8.5,15.6,8.5,26.9c0,11.5-2.8,20.4-8.5,26.9C59.2-348.4,51.6-345.2,41.9-345.2z M84.4-278.1v-19.5
						c-5.4,2.6-10.9,4.6-16.3,5.9c-5.4,1.3-10.9,2-16.3,2c-14.1,0-25-4.8-32.4-14.3c-7.4-9.6-11.7-23.9-12.8-43.2
						c4.1,6.1,9.3,10.9,15.6,14.1c6.3,3.3,13.2,5,20.8,5c15.9,0,28.4-4.8,37.8-14.6c9.1-9.6,13.9-22.8,13.9-39.3
						c0-16.3-4.8-29.3-14.3-39.1C71-431,58.2-436,42.1-436c-18.2,0-32.4,6.9-41.9,21.1c-9.8,14.1-14.6,34.3-14.6,61
						c0,25,5.9,45,17.8,59.9c11.9,15,27.8,22.4,47.8,22.4c5.4,0,10.9-0.4,16.3-1.5C72.7-274.4,78.6-275.9,84.4-278.1z"/>
				</g>
			</g>
		</g>
	</g>
</g>
<g>
	<g>
		<defs>
			<rect id="SVGID_225_" x="-794.5" y="-174.3" width="2345.4" height="1563.6"/>
		</defs>
		<clipPath id="SVGID_226_">
			<use xlink:href="#SVGID_225_"  style="overflow:visible;"/>
		</clipPath>
		<g class="st112">
			<g transform="translate(614.855245 280.496817)scale(0.12 -0.12)">
				<g>
					<path d="M-576.1-1268.2h74.7v-18h-100.5v18c8,8.5,19.1,19.8,33.2,33.9c14.1,14.1,22.8,23.2,26.5,27.4
						c6.9,7.6,11.7,14.1,14.3,19.5c2.8,5.4,4.1,10.6,4.1,15.6c0,8.5-3,15.2-8.9,20.6c-5.9,5.2-13.7,8-23,8c-6.7,0-13.9-1.1-21.3-3.5
						c-7.4-2.4-15.4-5.9-23.9-10.6v21.7c8.7,3.5,16.7,6.1,24.1,7.8c7.6,1.7,14.3,2.6,20.6,2.6c16.5,0,29.5-4.1,39.3-12.4
						c9.8-8.3,14.6-19.1,14.6-32.8c0-6.5-1.3-12.6-3.7-18.5c-2.4-5.9-6.9-12.6-13.2-20.6c-1.7-2-7.4-8-16.9-17.8
						C-545.4-1236.9-558.9-1250.6-576.1-1268.2z"/>
				</g>
				<g>
					<path d="M-410.6-1211c-10.2,0-18.2-2.8-24.1-8.3c-5.9-5.4-8.7-13-8.7-22.4c0-9.6,2.8-16.9,8.7-22.6c5.9-5.4,13.9-8.3,24.1-8.3
						c10.2,0,18.2,2.8,24.1,8.3c5.9,5.4,8.9,13,8.9,22.4c0,9.6-2.8,16.9-8.7,22.4C-392.3-1213.6-400.4-1211-410.6-1211z
						 M-432.1-1201.9c-9.1,2.2-16.3,6.5-21.5,12.8c-5.2,6.3-7.6,13.9-7.6,23c0,12.6,4.6,22.6,13.5,30c9.1,7.4,21.3,11.1,37.1,11.1
						s28.2-3.7,37.1-11.1c8.9-7.4,13.5-17.4,13.5-30c0-9.1-2.6-16.7-7.6-23c-5.2-6.3-12.2-10.6-21.3-12.8
						c10.4-2.4,18.2-7.2,24.1-14.1s8.7-15.6,8.7-25.6c0-15.4-4.8-27.1-14.1-35.4c-9.3-8.3-22.8-12.4-40.2-12.4
						c-17.4,0-30.8,4.1-40.2,12.4c-9.3,8.3-14.1,20-14.1,35.4c0,10,2.8,18.7,8.7,25.6C-450.3-1209.1-442.3-1204.3-432.1-1201.9z
						 M-439.9-1168c0-8.3,2.6-14.6,7.6-19.1c5.2-4.6,12.4-6.9,21.5-6.9c9.1,0,16.5,2.4,21.5,6.9c5.2,4.6,7.8,11.1,7.8,19.1
						c0,8.3-2.6,14.6-7.8,19.1c-5.2,4.6-12.4,6.9-21.5,6.9c-9.3,0-16.5-2.4-21.5-6.9C-437.3-1153.5-439.9-1159.8-439.9-1168z"/>
				</g>
			</g>
		</g>
	</g>
</g>
<g>
	<g>
		<defs>
			<rect id="SVGID_227_" x="-794.5" y="-174.3" width="2345.4" height="1563.6"/>
		</defs>
		<clipPath id="SVGID_228_">
			<use xlink:href="#SVGID_227_"  style="overflow:visible;"/>
		</clipPath>
		<g class="st113">
			<g transform="translate(678.12135 246.972901)scale(0.12 -0.12)">
				<g>
					<path d="M88.1-873.5c10.2-2.2,18.2-6.7,23.9-13.7c5.9-6.9,8.7-15.4,8.7-25.6c0-15.6-5.4-27.8-16.1-36.3s-26.1-12.8-45.8-12.8
						c-6.7,0-13.5,0.7-20.4,2s-14.3,3.3-21.9,5.9v20.6c5.9-3.5,12.4-6.1,19.5-7.8c7.2-1.7,14.6-2.6,22.2-2.6c13.5,0,23.7,2.6,30.6,8
						s10.6,13,10.6,23c0,9.3-3.3,16.7-9.8,21.9s-15.6,7.8-27.4,7.8H43.8v17.6h19.3c10.4,0,18.7,2.2,24.1,6.3s8.5,10.2,8.5,18.2
						c0,8-2.8,14.3-8.7,18.7c-5.6,4.3-13.9,6.5-24.8,6.5c-5.9,0-12.2-0.7-18.9-2c-6.7-1.3-14.1-3.3-22.2-5.9v19.1
						c8.3,2.2,15.9,3.9,22.8,5s13.9,1.7,20,1.7c16.3,0,29.1-3.7,38.7-11.1c9.6-7.4,14.1-17.4,14.1-30c0-8.7-2.6-16.3-7.6-22.2
						C104.2-866.8,97.2-871.1,88.1-873.5z"/>
				</g>
				<g>
					<path d="M179.8-940.8h74.7v-18H154.1v18c8,8.5,19.1,19.8,33.2,33.9c14.1,14.1,22.8,23.2,26.5,27.4c6.9,7.6,11.7,14.1,14.3,19.5
						c2.8,5.4,4.1,10.6,4.1,15.6c0,8.5-3,15.2-8.9,20.6c-5.9,5.2-13.7,8-23,8c-6.7,0-13.9-1.1-21.3-3.5c-7.4-2.4-15.4-5.9-23.9-10.6
						v21.7c8.7,3.5,16.7,6.1,24.1,7.8c7.6,1.7,14.3,2.6,20.6,2.6c16.5,0,29.5-4.1,39.3-12.4c9.8-8.3,14.6-19.1,14.6-32.8
						c0-6.5-1.3-12.6-3.7-18.5c-2.4-5.9-6.9-12.6-13.2-20.6c-1.7-2-7.4-8-16.9-17.8C210.4-909.6,197.1-923.2,179.8-940.8z"/>
				</g>
			</g>
		</g>
	</g>
</g>
</svg>
