<?xml version="1.0" encoding="utf-8" standalone="no"?>
<!DOCTYPE svg PUBLIC "-//W3C//DTD SVG 1.1//EN"
  "http://www.w3.org/Graphics/SVG/1.1/DTD/svg11.dtd">
<!-- Created with matplotlib (https://matplotlib.org/) -->
<svg height="720pt" version="1.1" viewBox="0 0 1080 720" width="1080pt" xmlns="http://www.w3.org/2000/svg" xmlns:xlink="http://www.w3.org/1999/xlink">
 <defs>
  <style type="text/css">
*{stroke-linecap:butt;stroke-linejoin:round;}
  </style>
 </defs>
 <g id="figure_1">
  <g id="patch_1">
   <path d="M 0 720 
L 1080 720 
L 1080 0 
L 0 0 
z
" style="fill:#ffffff;"/>
  </g>
  <g id="axes_1">
   <g id="LineCollection_1">
    <path clip-path="url(#p9010f8549b)" d="M 686.508821 149.207996 
L 722.37669 130.449579 
" style="fill:none;stroke:#000000;"/>
    <path clip-path="url(#p9010f8549b)" d="M 686.508821 149.207996 
L 627.207925 174.28743 
" style="fill:none;stroke:#000000;"/>
    <path clip-path="url(#p9010f8549b)" d="M 686.508821 149.207996 
L 734.318861 163.542938 
" style="fill:none;stroke:#000000;"/>
    <path clip-path="url(#p9010f8549b)" d="M 722.37669 130.449579 
L 694.563955 168.091909 
" style="fill:none;stroke:#000000;"/>
    <path clip-path="url(#p9010f8549b)" d="M 627.207925 174.28743 
L 579.765988 145.256328 
" style="fill:none;stroke:#000000;"/>
    <path clip-path="url(#p9010f8549b)" d="M 627.207925 174.28743 
L 581.826309 167.233969 
" style="fill:none;stroke:#000000;"/>
    <path clip-path="url(#p9010f8549b)" d="M 627.207925 174.28743 
L 586.322427 189.189756 
" style="fill:none;stroke:#000000;"/>
    <path clip-path="url(#p9010f8549b)" d="M 627.207925 174.28743 
L 590.294793 207.798588 
" style="fill:none;stroke:#000000;"/>
    <path clip-path="url(#p9010f8549b)" d="M 627.207925 174.28743 
L 694.563955 168.091909 
" style="fill:none;stroke:#000000;"/>
    <path clip-path="url(#p9010f8549b)" d="M 734.318861 163.542938 
L 694.563955 168.091909 
" style="fill:none;stroke:#000000;"/>
    <path clip-path="url(#p9010f8549b)" d="M 99.329717 593.849971 
L 53.130876 610.039914 
" style="fill:none;stroke:#000000;"/>
    <path clip-path="url(#p9010f8549b)" d="M 208.872079 80.761666 
L 209.087283 37.588466 
" style="fill:none;stroke:#000000;"/>
    <path clip-path="url(#p9010f8549b)" d="M 208.872079 80.761666 
L 165.68256 97.993757 
" style="fill:none;stroke:#000000;"/>
    <path clip-path="url(#p9010f8549b)" d="M 208.872079 80.761666 
L 163.529434 74.485273 
" style="fill:none;stroke:#000000;"/>
    <path clip-path="url(#p9010f8549b)" d="M 208.872079 80.761666 
L 194.592797 116.266779 
" style="fill:none;stroke:#000000;"/>
    <path clip-path="url(#p9010f8549b)" d="M 208.872079 80.761666 
L 254.293887 65.245576 
" style="fill:none;stroke:#000000;"/>
    <path clip-path="url(#p9010f8549b)" d="M 165.68256 97.993757 
L 163.529434 74.485273 
" style="fill:none;stroke:#000000;"/>
    <path clip-path="url(#p9010f8549b)" d="M 981.795542 586.534773 
L 1026.869124 571.300541 
" style="fill:none;stroke:#000000;"/>
    <path clip-path="url(#p9010f8549b)" d="M 981.795542 586.534773 
L 952.665165 608.037711 
" style="fill:none;stroke:#000000;"/>
    <path clip-path="url(#p9010f8549b)" d="M 981.795542 586.534773 
L 989.725658 619.935025 
" style="fill:none;stroke:#000000;"/>
    <path clip-path="url(#p9010f8549b)" d="M 952.665165 608.037711 
L 989.725658 619.935025 
" style="fill:none;stroke:#000000;"/>
    <path clip-path="url(#p9010f8549b)" d="M 579.765988 145.256328 
L 553.497031 182.13986 
" style="fill:none;stroke:#000000;"/>
    <path clip-path="url(#p9010f8549b)" d="M 553.497031 182.13986 
L 581.826309 167.233969 
" style="fill:none;stroke:#000000;"/>
    <path clip-path="url(#p9010f8549b)" d="M 553.497031 182.13986 
L 586.322427 189.189756 
" style="fill:none;stroke:#000000;"/>
    <path clip-path="url(#p9010f8549b)" d="M 553.497031 182.13986 
L 590.294793 207.798588 
" style="fill:none;stroke:#000000;"/>
    <path clip-path="url(#p9010f8549b)" d="M 581.826309 167.233969 
L 586.322427 189.189756 
" style="fill:none;stroke:#000000;"/>
    <path clip-path="url(#p9010f8549b)" d="M 586.322427 189.189756 
L 590.294793 207.798588 
" style="fill:none;stroke:#000000;"/>
    <path clip-path="url(#p9010f8549b)" d="M 507.908399 678.852894 
L 520.964917 654.023192 
" style="fill:none;stroke:#000000;"/>
    <path clip-path="url(#p9010f8549b)" d="M 507.908399 678.852894 
L 546.442372 650.555236 
" style="fill:none;stroke:#000000;"/>
    <path clip-path="url(#p9010f8549b)" d="M 507.908399 678.852894 
L 477.717092 641.827529 
" style="fill:none;stroke:#000000;"/>
    <path clip-path="url(#p9010f8549b)" d="M 520.964917 654.023192 
L 536.452377 612.790225 
" style="fill:none;stroke:#000000;"/>
    <path clip-path="url(#p9010f8549b)" d="M 520.964917 654.023192 
L 512.797122 618.169625 
" style="fill:none;stroke:#000000;"/>
    <path clip-path="url(#p9010f8549b)" d="M 546.442372 650.555236 
L 536.452377 612.790225 
" style="fill:none;stroke:#000000;"/>
    <path clip-path="url(#p9010f8549b)" d="M 546.442372 650.555236 
L 512.797122 618.169625 
" style="fill:none;stroke:#000000;"/>
    <path clip-path="url(#p9010f8549b)" d="M 477.717092 641.827529 
L 512.797122 618.169625 
" style="fill:none;stroke:#000000;"/>
    <path clip-path="url(#p9010f8549b)" d="M 477.717092 641.827529 
L 481.149784 592.275281 
" style="fill:none;stroke:#000000;"/>
    <path clip-path="url(#p9010f8549b)" d="M 484.197709 558.034644 
L 481.149784 592.275281 
" style="fill:none;stroke:#000000;"/>
    <path clip-path="url(#p9010f8549b)" d="M 484.197709 558.034644 
L 538.765485 571.032964 
" style="fill:none;stroke:#000000;"/>
    <path clip-path="url(#p9010f8549b)" d="M 481.149784 592.275281 
L 536.452377 612.790225 
" style="fill:none;stroke:#000000;"/>
    <path clip-path="url(#p9010f8549b)" d="M 481.149784 592.275281 
L 512.797122 618.169625 
" style="fill:none;stroke:#000000;"/>
    <path clip-path="url(#p9010f8549b)" d="M 481.149784 592.275281 
L 509.794552 552.186993 
" style="fill:none;stroke:#000000;"/>
    <path clip-path="url(#p9010f8549b)" d="M 481.149784 592.275281 
L 418.156067 590.333179 
" style="fill:none;stroke:#000000;"/>
    <path clip-path="url(#p9010f8549b)" d="M 538.765485 571.032964 
L 536.452377 612.790225 
" style="fill:none;stroke:#000000;"/>
    <path clip-path="url(#p9010f8549b)" d="M 538.765485 571.032964 
L 512.797122 618.169625 
" style="fill:none;stroke:#000000;"/>
    <path clip-path="url(#p9010f8549b)" d="M 538.765485 571.032964 
L 593.242305 553.934156 
" style="fill:none;stroke:#000000;"/>
    <path clip-path="url(#p9010f8549b)" d="M 538.765485 571.032964 
L 509.794552 552.186993 
" style="fill:none;stroke:#000000;"/>
   </g>
   <g id="PathCollection_1">
    <path clip-path="url(#p9010f8549b)" d="M 686.508821 164.207996 
C 690.486868 164.207996 694.302519 162.627501 697.115423 159.814598 
C 699.928327 157.001694 701.508821 153.186043 701.508821 149.207996 
C 701.508821 145.22995 699.928327 141.414298 697.115423 138.601394 
C 694.302519 135.788491 690.486868 134.207996 686.508821 134.207996 
C 682.530775 134.207996 678.715123 135.788491 675.90222 138.601394 
C 673.089316 141.414298 671.508821 145.22995 671.508821 149.207996 
C 671.508821 153.186043 673.089316 157.001694 675.90222 159.814598 
C 678.715123 162.627501 682.530775 164.207996 686.508821 164.207996 
z
" style="fill:#ff0000;stroke:#ff0000;"/>
    <path clip-path="url(#p9010f8549b)" d="M 722.37669 142.697028 
C 725.624752 142.697028 728.740218 141.406559 731.036944 139.109833 
C 733.333671 136.813107 734.624139 133.69764 734.624139 130.449579 
C 734.624139 127.201517 733.333671 124.086051 731.036944 121.789325 
C 728.740218 119.492599 725.624752 118.20213 722.37669 118.20213 
C 719.128629 118.20213 716.013163 119.492599 713.716436 121.789325 
C 711.41971 124.086051 710.129242 127.201517 710.129242 130.449579 
C 710.129242 133.69764 711.41971 136.813107 713.716436 139.109833 
C 716.013163 141.406559 719.128629 142.697028 722.37669 142.697028 
z
" style="fill:#ff0000;stroke:#ff0000;"/>
    <path clip-path="url(#p9010f8549b)" d="M 627.207925 195.500633 
C 632.833733 195.500633 638.229879 193.265476 642.207925 189.28743 
C 646.185972 185.309383 648.421129 179.913237 648.421129 174.28743 
C 648.421129 168.661622 646.185972 163.265476 642.207925 159.28743 
C 638.229879 155.309383 632.833733 153.074226 627.207925 153.074226 
C 621.582118 153.074226 616.185972 155.309383 612.207925 159.28743 
C 608.229879 163.265476 605.994722 168.661622 605.994722 174.28743 
C 605.994722 179.913237 608.229879 185.309383 612.207925 189.28743 
C 616.185972 193.265476 621.582118 195.500633 627.207925 195.500633 
z
" style="fill:#ff0000;stroke:#ff0000;"/>
    <path clip-path="url(#p9010f8549b)" d="M 734.318861 175.790387 
C 737.566922 175.790387 740.682389 174.499919 742.979115 172.203192 
C 745.275841 169.906466 746.56631 166.791 746.56631 163.542938 
C 746.56631 160.294877 745.275841 157.179411 742.979115 154.882684 
C 740.682389 152.585958 737.566922 151.29549 734.318861 151.29549 
C 731.070799 151.29549 727.955333 152.585958 725.658607 154.882684 
C 723.361881 157.179411 722.071412 160.294877 722.071412 163.542938 
C 722.071412 166.791 723.361881 169.906466 725.658607 172.203192 
C 727.955333 174.499919 731.070799 175.790387 734.318861 175.790387 
z
" style="fill:#ff0000;stroke:#ff0000;"/>
    <path clip-path="url(#p9010f8549b)" d="M 99.329717 602.510225 
C 101.626443 602.510225 103.829411 601.597726 105.453441 599.973696 
C 107.077472 598.349665 107.989971 596.146697 107.989971 593.849971 
C 107.989971 591.553245 107.077472 589.350278 105.453441 587.726247 
C 103.829411 586.102216 101.626443 585.189717 99.329717 585.189717 
C 97.032991 585.189717 94.830023 586.102216 93.205993 587.726247 
C 91.581962 589.350278 90.669463 591.553245 90.669463 593.849971 
C 90.669463 596.146697 91.581962 598.349665 93.205993 599.973696 
C 94.830023 601.597726 97.032991 602.510225 99.329717 602.510225 
z
" style="fill:#ff00ff;stroke:#ff00ff;"/>
    <path clip-path="url(#p9010f8549b)" d="M 53.130876 618.700168 
C 55.427603 618.700168 57.63057 617.787669 59.254601 616.163639 
C 60.878631 614.539608 61.79113 612.336641 61.79113 610.039914 
C 61.79113 607.743188 60.878631 605.540221 59.254601 603.91619 
C 57.63057 602.292159 55.427603 601.37966 53.130876 601.37966 
C 50.83415 601.37966 48.631183 602.292159 47.007152 603.91619 
C 45.383121 605.540221 44.470622 607.743188 44.470622 610.039914 
C 44.470622 612.336641 45.383121 614.539608 47.007152 616.163639 
C 48.631183 617.787669 50.83415 618.700168 53.130876 618.700168 
z
" style="fill:#ff00ff;stroke:#ff00ff;"/>
    <path clip-path="url(#p9010f8549b)" d="M 208.872079 100.126583 
C 214.007715 100.126583 218.9337 98.086173 222.565143 94.45473 
C 226.196586 90.823287 228.236996 85.897302 228.236996 80.761666 
C 228.236996 75.62603 226.196586 70.700045 222.565143 67.068602 
C 218.9337 63.437159 214.007715 61.396749 208.872079 61.396749 
C 203.736443 61.396749 198.810458 63.437159 195.179015 67.068602 
C 191.547572 70.700045 189.507163 75.62603 189.507163 80.761666 
C 189.507163 85.897302 191.547572 90.823287 195.179015 94.45473 
C 198.810458 98.086173 203.736443 100.126583 208.872079 100.126583 
z
" style="fill:#008000;stroke:#008000;"/>
    <path clip-path="url(#p9010f8549b)" d="M 209.087283 46.24872 
C 211.384009 46.24872 213.586976 45.336221 215.211007 43.71219 
C 216.835038 42.088159 217.747537 39.885192 217.747537 37.588466 
C 217.747537 35.291739 216.835038 33.088772 215.211007 31.464741 
C 213.586976 29.840711 211.384009 28.928212 209.087283 28.928212 
C 206.790556 28.928212 204.587589 29.840711 202.963558 31.464741 
C 201.339528 33.088772 200.427029 35.291739 200.427029 37.588466 
C 200.427029 39.885192 201.339528 42.088159 202.963558 43.71219 
C 204.587589 45.336221 206.790556 46.24872 209.087283 46.24872 
z
" style="fill:#008000;stroke:#008000;"/>
    <path clip-path="url(#p9010f8549b)" d="M 165.68256 110.241206 
C 168.930622 110.241206 172.046088 108.950738 174.342815 106.654012 
C 176.639541 104.357285 177.930009 101.241819 177.930009 97.993757 
C 177.930009 94.745696 176.639541 91.63023 174.342815 89.333503 
C 172.046088 87.036777 168.930622 85.746309 165.68256 85.746309 
C 162.434499 85.746309 159.319033 87.036777 157.022306 89.333503 
C 154.72558 91.63023 153.435112 94.745696 153.435112 97.993757 
C 153.435112 101.241819 154.72558 104.357285 157.022306 106.654012 
C 159.319033 108.950738 162.434499 110.241206 165.68256 110.241206 
z
" style="fill:#008000;stroke:#008000;"/>
    <path clip-path="url(#p9010f8549b)" d="M 163.529434 86.732722 
C 166.777495 86.732722 169.892962 85.442253 172.189688 83.145527 
C 174.486414 80.848801 175.776883 77.733334 175.776883 74.485273 
C 175.776883 71.237212 174.486414 68.121745 172.189688 65.825019 
C 169.892962 63.528293 166.777495 62.237824 163.529434 62.237824 
C 160.281372 62.237824 157.165906 63.528293 154.86918 65.825019 
C 152.572454 68.121745 151.281985 71.237212 151.281985 74.485273 
C 151.281985 77.733334 152.572454 80.848801 154.86918 83.145527 
C 157.165906 85.442253 160.281372 86.732722 163.529434 86.732722 
z
" style="fill:#008000;stroke:#008000;"/>
    <path clip-path="url(#p9010f8549b)" d="M 194.592797 124.927033 
C 196.889523 124.927033 199.09249 124.014534 200.716521 122.390503 
C 202.340552 120.766472 203.253051 118.563505 203.253051 116.266779 
C 203.253051 113.970052 202.340552 111.767085 200.716521 110.143054 
C 199.09249 108.519024 196.889523 107.606525 194.592797 107.606525 
C 192.29607 107.606525 190.093103 108.519024 188.469072 110.143054 
C 186.845042 111.767085 185.932543 113.970052 185.932543 116.266779 
C 185.932543 118.563505 186.845042 120.766472 188.469072 122.390503 
C 190.093103 124.014534 192.29607 124.927033 194.592797 124.927033 
z
" style="fill:#008000;stroke:#008000;"/>
    <path clip-path="url(#p9010f8549b)" d="M 254.293887 73.90583 
C 256.590613 73.90583 258.79358 72.993331 260.417611 71.369301 
C 262.041642 69.74527 262.954141 67.542303 262.954141 65.245576 
C 262.954141 62.94885 262.041642 60.745883 260.417611 59.121852 
C 258.79358 57.497821 256.590613 56.585322 254.293887 56.585322 
C 251.99716 56.585322 249.794193 57.497821 248.170162 59.121852 
C 246.546132 60.745883 245.633633 62.94885 245.633633 65.245576 
C 245.633633 67.542303 246.546132 69.74527 248.170162 71.369301 
C 249.794193 72.993331 251.99716 73.90583 254.293887 73.90583 
z
" style="fill:#008000;stroke:#008000;"/>
    <path clip-path="url(#p9010f8549b)" d="M 981.795542 601.534773 
C 985.773589 601.534773 989.589241 599.954279 992.402144 597.141375 
C 995.215048 594.328471 996.795542 590.51282 996.795542 586.534773 
C 996.795542 582.556727 995.215048 578.741075 992.402144 575.928171 
C 989.589241 573.115268 985.773589 571.534773 981.795542 571.534773 
C 977.817496 571.534773 974.001844 573.115268 971.188941 575.928171 
C 968.376037 578.741075 966.795542 582.556727 966.795542 586.534773 
C 966.795542 590.51282 968.376037 594.328471 971.188941 597.141375 
C 974.001844 599.954279 977.817496 601.534773 981.795542 601.534773 
z
" style="fill:#0000ff;stroke:#0000ff;"/>
    <path clip-path="url(#p9010f8549b)" d="M 1026.869124 579.960795 
C 1029.16585 579.960795 1031.368817 579.048296 1032.992848 577.424265 
C 1034.616879 575.800234 1035.529378 573.597267 1035.529378 571.300541 
C 1035.529378 569.003814 1034.616879 566.800847 1032.992848 565.176816 
C 1031.368817 563.552786 1029.16585 562.640287 1026.869124 562.640287 
C 1024.572397 562.640287 1022.36943 563.552786 1020.745399 565.176816 
C 1019.121369 566.800847 1018.20887 569.003814 1018.20887 571.300541 
C 1018.20887 573.597267 1019.121369 575.800234 1020.745399 577.424265 
C 1022.36943 579.048296 1024.572397 579.960795 1026.869124 579.960795 
z
" style="fill:#0000ff;stroke:#0000ff;"/>
    <path clip-path="url(#p9010f8549b)" d="M 952.665165 620.28516 
C 955.913227 620.28516 959.028693 618.994691 961.325419 616.697965 
C 963.622146 614.401239 964.912614 611.285772 964.912614 608.037711 
C 964.912614 604.78965 963.622146 601.674183 961.325419 599.377457 
C 959.028693 597.080731 955.913227 595.790262 952.665165 595.790262 
C 949.417104 595.790262 946.301638 597.080731 944.004911 599.377457 
C 941.708185 601.674183 940.417717 604.78965 940.417717 608.037711 
C 940.417717 611.285772 941.708185 614.401239 944.004911 616.697965 
C 946.301638 618.994691 949.417104 620.28516 952.665165 620.28516 
z
" style="fill:#0000ff;stroke:#0000ff;"/>
    <path clip-path="url(#p9010f8549b)" d="M 989.725658 632.182473 
C 992.97372 632.182473 996.089186 630.892005 998.385912 628.595279 
C 1000.682639 626.298552 1001.973107 623.183086 1001.973107 619.935025 
C 1001.973107 616.686963 1000.682639 613.571497 998.385912 611.274771 
C 996.089186 608.978044 992.97372 607.687576 989.725658 607.687576 
C 986.477597 607.687576 983.362131 608.978044 981.065404 611.274771 
C 978.768678 613.571497 977.47821 616.686963 977.47821 619.935025 
C 977.47821 623.183086 978.768678 626.298552 981.065404 628.595279 
C 983.362131 630.892005 986.477597 632.182473 989.725658 632.182473 
z
" style="fill:#0000ff;stroke:#0000ff;"/>
    <path clip-path="url(#p9010f8549b)" d="M 579.765988 157.503776 
C 583.014049 157.503776 586.129516 156.213308 588.426242 153.916582 
C 590.722968 151.619856 592.013437 148.504389 592.013437 145.256328 
C 592.013437 142.008266 590.722968 138.8928 588.426242 136.596074 
C 586.129516 134.299348 583.014049 133.008879 579.765988 133.008879 
C 576.517927 133.008879 573.40246 134.299348 571.105734 136.596074 
C 568.809008 138.8928 567.518539 142.008266 567.518539 145.256328 
C 567.518539 148.504389 568.809008 151.619856 571.105734 153.916582 
C 573.40246 156.213308 576.517927 157.503776 579.765988 157.503776 
z
" style="fill:#ff0000;stroke:#ff0000;"/>
    <path clip-path="url(#p9010f8549b)" d="M 553.497031 199.460368 
C 558.090483 199.460368 562.496418 197.63537 565.74448 194.387309 
C 568.992541 191.139247 570.817539 186.733312 570.817539 182.13986 
C 570.817539 177.546408 568.992541 173.140473 565.74448 169.892411 
C 562.496418 166.64435 558.090483 164.819352 553.497031 164.819352 
C 548.903579 164.819352 544.497644 166.64435 541.249582 169.892411 
C 538.001521 173.140473 536.176523 177.546408 536.176523 182.13986 
C 536.176523 186.733312 538.001521 191.139247 541.249582 194.387309 
C 544.497644 197.63537 548.903579 199.460368 553.497031 199.460368 
z
" style="fill:#ff0000;stroke:#ff0000;"/>
    <path clip-path="url(#p9010f8549b)" d="M 581.826309 182.233969 
C 585.804356 182.233969 589.620007 180.653474 592.432911 177.84057 
C 595.245814 175.027667 596.826309 171.212015 596.826309 167.233969 
C 596.826309 163.255922 595.245814 159.440271 592.432911 156.627367 
C 589.620007 153.814463 585.804356 152.233969 581.826309 152.233969 
C 577.848263 152.233969 574.032611 153.814463 571.219707 156.627367 
C 568.406804 159.440271 566.826309 163.255922 566.826309 167.233969 
C 566.826309 171.212015 568.406804 175.027667 571.219707 177.84057 
C 574.032611 180.653474 577.848263 182.233969 581.826309 182.233969 
z
" style="fill:#ff0000;stroke:#ff0000;"/>
    <path clip-path="url(#p9010f8549b)" d="M 586.322427 206.510264 
C 590.915879 206.510264 595.321814 204.685266 598.569876 201.437205 
C 601.817937 198.189143 603.642935 193.783208 603.642935 189.189756 
C 603.642935 184.596303 601.817937 180.190369 598.569876 176.942307 
C 595.321814 173.694246 590.915879 171.869248 586.322427 171.869248 
C 581.728975 171.869248 577.32304 173.694246 574.074978 176.942307 
C 570.826917 180.190369 569.001919 184.596303 569.001919 189.189756 
C 569.001919 193.783208 570.826917 198.189143 574.074978 201.437205 
C 577.32304 204.685266 581.728975 206.510264 586.322427 206.510264 
z
" style="fill:#ff0000;stroke:#ff0000;"/>
    <path clip-path="url(#p9010f8549b)" d="M 507.908399 693.852894 
C 511.886445 693.852894 515.702097 692.2724 518.515 689.459496 
C 521.327904 686.646592 522.908399 682.830941 522.908399 678.852894 
C 522.908399 674.874848 521.327904 671.059196 518.515 668.246292 
C 515.702097 665.433389 511.886445 663.852894 507.908399 663.852894 
C 503.930352 663.852894 500.114701 665.433389 497.301797 668.246292 
C 494.488893 671.059196 492.908399 674.874848 492.908399 678.852894 
C 492.908399 682.830941 494.488893 686.646592 497.301797 689.459496 
C 500.114701 692.2724 503.930352 693.852894 507.908399 693.852894 
z
" style="fill:#ffff00;stroke:#ffff00;"/>
    <path clip-path="url(#p9010f8549b)" d="M 520.964917 669.023192 
C 524.942964 669.023192 528.758615 667.442698 531.571519 664.629794 
C 534.384423 661.816891 535.964917 658.001239 535.964917 654.023192 
C 535.964917 650.045146 534.384423 646.229494 531.571519 643.416591 
C 528.758615 640.603687 524.942964 639.023192 520.964917 639.023192 
C 516.986871 639.023192 513.171219 640.603687 510.358316 643.416591 
C 507.545412 646.229494 505.964917 650.045146 505.964917 654.023192 
C 505.964917 658.001239 507.545412 661.816891 510.358316 664.629794 
C 513.171219 667.442698 516.986871 669.023192 520.964917 669.023192 
z
" style="fill:#ffff00;stroke:#ffff00;"/>
    <path clip-path="url(#p9010f8549b)" d="M 546.442372 665.555236 
C 550.420418 665.555236 554.23607 663.974741 557.048973 661.161837 
C 559.861877 658.348934 561.442372 654.533282 561.442372 650.555236 
C 561.442372 646.577189 559.861877 642.761538 557.048973 639.948634 
C 554.23607 637.13573 550.420418 635.555236 546.442372 635.555236 
C 542.464325 635.555236 538.648674 637.13573 535.83577 639.948634 
C 533.022866 642.761538 531.442372 646.577189 531.442372 650.555236 
C 531.442372 654.533282 533.022866 658.348934 535.83577 661.161837 
C 538.648674 663.974741 542.464325 665.555236 546.442372 665.555236 
z
" style="fill:#ffff00;stroke:#ffff00;"/>
    <path clip-path="url(#p9010f8549b)" d="M 477.717092 656.827529 
C 481.695139 656.827529 485.51079 655.247035 488.323694 652.434131 
C 491.136598 649.621227 492.717092 645.805576 492.717092 641.827529 
C 492.717092 637.849483 491.136598 634.033831 488.323694 631.220928 
C 485.51079 628.408024 481.695139 626.827529 477.717092 626.827529 
C 473.739046 626.827529 469.923394 628.408024 467.110491 631.220928 
C 464.297587 634.033831 462.717092 637.849483 462.717092 641.827529 
C 462.717092 645.805576 464.297587 649.621227 467.110491 652.434131 
C 469.923394 655.247035 473.739046 656.827529 477.717092 656.827529 
z
" style="fill:#ffff00;stroke:#ffff00;"/>
    <path clip-path="url(#p9010f8549b)" d="M 484.197709 570.282092 
C 487.44577 570.282092 490.561237 568.991624 492.857963 566.694898 
C 495.154689 564.398171 496.445158 561.282705 496.445158 558.034644 
C 496.445158 554.786582 495.154689 551.671116 492.857963 549.37439 
C 490.561237 547.077663 487.44577 545.787195 484.197709 545.787195 
C 480.949647 545.787195 477.834181 547.077663 475.537455 549.37439 
C 473.240729 551.671116 471.95026 554.786582 471.95026 558.034644 
C 471.95026 561.282705 473.240729 564.398171 475.537455 566.694898 
C 477.834181 568.991624 480.949647 570.282092 484.197709 570.282092 
z
" style="fill:#ffff00;stroke:#ffff00;"/>
    <path clip-path="url(#p9010f8549b)" d="M 481.149784 613.488484 
C 486.775592 613.488484 492.171738 611.253327 496.149784 607.275281 
C 500.127831 603.297234 502.362988 597.901088 502.362988 592.275281 
C 502.362988 586.649473 500.127831 581.253327 496.149784 577.275281 
C 492.171738 573.297234 486.775592 571.062077 481.149784 571.062077 
C 475.523977 571.062077 470.127831 573.297234 466.149784 577.275281 
C 462.171738 581.253327 459.936581 586.649473 459.936581 592.275281 
C 459.936581 597.901088 462.171738 603.297234 466.149784 607.275281 
C 470.127831 611.253327 475.523977 613.488484 481.149784 613.488484 
z
" style="fill:#ffff00;stroke:#ffff00;"/>
    <path clip-path="url(#p9010f8549b)" d="M 538.765485 590.39788 
C 543.901121 590.39788 548.827106 588.35747 552.458549 584.726027 
C 556.089992 581.094584 558.130401 576.1686 558.130401 571.032964 
C 558.130401 565.897328 556.089992 560.971343 552.458549 557.3399 
C 548.827106 553.708457 543.901121 551.668047 538.765485 551.668047 
C 533.629849 551.668047 528.703864 553.708457 525.072421 557.3399 
C 521.440978 560.971343 519.400568 565.897328 519.400568 571.032964 
C 519.400568 576.1686 521.440978 581.094584 525.072421 584.726027 
C 528.703864 588.35747 533.629849 590.39788 538.765485 590.39788 
z
" style="fill:#ffff00;stroke:#ffff00;"/>
    <path clip-path="url(#p9010f8549b)" d="M 694.563955 183.091909 
C 698.542002 183.091909 702.357653 181.511414 705.170557 178.69851 
C 707.98346 175.885607 709.563955 172.069955 709.563955 168.091909 
C 709.563955 164.113862 707.98346 160.29821 705.170557 157.485307 
C 702.357653 154.672403 698.542002 153.091909 694.563955 153.091909 
C 690.585909 153.091909 686.770257 154.672403 683.957353 157.485307 
C 681.14445 160.29821 679.563955 164.113862 679.563955 168.091909 
C 679.563955 172.069955 681.14445 175.885607 683.957353 178.69851 
C 686.770257 181.511414 690.585909 183.091909 694.563955 183.091909 
z
" style="fill:#ff0000;stroke:#ff0000;"/>
    <path clip-path="url(#p9010f8549b)" d="M 536.452377 630.110733 
C 541.045829 630.110733 545.451764 628.285735 548.699826 625.037674 
C 551.947887 621.789612 553.772885 617.383677 553.772885 612.790225 
C 553.772885 608.196772 551.947887 603.790837 548.699826 600.542776 
C 545.451764 597.294715 541.045829 595.469717 536.452377 595.469717 
C 531.858924 595.469717 527.452989 597.294715 524.204928 600.542776 
C 520.956867 603.790837 519.131869 608.196772 519.131869 612.790225 
C 519.131869 617.383677 520.956867 621.789612 524.204928 625.037674 
C 527.452989 628.285735 531.858924 630.110733 536.452377 630.110733 
z
" style="fill:#ffff00;stroke:#ffff00;"/>
    <path clip-path="url(#p9010f8549b)" d="M 512.797122 637.534542 
C 517.932758 637.534542 522.858743 635.494132 526.490186 631.862689 
C 530.121629 628.231246 532.162038 623.305261 532.162038 618.169625 
C 532.162038 613.033989 530.121629 608.108004 526.490186 604.476561 
C 522.858743 600.845118 517.932758 598.804708 512.797122 598.804708 
C 507.661486 598.804708 502.735501 600.845118 499.104058 604.476561 
C 495.472615 608.108004 493.432205 613.033989 493.432205 618.169625 
C 493.432205 623.305261 495.472615 628.231246 499.104058 631.862689 
C 502.735501 635.494132 507.661486 637.534542 512.797122 637.534542 
z
" style="fill:#ffff00;stroke:#ffff00;"/>
    <path clip-path="url(#p9010f8549b)" d="M 590.294793 222.798588 
C 594.272839 222.798588 598.088491 221.218093 600.901394 218.405189 
C 603.714298 215.592286 605.294793 211.776634 605.294793 207.798588 
C 605.294793 203.820541 603.714298 200.00489 600.901394 197.191986 
C 598.088491 194.379082 594.272839 192.798588 590.294793 192.798588 
C 586.316746 192.798588 582.501095 194.379082 579.688191 197.191986 
C 576.875287 200.00489 575.294793 203.820541 575.294793 207.798588 
C 575.294793 211.776634 576.875287 215.592286 579.688191 218.405189 
C 582.501095 221.218093 586.316746 222.798588 590.294793 222.798588 
z
" style="fill:#ff0000;stroke:#ff0000;"/>
    <path clip-path="url(#p9010f8549b)" d="M 593.242305 562.59441 
C 595.539032 562.59441 597.741999 561.681911 599.36603 560.057881 
C 600.99006 558.43385 601.902559 556.230882 601.902559 553.934156 
C 601.902559 551.63743 600.99006 549.434463 599.36603 547.810432 
C 597.741999 546.186401 595.539032 545.273902 593.242305 545.273902 
C 590.945579 545.273902 588.742612 546.186401 587.118581 547.810432 
C 585.49455 549.434463 584.582051 551.63743 584.582051 553.934156 
C 584.582051 556.230882 585.49455 558.43385 587.118581 560.057881 
C 588.742612 561.681911 590.945579 562.59441 593.242305 562.59441 
z
" style="fill:#ffff00;stroke:#ffff00;"/>
    <path clip-path="url(#p9010f8549b)" d="M 509.794552 564.434441 
C 513.042614 564.434441 516.15808 563.143973 518.454806 560.847247 
C 520.751532 558.55052 522.042001 555.435054 522.042001 552.186993 
C 522.042001 548.938931 520.751532 545.823465 518.454806 543.526739 
C 516.15808 541.230012 513.042614 539.939544 509.794552 539.939544 
C 506.546491 539.939544 503.431024 541.230012 501.134298 543.526739 
C 498.837572 545.823465 497.547103 548.938931 497.547103 552.186993 
C 497.547103 555.435054 498.837572 558.55052 501.134298 560.847247 
C 503.431024 563.143973 506.546491 564.434441 509.794552 564.434441 
z
" style="fill:#ffff00;stroke:#ffff00;"/>
    <path clip-path="url(#p9010f8549b)" d="M 418.156067 598.993433 
C 420.452794 598.993433 422.655761 598.080934 424.279792 596.456903 
C 425.903822 594.832872 426.816321 592.629905 426.816321 590.333179 
C 426.816321 588.036453 425.903822 585.833485 424.279792 584.209454 
C 422.655761 582.585424 420.452794 581.672925 418.156067 581.672925 
C 415.859341 581.672925 413.656374 582.585424 412.032343 584.209454 
C 410.408312 585.833485 409.495813 588.036453 409.495813 590.333179 
C 409.495813 592.629905 410.408312 594.832872 412.032343 596.456903 
C 413.656374 598.080934 415.859341 598.993433 418.156067 598.993433 
z
" style="fill:#ffff00;stroke:#ffff00;"/>
   </g>
   <g id="text_1">
    <g clip-path="url(#p9010f8549b)">
     <!-- 2 -->
     <defs>
      <path d="M 19.1875 8.296875 
L 53.609375 8.296875 
L 53.609375 0 
L 7.328125 0 
L 7.328125 8.296875 
Q 12.9375 14.109375 22.625 23.890625 
Q 32.328125 33.6875 34.8125 36.53125 
Q 39.546875 41.84375 41.421875 45.53125 
Q 43.3125 49.21875 43.3125 52.78125 
Q 43.3125 58.59375 39.234375 62.25 
Q 35.15625 65.921875 28.609375 65.921875 
Q 23.96875 65.921875 18.8125 64.3125 
Q 13.671875 62.703125 7.8125 59.421875 
L 7.8125 69.390625 
Q 13.765625 71.78125 18.9375 73 
Q 24.125 74.21875 28.421875 74.21875 
Q 39.75 74.21875 46.484375 68.546875 
Q 53.21875 62.890625 53.21875 53.421875 
Q 53.21875 48.921875 51.53125 44.890625 
Q 49.859375 40.875 45.40625 35.40625 
Q 44.1875 33.984375 37.640625 27.21875 
Q 31.109375 20.453125 19.1875 8.296875 
z
" id="DejaVuSans-50"/>
     </defs>
     <g transform="translate(682.691321 152.519246)scale(0.12 -0.12)">
      <use xlink:href="#DejaVuSans-50"/>
     </g>
    </g>
   </g>
   <g id="text_2">
    <g clip-path="url(#p9010f8549b)">
     <!-- 12 -->
     <defs>
      <path d="M 12.40625 8.296875 
L 28.515625 8.296875 
L 28.515625 63.921875 
L 10.984375 60.40625 
L 10.984375 69.390625 
L 28.421875 72.90625 
L 38.28125 72.90625 
L 38.28125 8.296875 
L 54.390625 8.296875 
L 54.390625 0 
L 12.40625 0 
z
" id="DejaVuSans-49"/>
     </defs>
     <g transform="translate(714.74169 133.760829)scale(0.12 -0.12)">
      <use xlink:href="#DejaVuSans-49"/>
      <use x="63.623047" xlink:href="#DejaVuSans-50"/>
     </g>
    </g>
   </g>
   <g id="text_3">
    <g clip-path="url(#p9010f8549b)">
     <!-- 17 -->
     <defs>
      <path d="M 8.203125 72.90625 
L 55.078125 72.90625 
L 55.078125 68.703125 
L 28.609375 0 
L 18.3125 0 
L 43.21875 64.59375 
L 8.203125 64.59375 
z
" id="DejaVuSans-55"/>
     </defs>
     <g transform="translate(619.572925 177.59868)scale(0.12 -0.12)">
      <use xlink:href="#DejaVuSans-49"/>
      <use x="63.623047" xlink:href="#DejaVuSans-55"/>
     </g>
    </g>
   </g>
   <g id="text_4">
    <g clip-path="url(#p9010f8549b)">
     <!-- 10 -->
     <defs>
      <path d="M 31.78125 66.40625 
Q 24.171875 66.40625 20.328125 58.90625 
Q 16.5 51.421875 16.5 36.375 
Q 16.5 21.390625 20.328125 13.890625 
Q 24.171875 6.390625 31.78125 6.390625 
Q 39.453125 6.390625 43.28125 13.890625 
Q 47.125 21.390625 47.125 36.375 
Q 47.125 51.421875 43.28125 58.90625 
Q 39.453125 66.40625 31.78125 66.40625 
z
M 31.78125 74.21875 
Q 44.046875 74.21875 50.515625 64.515625 
Q 56.984375 54.828125 56.984375 36.375 
Q 56.984375 17.96875 50.515625 8.265625 
Q 44.046875 -1.421875 31.78125 -1.421875 
Q 19.53125 -1.421875 13.0625 8.265625 
Q 6.59375 17.96875 6.59375 36.375 
Q 6.59375 54.828125 13.0625 64.515625 
Q 19.53125 74.21875 31.78125 74.21875 
z
" id="DejaVuSans-48"/>
     </defs>
     <g transform="translate(726.683861 166.854188)scale(0.12 -0.12)">
      <use xlink:href="#DejaVuSans-49"/>
      <use x="63.623047" xlink:href="#DejaVuSans-48"/>
     </g>
    </g>
   </g>
   <g id="text_5">
    <g clip-path="url(#p9010f8549b)">
     <!-- 1 -->
     <g transform="translate(95.512217 597.161221)scale(0.12 -0.12)">
      <use xlink:href="#DejaVuSans-49"/>
     </g>
    </g>
   </g>
   <g id="text_6">
    <g clip-path="url(#p9010f8549b)">
     <!-- 27 -->
     <g transform="translate(45.495876 613.351164)scale(0.12 -0.12)">
      <use xlink:href="#DejaVuSans-50"/>
      <use x="63.623047" xlink:href="#DejaVuSans-55"/>
     </g>
    </g>
   </g>
   <g id="text_7">
    <g clip-path="url(#p9010f8549b)">
     <!-- 3 -->
     <defs>
      <path d="M 40.578125 39.3125 
Q 47.65625 37.796875 51.625 33 
Q 55.609375 28.21875 55.609375 21.1875 
Q 55.609375 10.40625 48.1875 4.484375 
Q 40.765625 -1.421875 27.09375 -1.421875 
Q 22.515625 -1.421875 17.65625 -0.515625 
Q 12.796875 0.390625 7.625 2.203125 
L 7.625 11.71875 
Q 11.71875 9.328125 16.59375 8.109375 
Q 21.484375 6.890625 26.8125 6.890625 
Q 36.078125 6.890625 40.9375 10.546875 
Q 45.796875 14.203125 45.796875 21.1875 
Q 45.796875 27.640625 41.28125 31.265625 
Q 36.765625 34.90625 28.71875 34.90625 
L 20.21875 34.90625 
L 20.21875 43.015625 
L 29.109375 43.015625 
Q 36.375 43.015625 40.234375 45.921875 
Q 44.09375 48.828125 44.09375 54.296875 
Q 44.09375 59.90625 40.109375 62.90625 
Q 36.140625 65.921875 28.71875 65.921875 
Q 24.65625 65.921875 20.015625 65.03125 
Q 15.375 64.15625 9.8125 62.3125 
L 9.8125 71.09375 
Q 15.4375 72.65625 20.34375 73.4375 
Q 25.25 74.21875 29.59375 74.21875 
Q 40.828125 74.21875 47.359375 69.109375 
Q 53.90625 64.015625 53.90625 55.328125 
Q 53.90625 49.265625 50.4375 45.09375 
Q 46.96875 40.921875 40.578125 39.3125 
z
" id="DejaVuSans-51"/>
     </defs>
     <g transform="translate(205.054579 84.072916)scale(0.12 -0.12)">
      <use xlink:href="#DejaVuSans-51"/>
     </g>
    </g>
   </g>
   <g id="text_8">
    <g clip-path="url(#p9010f8549b)">
     <!-- 24 -->
     <defs>
      <path d="M 37.796875 64.3125 
L 12.890625 25.390625 
L 37.796875 25.390625 
z
M 35.203125 72.90625 
L 47.609375 72.90625 
L 47.609375 25.390625 
L 58.015625 25.390625 
L 58.015625 17.1875 
L 47.609375 17.1875 
L 47.609375 0 
L 37.796875 0 
L 37.796875 17.1875 
L 4.890625 17.1875 
L 4.890625 26.703125 
z
" id="DejaVuSans-52"/>
     </defs>
     <g transform="translate(201.452283 40.899716)scale(0.12 -0.12)">
      <use xlink:href="#DejaVuSans-50"/>
      <use x="63.623047" xlink:href="#DejaVuSans-52"/>
     </g>
    </g>
   </g>
   <g id="text_9">
    <g clip-path="url(#p9010f8549b)">
     <!-- 15 -->
     <defs>
      <path d="M 10.796875 72.90625 
L 49.515625 72.90625 
L 49.515625 64.59375 
L 19.828125 64.59375 
L 19.828125 46.734375 
Q 21.96875 47.46875 24.109375 47.828125 
Q 26.265625 48.1875 28.421875 48.1875 
Q 40.625 48.1875 47.75 41.5 
Q 54.890625 34.8125 54.890625 23.390625 
Q 54.890625 11.625 47.5625 5.09375 
Q 40.234375 -1.421875 26.90625 -1.421875 
Q 22.3125 -1.421875 17.546875 -0.640625 
Q 12.796875 0.140625 7.71875 1.703125 
L 7.71875 11.625 
Q 12.109375 9.234375 16.796875 8.0625 
Q 21.484375 6.890625 26.703125 6.890625 
Q 35.15625 6.890625 40.078125 11.328125 
Q 45.015625 15.765625 45.015625 23.390625 
Q 45.015625 31 40.078125 35.4375 
Q 35.15625 39.890625 26.703125 39.890625 
Q 22.75 39.890625 18.8125 39.015625 
Q 14.890625 38.140625 10.796875 36.28125 
z
" id="DejaVuSans-53"/>
     </defs>
     <g transform="translate(158.04756 101.305007)scale(0.12 -0.12)">
      <use xlink:href="#DejaVuSans-49"/>
      <use x="63.623047" xlink:href="#DejaVuSans-53"/>
     </g>
    </g>
   </g>
   <g id="text_10">
    <g clip-path="url(#p9010f8549b)">
     <!-- 29 -->
     <defs>
      <path d="M 10.984375 1.515625 
L 10.984375 10.5 
Q 14.703125 8.734375 18.5 7.8125 
Q 22.3125 6.890625 25.984375 6.890625 
Q 35.75 6.890625 40.890625 13.453125 
Q 46.046875 20.015625 46.78125 33.40625 
Q 43.953125 29.203125 39.59375 26.953125 
Q 35.25 24.703125 29.984375 24.703125 
Q 19.046875 24.703125 12.671875 31.3125 
Q 6.296875 37.9375 6.296875 49.421875 
Q 6.296875 60.640625 12.9375 67.421875 
Q 19.578125 74.21875 30.609375 74.21875 
Q 43.265625 74.21875 49.921875 64.515625 
Q 56.59375 54.828125 56.59375 36.375 
Q 56.59375 19.140625 48.40625 8.859375 
Q 40.234375 -1.421875 26.421875 -1.421875 
Q 22.703125 -1.421875 18.890625 -0.6875 
Q 15.09375 0.046875 10.984375 1.515625 
z
M 30.609375 32.421875 
Q 37.25 32.421875 41.125 36.953125 
Q 45.015625 41.5 45.015625 49.421875 
Q 45.015625 57.28125 41.125 61.84375 
Q 37.25 66.40625 30.609375 66.40625 
Q 23.96875 66.40625 20.09375 61.84375 
Q 16.21875 57.28125 16.21875 49.421875 
Q 16.21875 41.5 20.09375 36.953125 
Q 23.96875 32.421875 30.609375 32.421875 
z
" id="DejaVuSans-57"/>
     </defs>
     <g transform="translate(155.894434 77.796523)scale(0.12 -0.12)">
      <use xlink:href="#DejaVuSans-50"/>
      <use x="63.623047" xlink:href="#DejaVuSans-57"/>
     </g>
    </g>
   </g>
   <g id="text_11">
    <g clip-path="url(#p9010f8549b)">
     <!-- 34 -->
     <g transform="translate(186.957797 119.578029)scale(0.12 -0.12)">
      <use xlink:href="#DejaVuSans-51"/>
      <use x="63.623047" xlink:href="#DejaVuSans-52"/>
     </g>
    </g>
   </g>
   <g id="text_12">
    <g clip-path="url(#p9010f8549b)">
     <!-- 11 -->
     <g transform="translate(246.658887 68.556826)scale(0.12 -0.12)">
      <use xlink:href="#DejaVuSans-49"/>
      <use x="63.623047" xlink:href="#DejaVuSans-49"/>
     </g>
    </g>
   </g>
   <g id="text_13">
    <g clip-path="url(#p9010f8549b)">
     <!-- 4 -->
     <g transform="translate(977.978042 589.846023)scale(0.12 -0.12)">
      <use xlink:href="#DejaVuSans-52"/>
     </g>
    </g>
   </g>
   <g id="text_14">
    <g clip-path="url(#p9010f8549b)">
     <!-- 21 -->
     <g transform="translate(1019.234124 574.611791)scale(0.12 -0.12)">
      <use xlink:href="#DejaVuSans-50"/>
      <use x="63.623047" xlink:href="#DejaVuSans-49"/>
     </g>
    </g>
   </g>
   <g id="text_15">
    <g clip-path="url(#p9010f8549b)">
     <!-- 23 -->
     <g transform="translate(945.030165 611.348961)scale(0.12 -0.12)">
      <use xlink:href="#DejaVuSans-50"/>
      <use x="63.623047" xlink:href="#DejaVuSans-51"/>
     </g>
    </g>
   </g>
   <g id="text_16">
    <g clip-path="url(#p9010f8549b)">
     <!-- 9 -->
     <g transform="translate(985.908158 623.246275)scale(0.12 -0.12)">
      <use xlink:href="#DejaVuSans-57"/>
     </g>
    </g>
   </g>
   <g id="text_17">
    <g clip-path="url(#p9010f8549b)">
     <!-- 5 -->
     <g transform="translate(575.948488 148.567578)scale(0.12 -0.12)">
      <use xlink:href="#DejaVuSans-53"/>
     </g>
    </g>
   </g>
   <g id="text_18">
    <g clip-path="url(#p9010f8549b)">
     <!-- 19 -->
     <g transform="translate(545.862031 185.45111)scale(0.12 -0.12)">
      <use xlink:href="#DejaVuSans-49"/>
      <use x="63.623047" xlink:href="#DejaVuSans-57"/>
     </g>
    </g>
   </g>
   <g id="text_19">
    <g clip-path="url(#p9010f8549b)">
     <!-- 6 -->
     <defs>
      <path d="M 33.015625 40.375 
Q 26.375 40.375 22.484375 35.828125 
Q 18.609375 31.296875 18.609375 23.390625 
Q 18.609375 15.53125 22.484375 10.953125 
Q 26.375 6.390625 33.015625 6.390625 
Q 39.65625 6.390625 43.53125 10.953125 
Q 47.40625 15.53125 47.40625 23.390625 
Q 47.40625 31.296875 43.53125 35.828125 
Q 39.65625 40.375 33.015625 40.375 
z
M 52.59375 71.296875 
L 52.59375 62.3125 
Q 48.875 64.0625 45.09375 64.984375 
Q 41.3125 65.921875 37.59375 65.921875 
Q 27.828125 65.921875 22.671875 59.328125 
Q 17.53125 52.734375 16.796875 39.40625 
Q 19.671875 43.65625 24.015625 45.921875 
Q 28.375 48.1875 33.59375 48.1875 
Q 44.578125 48.1875 50.953125 41.515625 
Q 57.328125 34.859375 57.328125 23.390625 
Q 57.328125 12.15625 50.6875 5.359375 
Q 44.046875 -1.421875 33.015625 -1.421875 
Q 20.359375 -1.421875 13.671875 8.265625 
Q 6.984375 17.96875 6.984375 36.375 
Q 6.984375 53.65625 15.1875 63.9375 
Q 23.390625 74.21875 37.203125 74.21875 
Q 40.921875 74.21875 44.703125 73.484375 
Q 48.484375 72.75 52.59375 71.296875 
z
" id="DejaVuSans-54"/>
     </defs>
     <g transform="translate(578.008809 170.545219)scale(0.12 -0.12)">
      <use xlink:href="#DejaVuSans-54"/>
     </g>
    </g>
   </g>
   <g id="text_20">
    <g clip-path="url(#p9010f8549b)">
     <!-- 20 -->
     <g transform="translate(578.687427 192.501006)scale(0.12 -0.12)">
      <use xlink:href="#DejaVuSans-50"/>
      <use x="63.623047" xlink:href="#DejaVuSans-48"/>
     </g>
    </g>
   </g>
   <g id="text_21">
    <g clip-path="url(#p9010f8549b)">
     <!-- 7 -->
     <g transform="translate(504.090899 682.164144)scale(0.12 -0.12)">
      <use xlink:href="#DejaVuSans-55"/>
     </g>
    </g>
   </g>
   <g id="text_22">
    <g clip-path="url(#p9010f8549b)">
     <!-- 14 -->
     <g transform="translate(513.329917 657.334442)scale(0.12 -0.12)">
      <use xlink:href="#DejaVuSans-49"/>
      <use x="63.623047" xlink:href="#DejaVuSans-52"/>
     </g>
    </g>
   </g>
   <g id="text_23">
    <g clip-path="url(#p9010f8549b)">
     <!-- 30 -->
     <g transform="translate(538.807372 653.866486)scale(0.12 -0.12)">
      <use xlink:href="#DejaVuSans-51"/>
      <use x="63.623047" xlink:href="#DejaVuSans-48"/>
     </g>
    </g>
   </g>
   <g id="text_24">
    <g clip-path="url(#p9010f8549b)">
     <!-- 18 -->
     <defs>
      <path d="M 31.78125 34.625 
Q 24.75 34.625 20.71875 30.859375 
Q 16.703125 27.09375 16.703125 20.515625 
Q 16.703125 13.921875 20.71875 10.15625 
Q 24.75 6.390625 31.78125 6.390625 
Q 38.8125 6.390625 42.859375 10.171875 
Q 46.921875 13.96875 46.921875 20.515625 
Q 46.921875 27.09375 42.890625 30.859375 
Q 38.875 34.625 31.78125 34.625 
z
M 21.921875 38.8125 
Q 15.578125 40.375 12.03125 44.71875 
Q 8.5 49.078125 8.5 55.328125 
Q 8.5 64.0625 14.71875 69.140625 
Q 20.953125 74.21875 31.78125 74.21875 
Q 42.671875 74.21875 48.875 69.140625 
Q 55.078125 64.0625 55.078125 55.328125 
Q 55.078125 49.078125 51.53125 44.71875 
Q 48 40.375 41.703125 38.8125 
Q 48.828125 37.15625 52.796875 32.3125 
Q 56.78125 27.484375 56.78125 20.515625 
Q 56.78125 9.90625 50.3125 4.234375 
Q 43.84375 -1.421875 31.78125 -1.421875 
Q 19.734375 -1.421875 13.25 4.234375 
Q 6.78125 9.90625 6.78125 20.515625 
Q 6.78125 27.484375 10.78125 32.3125 
Q 14.796875 37.15625 21.921875 38.8125 
z
M 18.3125 54.390625 
Q 18.3125 48.734375 21.84375 45.5625 
Q 25.390625 42.390625 31.78125 42.390625 
Q 38.140625 42.390625 41.71875 45.5625 
Q 45.3125 48.734375 45.3125 54.390625 
Q 45.3125 60.0625 41.71875 63.234375 
Q 38.140625 66.40625 31.78125 66.40625 
Q 25.390625 66.40625 21.84375 63.234375 
Q 18.3125 60.0625 18.3125 54.390625 
z
" id="DejaVuSans-56"/>
     </defs>
     <g transform="translate(470.082092 645.138779)scale(0.12 -0.12)">
      <use xlink:href="#DejaVuSans-49"/>
      <use x="63.623047" xlink:href="#DejaVuSans-56"/>
     </g>
    </g>
   </g>
   <g id="text_25">
    <g clip-path="url(#p9010f8549b)">
     <!-- 8 -->
     <g transform="translate(480.380209 561.345894)scale(0.12 -0.12)">
      <use xlink:href="#DejaVuSans-56"/>
     </g>
    </g>
   </g>
   <g id="text_26">
    <g clip-path="url(#p9010f8549b)">
     <!-- 33 -->
     <g transform="translate(473.514784 595.586531)scale(0.12 -0.12)">
      <use xlink:href="#DejaVuSans-51"/>
      <use x="63.623047" xlink:href="#DejaVuSans-51"/>
     </g>
    </g>
   </g>
   <g id="text_27">
    <g clip-path="url(#p9010f8549b)">
     <!-- 26 -->
     <g transform="translate(531.130485 574.344214)scale(0.12 -0.12)">
      <use xlink:href="#DejaVuSans-50"/>
      <use x="63.623047" xlink:href="#DejaVuSans-54"/>
     </g>
    </g>
   </g>
   <g id="text_28">
    <g clip-path="url(#p9010f8549b)">
     <!-- 25 -->
     <g transform="translate(686.928955 171.403159)scale(0.12 -0.12)">
      <use xlink:href="#DejaVuSans-50"/>
      <use x="63.623047" xlink:href="#DejaVuSans-53"/>
     </g>
    </g>
   </g>
   <g id="text_29">
    <g clip-path="url(#p9010f8549b)">
     <!-- 13 -->
     <g transform="translate(528.817377 616.101475)scale(0.12 -0.12)">
      <use xlink:href="#DejaVuSans-49"/>
      <use x="63.623047" xlink:href="#DejaVuSans-51"/>
     </g>
    </g>
   </g>
   <g id="text_30">
    <g clip-path="url(#p9010f8549b)">
     <!-- 22 -->
     <g transform="translate(505.162122 621.480875)scale(0.12 -0.12)">
      <use xlink:href="#DejaVuSans-50"/>
      <use x="63.623047" xlink:href="#DejaVuSans-50"/>
     </g>
    </g>
   </g>
   <g id="text_31">
    <g clip-path="url(#p9010f8549b)">
     <!-- 31 -->
     <g transform="translate(582.659793 211.109838)scale(0.12 -0.12)">
      <use xlink:href="#DejaVuSans-51"/>
      <use x="63.623047" xlink:href="#DejaVuSans-49"/>
     </g>
    </g>
   </g>
   <g id="text_32">
    <g clip-path="url(#p9010f8549b)">
     <!-- 16 -->
     <g transform="translate(585.607305 557.245406)scale(0.12 -0.12)">
      <use xlink:href="#DejaVuSans-49"/>
      <use x="63.623047" xlink:href="#DejaVuSans-54"/>
     </g>
    </g>
   </g>
   <g id="text_33">
    <g clip-path="url(#p9010f8549b)">
     <!-- 28 -->
     <g transform="translate(502.159552 555.498243)scale(0.12 -0.12)">
      <use xlink:href="#DejaVuSans-50"/>
      <use x="63.623047" xlink:href="#DejaVuSans-56"/>
     </g>
    </g>
   </g>
   <g id="text_34">
    <g clip-path="url(#p9010f8549b)">
     <!-- 32 -->
     <g transform="translate(410.521067 593.644429)scale(0.12 -0.12)">
      <use xlink:href="#DejaVuSans-51"/>
      <use x="63.623047" xlink:href="#DejaVuSans-50"/>
     </g>
    </g>
   </g>
  </g>
 </g>
 <defs>
  <clipPath id="p9010f8549b">
   <rect height="720" width="1080" x="0" y="0"/>
  </clipPath>
 </defs>
</svg>
